<svg xmlns="http://www.w3.org/2000/svg" viewBox="0 0 980 980" fill="none" shape-rendering="auto" width="512" height="512"><desc>"Lorelei" by "Lisa Wischofsky", licensed under "CC0 1.0". / Remix of the original. - Created with dicebear.com</desc><metadata xmlns:dc="http://purl.org/dc/elements/1.1/" xmlns:cc="http://creativecommons.org/ns#" xmlns:rdf="http://www.w3.org/1999/02/22-rdf-syntax-ns#"><rdf:RDF><cc:Work><dc:title>Lorelei</dc:title><dc:creator><cc:Agent rdf:about="https://www.instagram.com/lischi_art/"><dc:title>Lisa Wischofsky</dc:title></cc:Agent></dc:creator><dc:source>https://www.figma.com/community/file/1198749693280469639</dc:source><cc:license rdf:resource="https://creativecommons.org/licenses/zero/1.0/" /></cc:Work></rdf:RDF></metadata><mask id="viewboxMask"><rect width="980" height="980" rx="0" ry="0" x="0" y="0" fill="#fff" /></mask><g mask="url(#viewboxMask)"><g transform="translate(10 -60)"><path d="M534 142c7-1 14-1 21 1s14 6 18 12c7 8 9 18 9 28l31-16c20-9 43-15 65-14 12 1 24 4 34 11 9 6 16 17 16 28 0 8-4 16-8 23-9 15-22 28-36 38 8 6 14 15 14 26 1 7-2 13-5 19 8 14 16 29 18 45 2 12-2 24-8 35-6 10-15 18-26 21-2 0-3-2-4-4l-4-18c-4-19-9-37-15-56-9 1-17 1-26-1-8-2-16-4-23-9a85 85 0 0 1-62 30c-14 0-29-7-41-15-10-7-19-14-23-26l-25 14-41 17-33 14c-10 4-19 10-27 18-6 6-11 13-14 21l-1 13c-3 8-7 13-11 20-8 10-13 23-15 36-3 16-2 34 2 50 2 11 6 21 7 32 4 3 9 6 12 10l-17-1-13-3-2 2c9 3 19 5 27 11 3 3 6 5 8 9-8 0-15 0-22-2-9-2-17-4-25-8-4 2-8 7-13 7-6-2-10-8-14-12-5-4-9-10-12-15l-7-14-10-26a220 220 0 0 1 5-119c7-22 15-44 27-64 15-24 38-44 63-57 12-6 25-12 39-14 1-12 7-24 17-32a74 74 0 0 1 81-4c4-15 12-27 23-37 12-13 29-22 46-24Z" fill="#000000"/><path d="M486 236c57-2 115 18 159 56a209 209 0 0 1 73 190c-1 4-1 8-4 12l-1-3v-33a215 215 0 0 0-172-206 235 235 0 0 0-270 153c-12 37-14 78-6 116 6-2 12-2 17-2 2 1 5 1 6 3s0 3-1 4l-12 4c-14 3-27 8-37 18a63 63 0 0 0-22 45c0 12 3 24 8 35 8 13 19 24 33 31 18 10 41 13 62 7 2-1 4-2 6-1s3 4 4 6l15 30a215 215 0 0 0 72 63c28 15 59 21 90 26 3 1 8 1 10 4 1 2 0 3-2 4l-11 1a231 231 0 0 1-147-62c5 18 8 36 8 54 0 12-2 23-6 34-5 10-11 18-19 26a196 196 0 0 1-60 43c-1-1 1-2 2-3l17-14c13-12 25-23 35-38a93 93 0 0 0 17-65l-4-39-2-10-12-17c-5-10-11-20-13-31a93 93 0 0 1-96-31 81 81 0 0 1-19-51c0-12 3-23 8-34 9-16 23-29 40-36-8-31-8-62-3-93 8-40 26-77 51-108 45-54 115-87 186-88Z" fill="#000"/><path d="M541 252a214 214 0 0 1 172 206v33c-1 5-2 10-1 15-2 2-3 3-3 5-3 18-1 37 1 55 4 29 6 59 2 88-3 28-13 56-30 79-16 21-38 34-62 43-15 6-30 9-45 13-11 2-22 4-32 8 1 2 4 1 6 2 12 1 24-1 36-2-5 8-8 17-9 26-2 10 2 19 9 26 6 7 15 11 24 14 5 2 11 3 17 3 7 9 13 18 14 30 2 12-1 24-8 34-9 14-22 23-37 30-18 9-38 15-57 18a352 352 0 0 1-192-23c-18-10-38-23-48-42-4-7-8-16-6-24 18-10 33-23 47-38 8-8 14-16 19-26 4-11 6-22 6-34 0-18-3-36-8-54a235 235 0 0 0 147 62l11-1c2-1 3-2 2-4-2-3-7-3-10-4-31-5-62-11-90-26-18-10-36-22-50-37-8-8-16-17-22-26l-15-30c-1-2-2-5-4-6s-4 0-6 1a82 82 0 0 1-95-38c-5-11-8-23-8-35 1-17 9-34 22-45 10-10 23-15 37-18l12-4c1-1 2-2 1-4s-4-2-6-3c-5 0-11 0-17 2-8-38-6-79 6-116a236 236 0 0 1 270-153Z" fill="#ffffff"/><path d="m712 506 3 3 1 13 3 45c3 20 5 40 5 60 0 16-1 32-5 47-6 28-20 56-40 76a174 174 0 0 1-88 46c-1 9-4 16-4 25-1 6 2 10 5 15 8 8 18 14 28 19l18 9c-3 3-8 1-12 2-6 0-12-1-17-3-9-3-18-7-24-14-7-7-11-16-9-26 1-9 4-18 9-26-12 1-24 3-36 2-2-1-5 0-6-2 10-4 21-6 32-8 15-4 30-7 45-13 24-9 46-22 62-43 17-23 27-51 30-79 4-29 2-59-2-88-2-18-4-37-1-55 0-2 1-3 3-5ZM262 566c6 0 12 1 15 6 2 3 2 7 1 10-3 8-9 14-11 22-1 4 0 7 3 9 7 5 16 7 24 10l-2 2h-11c-6-1-12-2-17-5-5-4-9-11-7-18 2-9 9-15 12-23-7-4-14-2-20-8 3-4 8-6 13-5Z" fill="#000"/><path d="M683 485c4 0 8 0 10 3 4 3 4 10-1 13-3 2-6 2-10 2l-18 4c0 7-1 15-4 22-2 5-6 9-10 12-6 3-13 1-17-4l-3-8c-3 3-5 6-9 8-3 1-4 0-4-3 1-6 4-11 8-15a91 91 0 0 1 42-32l16-2ZM441 499c11 0 21 2 31 4 14 4 28 8 40 18 3 3 8 6 9 10 0 2 0 3-2 3l-11-5c-10-5-22-8-34-10-2 9-4 18-10 26-4 4-9 6-15 6-8-1-16-5-21-11-5-7-6-14-7-23l-14 4c-3 1-6 2-9 1-5-1-7-6-6-11 1-4 5-6 9-7 12-5 27-6 40-5Z" fill="#000000"/><path d="M503 394c7 0 14 2 19 6 4 2 7 4 8 8 1 2 0 5-2 6-5 1-10-2-14-3l-9-1c-13-1-26 1-39 4a169 169 0 0 0-60 31c-4 2-9 5-14 4-3 0-3-4-2-7 1-6 7-11 12-16 10-9 23-15 35-20 20-9 44-14 66-12ZM659 396c7-2 14-1 20 3 4 3 8 6 9 11 1 3 1 6-2 7s-7 1-10-1c-5-3-9-6-15-6-5 0-10 1-14 3-8 4-16 11-20 19l-6 9h-3v-6c2-8 7-16 13-22 7-8 17-15 28-17Z" fill="#000000"/><path d="M597 505h1l3 15 3 26 8 13 6 12c2 5 2 10 5 14 3 5 5 10 5 16 0 9-6 17-14 20l-19 8c-5 3-9 5-15 5-5 0-11 0-13-5-2-2 0-4 2-5l12-3 16-5 13-5c6-2 9-8 7-14l-5-8-7-17-7-19c-4-8-6-17-5-26 0-7 1-15 4-22Z" fill="#000000"/><path fill-rule="evenodd" clip-rule="evenodd" d="m463 648-14-4h-1c-2-1-5-1-6 1-1 1 0 3 1 3l6 3 2 1a257 257 0 0 0 73 24c0 7 2 14 7 20 5 7 12 13 21 16 10 4 21 3 31-1s18-12 22-22c2-4 2-9 2-13l18-6v-1l2-2a1497 1497 0 0 0-29 0 324 324 0 0 1-86-4l-39-11-2-1-8-3Zm69 29c1 10 9 18 18 23 12 9 32 5 40-8 3-4 4-9 5-14v-1l-26 2 1 1c0 3 1 5-1 8s-6 3-7 0c-2-3-2-6-1-9a1036 1036 0 0 0-25-2h-4Z" fill="#000000"/><path d="M534 142c7-1 14-1 21 1s14 6 18 12c7 8 9 18 9 28l31-16c20-9 42-14 64-14 12 1 25 4 35 11 9 6 16 17 16 28 0 8-4 16-8 23-9 15-22 28-36 38 9 7 15 18 14 30-1 8-6 17-11 23-7 8-17 12-27 14a76 76 0 0 1-55-9c-7 9-15 16-25 21-13 7-27 11-42 9-17-3-32-11-45-22-6-5-11-11-14-19l-23 13-44 19c-15 5-30 11-43 19-12 7-24 18-29 31-3 6 0 13-3 18-3 7-7 11-11 17-6 10-11 22-14 33-3 18-2 36 2 53 2 11 6 21 7 32 4 3 9 6 12 10-11 0-21-2-31-4a206 206 0 0 1-53-16c-3 0-4-3-6-5l-9-24c-6-21-6-42-6-64a265 265 0 0 1 37-122c15-24 38-44 63-57 12-6 25-12 39-14 1-13 7-24 18-32 12-10 28-14 43-14 13-1 25 4 37 10 3-14 11-26 21-35 12-14 30-24 48-26ZM289 541c9 1 18 4 27 7 6 2 13 6 18 11l2 4c-9 1-18-1-26-3s-17-5-24-10c-2-1-5-3-4-6s4-3 7-3Z" fill="#000000"/></g><g transform="translate(10 -60)"></g></g></svg>