<svg xmlns="http://www.w3.org/2000/svg" viewBox="0 0 980 980" fill="none" shape-rendering="auto" width="512" height="512"><desc>"Lorelei" by "Lisa Wischofsky", licensed under "CC0 1.0". / Remix of the original. - Created with dicebear.com</desc><metadata xmlns:dc="http://purl.org/dc/elements/1.1/" xmlns:cc="http://creativecommons.org/ns#" xmlns:rdf="http://www.w3.org/1999/02/22-rdf-syntax-ns#"><rdf:RDF><cc:Work><dc:title>Lorelei</dc:title><dc:creator><cc:Agent rdf:about="https://www.instagram.com/lischi_art/"><dc:title>Lisa Wischofsky</dc:title></cc:Agent></dc:creator><dc:source>https://www.figma.com/community/file/1198749693280469639</dc:source><cc:license rdf:resource="https://creativecommons.org/licenses/zero/1.0/" /></cc:Work></rdf:RDF></metadata><mask id="viewboxMask"><rect width="980" height="980" rx="0" ry="0" x="0" y="0" fill="#fff" /></mask><g mask="url(#viewboxMask)"><g transform="translate(10 -60)"><path fill-rule="evenodd" clip-rule="evenodd" d="m555 134-4-1-18 3a266 266 0 0 0-97 46c-12 8-23 18-32 29a121 121 0 0 0-43-36l-17-9-7-2c-2 0-4 3-5 5 0 3 2 7 4 10l4 6 8 13 12 17 11 15a248 248 0 0 0-21 9l-14 7-10 5c-10 4-20 10-29 15l-4 2-19 12-3 3c-10 7-20 13-28 22-10 10-19 21-25 34a203 203 0 0 0-21 76l-1 6-4 38v75c0 10 1 20-1 29l-8 53c-6 31-11 62-13 94a185 185 0 0 0 38 138l11 8-3-6-4-5-8-18-2-3a291 291 0 0 1-16-51 206 206 0 0 0 52 79c9 8 19 15 31 18 4 0 7 0 9-3v-8l-1-7-2-9c14 11 29 18 46 21 10 3 21 2 31 0l14-1 8-1 49-4a1209 1209 0 0 1 118-8c15 1 30 4 45 7h10l6-1c13-2 25-5 38-9a179 179 0 0 0 46-25 164 164 0 0 1-19 44l-3 5c6 2 11 4 16 3 14-2 25-10 36-18l6-3 5-2a134 134 0 0 0 59-55c12-22 20-48 21-74 0-23-3-45-10-67l-14-37-3-9a2009 2009 0 0 1-20-53 455 455 0 0 1-21-75v-1c3-16 5-33 5-50-1-16-6-31-12-46a276 276 0 0 1 42 92 241 241 0 0 1 3 74c0 5-1 11 2 15l4-5 4-9 2-7c11-25 15-54 13-82-2-35-14-70-33-100-20-34-47-62-78-86a353 353 0 0 0-215-71l21-22v-1a140 140 0 0 1 41-34l13-7 6-6-2-1Zm215 484-6-14 1 4c3 20 7 40 8 61 2 27 2 54-2 80-3 21-8 43-19 62-5 10-12 19-19 28a174 174 0 0 0 61-120c0-18-2-36-7-54l-17-47Z" fill="#000000"/><path d="M528 244c41 6 80 22 113 47 28 21 50 49 65 81 13 28 20 60 19 91-1 15-3 30-8 44h-2l1-21c1-30-2-59-13-87-10-30-28-57-50-79-42-40-98-62-156-63a243 243 0 0 0-196 94 207 207 0 0 0-40 139l2 25c8 0 19 0 25 7l-3 3-17 1c-12 1-24 5-33 13a64 64 0 0 0-17 39c-5 32 12 65 39 83 16 10 36 15 55 9 4-2 9-5 14-3 3 1 4 4 5 7a251 251 0 0 0 90 100c8 7 18 13 28 18 18 8 38 14 57 19l32 8c5 1 9 1 13 3l-4 1c-25 2-48-3-72-10-12-3-23-7-34-12a306 306 0 0 1-84-63l2 28c1 17 0 35-6 52-4 12-11 24-19 34-10 10-22 19-34 26-10 7-21 14-32 18l-16 5 9-9 31-20 22-17a95 95 0 0 0 32-56c2-14 2-28 2-43v-27c-10-14-22-29-27-46-17 8-38 7-55-1-17-7-32-19-43-33-12-17-19-36-21-56s2-40 15-56c9-10 22-18 35-21-4-14-6-29-6-44a234 234 0 0 1 83-173 249 249 0 0 1 199-55Z" fill="#000"/><path d="M653 320c22 22 40 49 50 79 11 28 14 57 13 87l-1 21-5 15-2 13 2 56c0 21 1 42-1 63l-3 47c-2 16-7 31-14 45-11 18-26 33-44 44-13 8-27 12-41 16l-38 11-17 3c0 1 1 2 3 2 8 5 17 5 26 4-3 7-4 14-2 22 3 7 11 11 17 14 12 6 24 7 36 9 7 6 14 14 16 24 2 8 2 16-2 23-5 10-14 18-24 23-13 8-27 14-42 18a468 468 0 0 1-222-1c-17-4-33-9-48-17-12-6-23-13-32-22-5-7-9-14-10-23 11-4 22-11 32-18 12-7 24-16 34-26 8-10 15-22 19-34 6-17 7-35 6-52l-2-28 22 23c19 15 40 30 62 40 11 5 22 9 34 12 24 7 47 12 72 10l4-1c-4-2-8-2-13-3l-32-8c-19-5-39-11-57-19l-29-17c-11-9-23-17-33-27a251 251 0 0 1-56-74c-1-3-2-6-5-7-5-2-10 1-14 3-19 6-39 1-55-9a88 88 0 0 1-39-83c1-14 7-28 17-39 9-8 21-12 33-13l17-1 3-3c-6-7-17-7-25-7l-2-25a207 207 0 0 1 40-139 243 243 0 0 1 196-94c58 1 114 23 156 63Z" fill="#ffffff"/><path d="M710 522c3 0 3 4 4 6 3 11 4 23 5 34l2 21c1 22 2 43 1 65-1 21-1 44-5 65a136 136 0 0 1-80 99c-15 7-31 11-48 13v15c1 3 3 4 5 6 12 6 23 8 36 11 12 3 24 5 36 11-3 3-7 4-11 4-7 1-15-1-23-1-12-2-24-3-36-9-6-3-14-7-17-14-2-8-1-15 2-22-9 1-18 1-26-4-2 0-3-1-3-2l17-3 38-11c14-4 28-8 41-16 18-11 33-26 44-44 7-14 12-29 14-45l3-47c2-21 1-42 1-63l-2-56 2-13ZM252 549c8 0 17 1 23 7 5 4 10 9 12 15 1 3 0 6-2 8l-13 8c-7 6-7 19 0 25 6 5 14 8 21 11 2 0 5 1 6 3-1 2-3 3-5 3-10 0-20-3-28-9-5-3-8-8-9-13-2-8-2-17 4-24 4-6 11-9 18-12-4-5-7-11-14-13-7-3-15-3-22-5l9-4Z" fill="#000"/><path d="M670 463c7 1 14 4 18 10 6 7 7 15 8 24 0 4-1 9-3 12-3 4-9 4-12 0-2-3-2-8-3-12 0-7-3-15-10-18 10 15 11 33 7 50-2 9-6 16-13 22-4 4-11 6-17 4-6-1-10-6-13-11-4-8-6-16-6-25l-5 14c-1 3-2 6-5 9-3-3-3-6-4-10a83 83 0 0 1 34-61c7-5 15-8 24-8ZM455 468c14 0 29 5 40 14 14 10 24 25 28 42v14c-1 1-2 2-4 1a163 163 0 0 0-17-27c1 14-2 28-11 39-6 8-15 14-26 15-11 0-21-7-27-16-8-12-9-27-6-41 2-9 7-17 13-23l-13 5c-6 5-13 9-18 16l-5 6c-3 4-9 4-12 0-3-3-3-8-1-12 6-8 13-16 22-22 11-8 24-11 37-11Z" fill="#000000"/><path d="M659 498c1 7-1 13-3 20l-5 9c-1 2-4 2-5 1l-4-7c-3-6-5-13-4-19 0-3 2-4 5-4 3 1 4 3 5 5 1-2 2-6 4-7 2-2 6-1 7 2ZM475 500c4 0 6 3 7 6 1 8-2 14-4 22 0 4-2 8-6 11-2 1-4 0-5-2l-10-15-3-8c-1-4-1-8 2-12 2-2 5-2 8 0l5 6c1-4 2-7 6-8Z" fill="#fff"/><path d="M533 358c6 2 9 8 10 14 0 8-3 16-7 22-3 3-7 4-10 1-4-3-2-10-2-15l-13 10c-6 4-13 7-20 9-9 4-19 5-30 8l-25 8c-8 3-15 8-22 12l-25 17c-5 3-8 7-11 12-2-4-1-8 1-11a401 401 0 0 1 35-29c16-13 36-21 55-28l28-11c8-4 14-11 21-16 5-2 10-4 15-3ZM626 376l6 7c17 7 33 7 49 16 4 2 7 6 9 10s1 8-2 12l-16-6c-12-6-24-7-36-11-7-3-14-4-19-10-4 8-4 17-8 26-1 1-1 4-4 3l-1-8 2-11c1-8 4-16 7-23 2-6 8-8 13-5Z" fill="#000000"/><path d="M216 569c5 0 10-1 14 2 3 2 5 5 4 9-2 4-6 7-11 7h-16c-5-1-9-3-11-7-1-4 2-7 5-9 5-2 10-1 15-2ZM229 592c3 1 7 3 7 7 0 3-1 6-4 7-5 4-11 4-17 6-5 1-10 2-14-1s-3-9 0-12c4-4 8-4 13-5s10-3 15-2ZM301 644h8c3 1 6 4 6 8 0 5-4 9-9 10-5 2-9-2-11-6-1-5 1-11 6-12Z" fill="#000000"/><path d="M597 505h1l3 15 3 26 8 13 6 12c2 5 2 10 5 14 3 5 5 10 5 16 0 9-6 17-14 20l-19 8c-5 3-9 5-15 5-5 0-11 0-13-5-2-2 0-4 2-5l12-3 16-5 13-5c6-2 9-8 7-14l-5-8-7-17-7-19c-4-8-6-17-5-26 0-7 1-15 4-22Z" fill="#000000"/><path d="M497 679c8 3 15 5 22 9 4 1 7 3 11 3l13-2c5-1 10-1 14 3 7 5 8 17 2 23s-16 7-24 9c-6 1-13 1-19-2-4-1-6-3-8-6l5-4c6-2 13 1 19 0l15-3 5-4c0-2-1-5-4-5-7-1-13 4-20 3-9-1-16-7-25-10-4-2-9-5-14-5-4 0-6 3-7 6-2 4-3 9-1 13-2 3-5 1-7-1-4-8-1-19 6-25 5-3 12-3 17-2Z" fill="#000000"/><path fill-rule="evenodd" clip-rule="evenodd" d="m550 141 7-6c-5-3-10-2-15-1h-2c-25 6-49 14-71 26-25 14-47 30-65 51a119 119 0 0 0-40-34 390 390 0 0 1-22-12h-8c-2 2-2 5-1 7a36 36 0 0 0 5 11 707 707 0 0 1 22 31l11 17h-2l-17 8-6 3-12 6-19 10-11 6-23 13-1 1-25 17c-10 8-19 18-26 28-8 13-10 27-13 41l-1 4-6 45-3 33-1 20-2 32-1 21c0 15-2 30-3 44a4695 4695 0 0 0-3 44c0 27 1 54 6 81 3 15 9 30 16 44a115 115 0 0 0 28 39l6 5 7-7 24-37a296 296 0 0 0 61 80 255 255 0 0 0 44 30c3 1 6 3 9 2 2 0 2-2 2-4l-6-6-6-6a305 305 0 0 1-38-105 557 557 0 0 1-7-148c8 30 20 59 36 85l2 3 16 25 1 1c3 4 5 7 9 9l-2-9-1-4a452 452 0 0 1-14-208 366 366 0 0 0 134-130c11-15 21-30 30-46l6 4c4 24 2 47-1 70v8c-3 20-8 39-17 57l-1 3-3 5c2 1 3 2 5 1 4-1 6-4 9-7l16-31c11-29 13-60 12-90a406 406 0 0 1 71 83 273 273 0 0 1 25 68 257 257 0 0 1-3 134c-1 3-2 6-1 9 5 0 9-3 12-6 6-6 11-14 16-21l1-1a204 204 0 0 0 33-75 582 582 0 0 0 10-84c-1-16-5-30-11-45a287 287 0 0 1 44 110c2 15 3 31 2 46v6l-1 11v2c0 3 0 5 3 7l3-7 4-7 2-6c11-26 15-56 13-85-3-37-16-73-36-103-20-31-46-58-75-80a357 357 0 0 0-215-72l5-5 25-28a122 122 0 0 1 32-24l12-7ZM438 385c16-23 32-47 45-72l-6 6-17 16a234 234 0 0 0-63 104c15-16 29-35 41-54Z" fill="#000000"/></g><g transform="translate(10 -60)"></g></g></svg>