<svg xmlns="http://www.w3.org/2000/svg" viewBox="0 0 980 980" fill="none" shape-rendering="auto" width="512" height="512"><desc>"Lorelei" by "Lisa Wischofsky", licensed under "CC0 1.0". / Remix of the original. - Created with dicebear.com</desc><metadata xmlns:dc="http://purl.org/dc/elements/1.1/" xmlns:cc="http://creativecommons.org/ns#" xmlns:rdf="http://www.w3.org/1999/02/22-rdf-syntax-ns#"><rdf:RDF><cc:Work><dc:title>Lorelei</dc:title><dc:creator><cc:Agent rdf:about="https://www.instagram.com/lischi_art/"><dc:title>Lisa Wischofsky</dc:title></cc:Agent></dc:creator><dc:source>https://www.figma.com/community/file/1198749693280469639</dc:source><cc:license rdf:resource="https://creativecommons.org/licenses/zero/1.0/" /></cc:Work></rdf:RDF></metadata><mask id="viewboxMask"><rect width="980" height="980" rx="0" ry="0" x="0" y="0" fill="#fff" /></mask><g mask="url(#viewboxMask)"><g transform="translate(10 -60)"><path d="M269 153c13-1 27 1 40 4 17 5 34 11 50 20a91 91 0 0 1 44 43h41l47-1a284 284 0 0 1 150 43l22 16 22 24a58 58 0 0 1 8 67c-2 4-7 6-11 3s-6-8-9-13l-16-26-10-23-35-1c-4 0-8-1-11-4l-14-10c-1 4-3 9-6 12-3 4-9 0-13-1-22-4-44-6-67-6-24 0-47 3-71 6l-23 4-8-2-18-5 3 17-1 14c0 4-3 8-5 12l-19 37c-6 17-12 34-16 52 0 2-1 4-3 5l-12 2c5 9 6 20 5 30-1 12-3 25-9 36 7 9 9 20 10 32 2 19 0 38-7 55-2 5-5 10-10 12-1 1-4 1-4-1-2-3-2-7-2-11l-3-13-18-1c-8-2-16-7-21-14l-9-10a233 233 0 0 1-28-159c6-39 21-76 44-107a330 330 0 0 0-87 53c-6-6-8-14-8-22 1-19 9-36 21-51-19 10-35 22-51 35-3 2-5 5-9 5l-7-10c-3-11 1-24 7-33 9-16 25-29 39-40 4-4 10-8 13-13 1-2 0-6-2-7l-9-3c-2-1-2-3 0-5 12-13 29-17 45-22 30-7 61-9 91-3-17-7-34-13-52-16h-11l1-2c3-3 8-4 12-4Z" fill="#000000"/><path d="M486 236c57-2 115 18 159 56a209 209 0 0 1 73 190c-1 4-1 8-4 12l-1-3v-33a215 215 0 0 0-172-206 235 235 0 0 0-270 153c-12 37-14 78-6 116 6-2 12-2 17-2 2 1 5 1 6 3s0 3-1 4l-12 4c-14 3-27 8-37 18a63 63 0 0 0-22 45c0 12 3 24 8 35 8 13 19 24 33 31 18 10 41 13 62 7 2-1 4-2 6-1s3 4 4 6l15 30a215 215 0 0 0 72 63c28 15 59 21 90 26 3 1 8 1 10 4 1 2 0 3-2 4l-11 1a231 231 0 0 1-147-62c5 18 8 36 8 54 0 12-2 23-6 34-5 10-11 18-19 26a196 196 0 0 1-60 43c-1-1 1-2 2-3l17-14c13-12 25-23 35-38a93 93 0 0 0 17-65l-4-39-2-10-12-17c-5-10-11-20-13-31a93 93 0 0 1-96-31 81 81 0 0 1-19-51c0-12 3-23 8-34 9-16 23-29 40-36-8-31-8-62-3-93 8-40 26-77 51-108 45-54 115-87 186-88Z" fill="#000"/><path d="M541 252a214 214 0 0 1 172 206v33c-1 5-2 10-1 15-2 2-3 3-3 5-3 18-1 37 1 55 4 29 6 59 2 88-3 28-13 56-30 79-16 21-38 34-62 43-15 6-30 9-45 13-11 2-22 4-32 8 1 2 4 1 6 2 12 1 24-1 36-2-5 8-8 17-9 26-2 10 2 19 9 26 6 7 15 11 24 14 5 2 11 3 17 3 7 9 13 18 14 30 2 12-1 24-8 34-9 14-22 23-37 30-18 9-38 15-57 18a352 352 0 0 1-192-23c-18-10-38-23-48-42-4-7-8-16-6-24 18-10 33-23 47-38 8-8 14-16 19-26 4-11 6-22 6-34 0-18-3-36-8-54a235 235 0 0 0 147 62l11-1c2-1 3-2 2-4-2-3-7-3-10-4-31-5-62-11-90-26-18-10-36-22-50-37-8-8-16-17-22-26l-15-30c-1-2-2-5-4-6s-4 0-6 1a82 82 0 0 1-95-38c-5-11-8-23-8-35 1-17 9-34 22-45 10-10 23-15 37-18l12-4c1-1 2-2 1-4s-4-2-6-3c-5 0-11 0-17 2-8-38-6-79 6-116a236 236 0 0 1 270-153Z" fill="#ffffff"/><path d="m712 506 3 3 1 13 3 45c3 20 5 40 5 60 0 16-1 32-5 47-6 28-20 56-40 76a174 174 0 0 1-88 46c-1 9-4 16-4 25-1 6 2 10 5 15 8 8 18 14 28 19l18 9c-3 3-8 1-12 2-6 0-12-1-17-3-9-3-18-7-24-14-7-7-11-16-9-26 1-9 4-18 9-26-12 1-24 3-36 2-2-1-5 0-6-2 10-4 21-6 32-8 15-4 30-7 45-13 24-9 46-22 62-43 17-23 27-51 30-79 4-29 2-59-2-88-2-18-4-37-1-55 0-2 1-3 3-5ZM262 566c6 0 12 1 15 6 2 3 2 7 1 10-3 8-9 14-11 22-1 4 0 7 3 9 7 5 16 7 24 10l-2 2h-11c-6-1-12-2-17-5-5-4-9-11-7-18 2-9 9-15 12-23-7-4-14-2-20-8 3-4 8-6 13-5Z" fill="#000"/><path d="M683 485c4 0 8 0 10 3 4 3 4 10-1 13-3 2-6 2-10 2l-18 4c0 7-1 15-4 22-2 5-6 9-10 12-6 3-13 1-17-4l-3-8c-3 3-5 6-9 8-3 1-4 0-4-3 1-6 4-11 8-15a91 91 0 0 1 42-32l16-2ZM441 499c11 0 21 2 31 4 14 4 28 8 40 18 3 3 8 6 9 10 0 2 0 3-2 3l-11-5c-10-5-22-8-34-10-2 9-4 18-10 26-4 4-9 6-15 6-8-1-16-5-21-11-5-7-6-14-7-23l-14 4c-3 1-6 2-9 1-5-1-7-6-6-11 1-4 5-6 9-7 12-5 27-6 40-5Z" fill="#000000"/><path d="M533 358c6 2 9 8 10 14 0 8-3 16-7 22-3 3-7 4-10 1-4-3-2-10-2-15l-13 10c-6 4-13 7-20 9-9 4-19 5-30 8l-25 8c-8 3-15 8-22 12l-25 17c-5 3-8 7-11 12-2-4-1-8 1-11a401 401 0 0 1 35-29c16-13 36-21 55-28l28-11c8-4 14-11 21-16 5-2 10-4 15-3ZM626 376l6 7c17 7 33 7 49 16 4 2 7 6 9 10s1 8-2 12l-16-6c-12-6-24-7-36-11-7-3-14-4-19-10-4 8-4 17-8 26-1 1-1 4-4 3l-1-8 2-11c1-8 4-16 7-23 2-6 8-8 13-5Z" fill="#000000"/><path d="M597 505h1l3 15 3 26 8 13 6 12c2 5 2 10 5 14 3 5 5 10 5 16 0 9-6 17-14 20l-19 8c-5 3-9 5-15 5-5 0-11 0-13-5-2-2 0-4 2-5l12-3 16-5 13-5c6-2 9-8 7-14l-5-8-7-17-7-19c-4-8-6-17-5-26 0-7 1-15 4-22Z" fill="#000000"/><path d="M608 667c2 0 4 0 5 2l-1 15c5-1 10-4 16-2 0 4-4 7-7 9l-35 12c-17 4-34 7-51 8-7 1-15-1-22-3-2-1-4-1-4-4 4-2 9 0 12-1 2-5 7-7 11-10l31-19c3-1 7-4 10-4 4-1 7 4 11 4 8-2 16-7 24-7ZM607 712c1 4 1 8-1 11-2 5-7 9-12 11-6 2-12 3-18 2-2 0-6-2-6-5 1-2 5-2 7-3 8-4 18-7 25-13 2-1 3-3 5-3Z" fill="#000000"/><path d="M508 220a271 271 0 0 1 97 24c14 7 29 14 42 23 8 5 16 11 22 18l22 25c-9 4-18 3-27 2-17-2-34-4-51-3l-8-1-7-5-12-8c0 4-1 7-3 11-2 2-4 3-7 3-4-1-7-3-11-3a470 470 0 0 0-155 3h-11l-18-6c1 9 4 18 3 26-1 4-1 8-3 11-7 14-15 27-21 42-7 17-13 35-17 53 0 2-1 4-3 5l-12 2c5 9 6 20 5 30-1 12-3 26-9 36 7 9 10 21 10 33 1 19 0 37-7 55-2 4-5 9-10 11-1 1-4 1-4-1-2-4-2-9-3-13-2-15-9-29-20-40-8-7-17-14-26-19-6-2-11-4-16-8l-6-8c-12-32-16-67-12-101a285 285 0 0 1 37-113c10-16 22-30 35-43 10-9 20-17 31-23l14-5 32-11 19-2h43c23 0 44-2 67 0Z" fill="#000000"/></g><g transform="translate(10 -60)"></g></g></svg>