<svg xmlns="http://www.w3.org/2000/svg" viewBox="0 0 980 980" fill="none" shape-rendering="auto" width="512" height="512"><desc>"Lorelei" by "Lisa Wischofsky", licensed under "CC0 1.0". / Remix of the original. - Created with dicebear.com</desc><metadata xmlns:dc="http://purl.org/dc/elements/1.1/" xmlns:cc="http://creativecommons.org/ns#" xmlns:rdf="http://www.w3.org/1999/02/22-rdf-syntax-ns#"><rdf:RDF><cc:Work><dc:title>Lorelei</dc:title><dc:creator><cc:Agent rdf:about="https://www.instagram.com/lischi_art/"><dc:title>Lisa Wischofsky</dc:title></cc:Agent></dc:creator><dc:source>https://www.figma.com/community/file/1198749693280469639</dc:source><cc:license rdf:resource="https://creativecommons.org/licenses/zero/1.0/" /></cc:Work></rdf:RDF></metadata><mask id="viewboxMask"><rect width="980" height="980" rx="0" ry="0" x="0" y="0" fill="#fff" /></mask><g mask="url(#viewboxMask)"><g transform="translate(10 -60)"><path d="M663 170c2 0 3 2 4 3 2 6 3 12 2 18 0 17-6 33-14 48l10-3a86 86 0 0 1 68 15c4 3 9 10 8 16l-3-1-12-8c-8-4-16-7-24-8-14-2-28-1-41 2 16 5 29 14 42 24a172 172 0 0 1 53 94c3 14 4 27 5 41 1 20-1 42-2 62 0 16 1 32 4 48 3 11 7 21 12 30 7 11 14 22 23 31 11 13 24 24 32 39 8 16 13 34 13 52 0 12-1 24-5 36-1 3-1 7-4 8-2 2-4 0-4-3 3-13 4-27 4-41-1-18-7-34-17-49s-26-25-39-39l11 24 7 14c12 21 18 43 21 67 1 13 1 26-2 38-2 9-6 18-10 26l-11 13c-2 2-4 2-5 5-2 2-4 3-7 2-2-2-2-4-1-6 3-9 1-19-2-28-2 13-7 25-14 35-9 13-19 25-32 33-7 6-15 11-23 14-7 2-14 4-21 1-2 0-5 1-6-2v-11c-15 8-30 16-46 19-9 3-18 4-27 3-12 0-23-2-34-7-4-2-9-2-13-3-26-5-52-6-78-6-38-1-75 2-113 6l-17 1-17 1c-29 2-57 0-84-9-14-4-26-11-37-20-2 5-1 9-2 14l-1 8c-3 3-7 3-10 2-8-2-13-7-19-12-9-6-16-15-20-25l-7-21c-4-18-2-36 0-54 2-15 4-30 8-44-9 22-15 47-17 71-2 23 2 46 10 68 1 2 3 5 1 7h-4c-3-1-4-5-6-7a176 176 0 0 1-11-78c2-25 9-49 17-73l17-42c10-26 18-51 26-77 2-8 2-16 2-24l3-47c2-16 4-33 9-49l5-20c5-23 15-45 29-64 20-28 47-49 76-66 47-25 100-38 152-41 44-1 90 4 131 19a105 105 0 0 0 55-66l2-4Z" fill="#000000"/><path d="M495 234c28 1 56 6 84 15a201 201 0 0 1 100 65c19 25 31 55 35 86a361 361 0 0 1 2 101l-5 34-4 20c-1 2-1 2-3 2-2-4-2-8-2-12-1-15 1-29 2-44 1-24 3-48 1-72l-6-45c-7-28-20-54-40-75-18-18-40-33-63-43-22-9-44-15-67-19-18-3-36-4-54-4a277 277 0 0 0-128 29c-13 9-25 20-35 32a276 276 0 0 0-55 139c-1 24 0 47 8 70l7 15 12 1 1 3c-3 2-7 2-11 3-10 2-20 6-29 12-7 5-14 11-18 19-5 10-3 22-1 33 5 19 17 37 33 49 11 9 25 14 39 16 10 2 20 0 30-1 5 4 8 12 11 17l18 27a136 136 0 0 0 66 50c22 9 45 14 68 19l41 8 17 5v4h-12a535 535 0 0 1-67-8 255 255 0 0 1-84-33c-11-7-21-16-29-27a214 214 0 0 1-16 123c-15 27-40 48-70 57-3 1-7 2-10 1-2 0-2-1-2-3 1-3 4-5 6-6 12-8 26-14 38-23 13-11 24-23 31-38 6-15 10-32 12-49 2-13 3-26 2-40l-4-38-18-36-19 4a88 88 0 0 1-75-38 93 93 0 0 1-20-58c0-9 3-18 8-25s12-13 19-17c5-4 12-6 18-8l-9-24c-5-22-5-45-2-67a292 292 0 0 1 63-149c9-10 18-19 29-26 7-4 14-5 20-9 43-19 90-25 137-22Z" fill="#000"/><path d="M475 243a276 276 0 0 1 121 23c23 10 45 25 63 43 20 21 33 47 40 75l6 45c2 24 0 48-1 72-1 15-3 29-2 44 0 4 0 8 2 12l-1 20c-2 5-2 10-2 16-2 24-2 49-6 74-1 12-3 25-8 36-3 9-8 17-15 24-12 13-27 24-43 33-19 11-39 16-58 24-5 2-10 4-13 8 8 1 15 0 23-2-5 12-6 24-6 36 0 5-1 11 1 16 3 5 8 9 13 12l35 13c22 8 43 18 65 27 2 4 5 7 6 12 6 11 7 23 3 35-5 13-15 24-27 31-16 11-36 19-55 24a494 494 0 0 1-235-7c-20-7-40-14-58-24-14-8-29-18-40-31-6-8-11-19-12-29a122 122 0 0 0 86-107c4-24 4-49 0-73 8 11 18 20 29 27l27 14a331 331 0 0 0 124 27h12v-4l-17-5-41-8c-23-5-46-10-68-19-13-6-27-13-39-21-10-9-19-18-27-29l-18-27c-3-5-6-13-11-17-10 1-20 3-30 1-14-2-28-7-39-16a94 94 0 0 1-33-49c-2-11-4-23 1-33 4-8 11-14 18-19 9-6 19-10 29-12 4-1 8-1 11-3l-1-3-12-1-7-15c-8-23-9-46-7-70a276 276 0 0 1 54-139c10-12 22-23 35-32a277 277 0 0 1 128-30Z" fill="#ffffff"/><path d="M260 571c4 0 7 0 11 2 5 1 11 4 14 8 2 3 2 7 0 10-5 6-12 10-16 16 6 4 14 6 21 9 4 1 8 3 11 6l1 3-8-2-24-7c-4-1-8-3-9-7-1-3 1-7 3-10l15-13c-4-7-15-8-19-15ZM703 577l2 3 2 16a483 483 0 0 1-2 89c-2 11-5 23-10 33a198 198 0 0 1-106 71c-1 14-3 31-2 47l5 5c8 6 18 9 27 12a451 451 0 0 1 68 28c7 4 13 9 18 15-5 1-10-1-16-2-22-9-43-19-65-27l-35-13c-5-3-10-7-13-12-2-5-1-11-1-16 0-12 1-24 6-36-8 2-15 3-23 2 3-4 8-6 13-8 19-8 39-13 58-24 16-9 31-20 43-33 7-7 12-15 15-24 5-11 7-24 8-36 4-25 4-50 6-74 0-6 0-11 2-16Z" fill="#000"/><path d="M623 498c2-1 5 2 6 3 8 8 19 13 30 13 5 0 11-1 16-3 2-2 4-5 7-6s7 0 9 2c4 3 4 10 0 13-5 7-14 10-22 11-10 1-21-2-30-8-8-4-14-10-17-18-1-3-2-6 1-7ZM530 500l3-1c3 2 1 5 0 7a97 97 0 0 1-50 38c-24 8-52 4-72-12-2-3-4-6-3-10s4-7 8-7c3 0 6 2 8 4 8 5 16 9 25 10 12 2 23 0 34-3 13-4 25-12 36-20 4-2 7-5 11-6Z" fill="#000000"/><path d="M480 404c10 1 19 0 29 3 9 3 18 10 22 19 4 6 2 16-6 19-6 4-15 3-23 2-20-3-40-9-60-14l-20-4-10-2-4-4c2-4 6-6 10-7l20-7 18-3 24-2ZM656 410c8 1 15 4 22 7l9 4c2 2 3 6 1 8l-10 4c-17 4-33 11-51 12l-9 1c-3 0-6-2-8-4-3-2-4-5-4-9 0-7 2-15 8-20 4-3 11-4 16-5 8 0 17 0 26 2Z" fill="#000000"/><path d="M216 569c5 0 10-1 14 2 3 2 5 5 4 9-2 4-6 7-11 7h-16c-5-1-9-3-11-7-1-4 2-7 5-9 5-2 10-1 15-2ZM229 592c3 1 7 3 7 7 0 3-1 6-4 7-5 4-11 4-17 6-5 1-10 2-14-1s-3-9 0-12c4-4 8-4 13-5s10-3 15-2ZM301 644h8c3 1 6 4 6 8 0 5-4 9-9 10-5 2-9-2-11-6-1-5 1-11 6-12Z" fill="#000000"/><path d="M603 613v1c-4 8-11 15-20 18-3 1-7 1-9-1v-4c7-5 16-9 24-12l5-2Z" fill="#000000"/><path d="m636 651-7 7c-7 8-14 16-23 23-8 7-17 13-27 16-11 4-23 4-35 3-16-2-31-5-45-12l-12-7c-1-2-1-4 1-5s6 0 8 1c12 4 24 8 37 9 17 2 34 2 50-3 8-2 15-6 21-10l24-17 8-5Z" fill="#000000"/><path d="M690 460h30c9 1 17 1 26 4 3 1 5 4 4 8-4 5-10 6-16 7v29c-2 14-3 29-8 43-4 11-15 19-25 23-8 3-17 5-25 6-11 1-22-1-33-2-6-1-12-1-17-4-6-4-12-10-15-17-2-6-5-12-6-19-1-10-2-21 0-31-12-2-24-4-36-1l-4 5-1 11c-1 12-2 25-6 36-3 9-9 16-16 22l-15 8c-24 7-48 12-73 11-16-1-33-4-47-12-13-7-25-18-32-31l-4-13-1-23v-21c-7-1-13 0-19-4-3-2-4-7-1-10 3-4 9-5 14-7 15-6 29-8 45-11l19-2c18-2 36-3 54-2 19 0 37 1 56 4 8 1 15 5 22 9l10 11 24 3 12 1 2-9 7-8c9-5 19-7 28-10l47-4Z" fill="#000000"/><path d="M707 480c6 2 13 8 13 15 1 4-3 8-7 8-6-1-9-7-12-11-2-2-4-2-4-5 0-5 6-8 10-7ZM524 487c8 1 15 5 20 11 3 4 4 10 2 14s-7 6-12 4c-3-2-4-5-6-8-2-2-4-3-7-3l-12-5c-2-2-2-5 0-7 3-5 9-7 15-6Z" fill="#fff"/><path d="m663 170 4 3c2 5 2 11 2 16 0 18-6 35-15 50 13-4 26-6 40-4 13 2 28 6 38 16 5 4 10 10 9 16l-6-3c-7-5-14-9-22-11-19-6-38-5-56 0l17 8c23 13 42 32 52 56 5 13 7 26 4 39s-9 26-17 36a151 151 0 0 1-51 42c-4 3-9 5-14 5l10-12c9-7 15-18 16-29 2-13 0-26-4-38-5-19-15-35-28-50 8 27 6 56-4 81-6 14-15 26-26 36-7 7-16 13-26 16-3 0-6 1-8-1l7-13c4-9 6-18 6-27 2-22-2-44-7-65l-6-18c1 20-1 39-8 57a94 94 0 0 1-61 56c-4 1-9 3-13-1 6-4 12-7 17-12 9-6 17-13 24-21l11-18c8-16 12-34 12-52-2 12-7 23-12 34-11 19-24 36-40 51-14 14-30 25-49 31-4 1-7 2-11 1l-4-2c0-7 3-13 4-19 4-16 7-32 7-48a181 181 0 0 1-56 65c-16 11-32 20-50 27a253 253 0 0 0-1 89c4 20 14 39 27 54l4 5c-6 0-9-4-13-7a97 97 0 0 1-29-46c-1 12 0 24 1 37 0 5 1 10-1 15l-4-3-11-7c-10-7-19-14-27-23-11-12-19-27-23-43l-3-6c-14-13-27-28-36-45-10-19-16-39-17-60-2-32 7-63 24-90 19-31 48-55 79-73a354 354 0 0 1 280-28c3 1 6 4 10 2a102 102 0 0 0 52-63l2-6Z" fill="#000000"/></g><g transform="translate(10 -60)"></g></g></svg>