<svg xmlns="http://www.w3.org/2000/svg" viewBox="0 0 980 980" fill="none" shape-rendering="auto" width="512" height="512"><desc>"Lorelei" by "Lisa Wischofsky", licensed under "CC0 1.0". / Remix of the original. - Created with dicebear.com</desc><metadata xmlns:dc="http://purl.org/dc/elements/1.1/" xmlns:cc="http://creativecommons.org/ns#" xmlns:rdf="http://www.w3.org/1999/02/22-rdf-syntax-ns#"><rdf:RDF><cc:Work><dc:title>Lorelei</dc:title><dc:creator><cc:Agent rdf:about="https://www.instagram.com/lischi_art/"><dc:title>Lisa Wischofsky</dc:title></cc:Agent></dc:creator><dc:source>https://www.figma.com/community/file/1198749693280469639</dc:source><cc:license rdf:resource="https://creativecommons.org/licenses/zero/1.0/" /></cc:Work></rdf:RDF></metadata><mask id="viewboxMask"><rect width="980" height="980" rx="0" ry="0" x="0" y="0" fill="#fff" /></mask><g mask="url(#viewboxMask)"><g transform="translate(10 -60)"><path fill-rule="evenodd" clip-rule="evenodd" d="M512 165c2-3 2-7-1-8l-7 1-2 1-22 11c-27 16-50 39-67 64l-4 3h-2c-12 4-24 8-36 10l-6 1c-7 1-15 2-22 5-20 7-39 18-54 33l-8 9-14 13c-16 18-29 38-41 59a356 356 0 0 0-40 155c0 18-1 37 1 55 2 21 6 43 15 63a150 150 0 0 0 53 62l6 4 10 9c-3 12-6 24-14 34a69 69 0 0 1-37 23c-9 3-18 5-27 4 0 2 3 4 5 5 11 5 21 4 32 1l-30 16-4 1-17 6h-1l-3 3c-1 2 0 4 1 6l11 10c10 6 20 12 31 15 20 8 42 9 63 4 12-2 22-8 32-15 3 9 12 13 21 13l8-1 13-2 31-7 50-11 32-3h42c18 0 36 3 54 8l11 4c7 3 14 6 23 7 17 2 34-3 49-10 5-2 8-4 11-9a131 131 0 0 0 76-15c2-1 4-4 2-6l-4-4-2-1a168 168 0 0 1-54-71c-4-11-8-24-6-36 0-5 2-9 6-12l7-2h1l-3-60c28-27 51-60 62-99l-1 12a112 112 0 0 1-36 67c-2 2-4 4-7 4 0 3 2 5 4 6 6 1 12-2 16-5 14-9 26-22 32-38 8-20 11-43 11-64 0-25-3-50-8-74-3-12-5-23-9-34v-7c5-19 4-40-2-59-7-25-22-46-42-62-10-9-22-16-35-22a183 183 0 0 0-82-15l6-3 10-4c14-5 29-8 44-9a118 118 0 0 1 32 2l4 1 8 1v-2c0-2-1-5-3-6l-16-10c-13-5-25-9-38-12-24-6-50-4-74 0-21 3-41 10-60 18l-8 4-10 5 14-23 13-14 3-1 3-2ZM208 482l1-9-3 13a382 382 0 0 0-2 114 160 160 0 0 0 39 78 304 304 0 0 1-36-189l1-7Z" fill="#000000"/><path d="M528 244c41 6 80 22 113 47 28 21 50 49 65 81 13 28 20 60 19 91-1 15-3 30-8 44h-2l1-21c1-30-2-59-13-87-10-30-28-57-50-79-42-40-98-62-156-63a243 243 0 0 0-196 94 207 207 0 0 0-40 139l2 25c8 0 19 0 25 7l-3 3-17 1c-12 1-24 5-33 13a64 64 0 0 0-17 39c-5 32 12 65 39 83 16 10 36 15 55 9 4-2 9-5 14-3 3 1 4 4 5 7a251 251 0 0 0 90 100c8 7 18 13 28 18 18 8 38 14 57 19l32 8c5 1 9 1 13 3l-4 1c-25 2-48-3-72-10-12-3-23-7-34-12a306 306 0 0 1-84-63l2 28c1 17 0 35-6 52-4 12-11 24-19 34-10 10-22 19-34 26-10 7-21 14-32 18l-16 5 9-9 31-20 22-17a95 95 0 0 0 32-56c2-14 2-28 2-43v-27c-10-14-22-29-27-46-17 8-38 7-55-1-17-7-32-19-43-33-12-17-19-36-21-56s2-40 15-56c9-10 22-18 35-21-4-14-6-29-6-44a234 234 0 0 1 83-173 249 249 0 0 1 199-55Z" fill="#000"/><path d="M653 320c22 22 40 49 50 79 11 28 14 57 13 87l-1 21-5 15-2 13 2 56c0 21 1 42-1 63l-3 47c-2 16-7 31-14 45-11 18-26 33-44 44-13 8-27 12-41 16l-38 11-17 3c0 1 1 2 3 2 8 5 17 5 26 4-3 7-4 14-2 22 3 7 11 11 17 14 12 6 24 7 36 9 7 6 14 14 16 24 2 8 2 16-2 23-5 10-14 18-24 23-13 8-27 14-42 18a468 468 0 0 1-222-1c-17-4-33-9-48-17-12-6-23-13-32-22-5-7-9-14-10-23 11-4 22-11 32-18 12-7 24-16 34-26 8-10 15-22 19-34 6-17 7-35 6-52l-2-28 22 23c19 15 40 30 62 40 11 5 22 9 34 12 24 7 47 12 72 10l4-1c-4-2-8-2-13-3l-32-8c-19-5-39-11-57-19l-29-17c-11-9-23-17-33-27a251 251 0 0 1-56-74c-1-3-2-6-5-7-5-2-10 1-14 3-19 6-39 1-55-9a88 88 0 0 1-39-83c1-14 7-28 17-39 9-8 21-12 33-13l17-1 3-3c-6-7-17-7-25-7l-2-25a207 207 0 0 1 40-139 243 243 0 0 1 196-94c58 1 114 23 156 63Z" fill="#ffffff"/><path d="M710 522c3 0 3 4 4 6 3 11 4 23 5 34l2 21c1 22 2 43 1 65-1 21-1 44-5 65a136 136 0 0 1-80 99c-15 7-31 11-48 13v15c1 3 3 4 5 6 12 6 23 8 36 11 12 3 24 5 36 11-3 3-7 4-11 4-7 1-15-1-23-1-12-2-24-3-36-9-6-3-14-7-17-14-2-8-1-15 2-22-9 1-18 1-26-4-2 0-3-1-3-2l17-3 38-11c14-4 28-8 41-16 18-11 33-26 44-44 7-14 12-29 14-45l3-47c2-21 1-42 1-63l-2-56 2-13ZM252 549c8 0 17 1 23 7 5 4 10 9 12 15 1 3 0 6-2 8l-13 8c-7 6-7 19 0 25 6 5 14 8 21 11 2 0 5 1 6 3-1 2-3 3-5 3-10 0-20-3-28-9-5-3-8-8-9-13-2-8-2-17 4-24 4-6 11-9 18-12-4-5-7-11-14-13-7-3-15-3-22-5l9-4Z" fill="#000"/><path d="M684 485c6 2 11 7 13 13s1 13-2 18c-4 8-12 14-20 18-11 7-24 10-37 8-6 0-12-2-17-6-3-3-6-7-5-12v-3c-1-6 2-13 6-17 8-11 21-18 34-20 9-2 19-2 28 1ZM490 495c7 3 14 7 20 12l5 6c2 1 5 2 6 5 6 7 5 18-2 24-5 5-12 8-19 9-17 4-34 3-50 0-11-3-22-7-32-13-6-4-11-8-13-14-2-5-2-11 1-15 3-6 10-10 16-13 22-8 46-10 68-1Z" fill="#000000"/><path d="M669 490c5 0 11 1 15 4 3 2 5 5 6 9 0 6-4 11-8 15-7 8-18 12-29 15 3-8 3-17 0-25-2-5-4-9-9-12 8-4 16-6 25-6ZM459 499c13 0 27 4 39 9 6 3 11 6 15 11l-1 12c-1 5-6 7-10 8-18 6-36 4-54 0 3-5 5-10 6-16 0-8-3-17-10-22l15-2Z" fill="#fff"/><path d="M494 368c5 0 9 3 11 7 8 8 15 18 20 28 2 5 4 10 3 15-1 2-2 4-4 3l-5-6c-4-8-10-15-16-22 0 4 1 10-1 13-1 4-4 6-8 6-5 0-10-4-14-7l-13-5c-2 1-4 3-6 2l-11-2-20-2-18 2c3-4 8-6 13-8 10-5 21-5 32-4 3 1 6-2 10-1 10 0 17 4 25 10l-4-19c-1-4 1-9 6-10ZM637 383c3 1 5 2 5 5 0 4-3 8-5 13 4-2 7-5 11-5 3 1 4 3 6 6 5-2 12-4 18-2 3 1 4 3 5 5-3 3-6 5-10 6-5 2-11 4-16 4-3 0-5-2-7-3l-10 6c-3 0-6-1-7-4l-1-8-8 15-4 6c-2 0-3 0-4-2-2-3 1-8 2-11 3-8 8-16 14-23 3-3 6-7 11-8Z" fill="#000000"/><path d="M597 505h1l3 15 3 26 8 13 6 12c2 5 2 10 5 14 3 5 5 10 5 16 0 9-6 17-14 20l-19 8c-5 3-9 5-15 5-5 0-11 0-13-5-2-2 0-4 2-5l12-3 16-5 13-5c6-2 9-8 7-14l-5-8-7-17-7-19c-4-8-6-17-5-26 0-7 1-15 4-22Z" fill="#000000"/><path d="M497 679c8 3 15 5 22 9 4 1 7 3 11 3l13-2c5-1 10-1 14 3 7 5 8 17 2 23s-16 7-24 9c-6 1-13 1-19-2-4-1-6-3-8-6l5-4c6-2 13 1 19 0l15-3 5-4c0-2-1-5-4-5-7-1-13 4-20 3-9-1-16-7-25-10-4-2-9-5-14-5-4 0-6 3-7 6-2 4-3 9-1 13-2 3-5 1-7-1-4-8-1-19 6-25 5-3 12-3 17-2Z" fill="#000000"/><path d="M631 178a213 213 0 0 1 54 22c3 2 3 5 4 8l-13-2c-10-1-20-3-30-2-22 1-43 6-62 16 16 0 31 0 47 4 29 6 56 18 77 39 17 16 30 36 36 59 5 19 6 39 1 59a127 127 0 0 1-73 84l-20 9-5-2c1-10 4-18 6-27l2-24c0-11-2-22-4-33l-9 20c-9 17-24 32-41 41-12 8-27 13-41 17-18 5-37 7-56 9h-19c-3 0-3-2-5-4l7-10c5-9 11-18 15-28l7-25c4-14 5-28 5-43a299 299 0 0 1-108 125c-12 8-26 13-39 18-6 2-11 4-17 1l2-13 4-30c-7 15-13 32-16 49-5 28-1 55 5 83l2 15c-8 2-16 1-24-2-26-10-49-32-59-59 0-4-4-4-6-6-10-5-18-14-23-23-9-14-15-31-17-48a204 204 0 0 1 30-136c11-20 25-37 41-53a146 146 0 0 1 75-38 432 432 0 0 0 57-16c27-10 51-24 77-36a229 229 0 0 1 133-18Z" fill="#000000"/></g><g transform="translate(10 -60)"></g></g></svg>