<svg xmlns="http://www.w3.org/2000/svg" xmlns:xlink="http://www.w3.org/1999/xlink" viewBox="0,0,256,256" width="192px" height="192px"><g fill="none" fill-rule="nonzero" stroke="none" stroke-width="1" stroke-linecap="butt" stroke-linejoin="miter" stroke-miterlimit="10" stroke-dasharray="" stroke-dashoffset="0" font-family="none" font-weight="none" font-size="none" text-anchor="none" style="mix-blend-mode: normal"><g transform="scale(5.33333,5.33333)"><path d="M40,10h-18c-0.939,0 -1.836,-0.448 -2.399,-1.199l-0.601,-0.802c-0.939,-1.252 -2.436,-1.999 -4,-1.999h-7c-2.757,0 -5,2.243 -5,5v25c0,2.757 2.243,5 5,5h32c2.757,0 5,-2.243 5,-5v-21c0,-2.757 -2.243,-5 -5,-5z" fill="#12d9e3"></path><path d="M23,33.869c-0.415,0 -0.803,-0.26 -0.945,-0.674c-0.867,-2.509 -3.3,-4.195 -6.055,-4.195c-2.755,0 -5.188,1.686 -6.055,4.195c-0.18,0.522 -0.746,0.798 -1.271,0.619c-0.522,-0.181 -0.799,-0.75 -0.619,-1.271c1.144,-3.315 4.338,-5.543 7.945,-5.543c3.607,0 6.801,2.228 7.945,5.543c0.18,0.521 -0.097,1.091 -0.619,1.271c-0.108,0.038 -0.218,0.055 -0.326,0.055z" fill="#324561"></path><path d="M16,25c-2.344,0 -4.25,-2.019 -4.25,-4.5c0,-2.481 1.906,-4.5 4.25,-4.5c2.344,0 4.25,2.019 4.25,4.5c0,2.481 -1.906,4.5 -4.25,4.5zM16,18c-1.24,0 -2.25,1.121 -2.25,2.5c0,1.379 1.01,2.5 2.25,2.5c1.24,0 2.25,-1.121 2.25,-2.5c0,-1.379 -1.01,-2.5 -2.25,-2.5z" fill="#324561"></path><path d="M39,24h-11c-0.553,0 -1,-0.447 -1,-1c0,-0.553 0.447,-1 1,-1h11c0.553,0 1,0.447 1,1c0,0.553 -0.447,1 -1,1z" fill="#324561"></path><path d="M36,29h-8c-0.553,0 -1,-0.447 -1,-1c0,-0.553 0.447,-1 1,-1h8c0.553,0 1,0.447 1,1c0,0.553 -0.447,1 -1,1z" fill="#324561"></path></g></g></svg>