<svg xmlns="http://www.w3.org/2000/svg" xmlns:xlink="http://www.w3.org/1999/xlink" viewBox="0,0,256,256" width="192px" height="192px"><g fill="none" fill-rule="nonzero" stroke="none" stroke-width="1" stroke-linecap="butt" stroke-linejoin="miter" stroke-miterlimit="10" stroke-dasharray="" stroke-dashoffset="0" font-family="none" font-weight="none" font-size="none" text-anchor="none" style="mix-blend-mode: normal"><g transform="scale(5.33333,5.33333)"><circle cx="24" cy="24" r="20" fill="#12d9e3"></circle><path d="M22.625,13.694c0,-0.75 0.625,-1.359 1.375,-1.359c0.766,0 1.391,0.609 1.391,1.359c0,0.766 -0.625,1.375 -1.391,1.375c-0.75,0 -1.375,-0.609 -1.375,-1.375zM22.969,33.757v-14.563c0,-0.656 0.422,-1.109 1.031,-1.109c0.609,0 1.031,0.453 1.031,1.109v14.562c0,0.656 -0.422,1.109 -1.031,1.109c-0.609,0 -1.031,-0.452 -1.031,-1.108z" fill="#324561"></path></g></g></svg>