<svg xmlns="http://www.w3.org/2000/svg"  viewBox="0 0 256 256" width="512px" height="512px"><path fill="#ebe7f2" d="M171.841,75.97a2.489,2.489,0,0,1-1.385-.42l-8.495-5.666a2.5,2.5,0,0,1,2.773-4.16l8.5,5.666a2.5,2.5,0,0,1-1.388,4.58Z"/><path fill="#ebe7f2" d="M106.958,86.707a2.5,2.5,0,0,1-1.435-4.549l11.647-8.144a2.5,2.5,0,0,1,2.865,4.1l-11.647,8.144A2.485,2.485,0,0,1,106.958,86.707Z"/><path fill="#ebe7f2" d="M87.758,189.527a2.5,2.5,0,0,1-2.029-3.958l23.5-32.75a2.5,2.5,0,0,1,4.062,2.915l-23.5,32.75A2.5,2.5,0,0,1,87.758,189.527Z"/><path fill="#846f75" d="M119.4,91.034a4.489,4.489,0,0,0-4.616.434L99.413,102.794a8.01,8.01,0,0,1-7.929.9L73.822,95.586l7.116-14.168,8.347,4.356a4.494,4.494,0,0,0,4.641-.289L124.7,64.2a2.5,2.5,0,0,1,3.19.288l7.856,7.856a2.5,2.5,0,1,0,3.535-3.535l-7.855-7.856a7.5,7.5,0,0,0-9.57-.865L91.33,81.2,82.8,76.75a4.469,4.469,0,0,0-3.464-.293c-.145.047-.276.12-.414.18l-9.011-4.4a15.034,15.034,0,0,0-20.083,6.906,2.5,2.5,0,0,0,1.149,3.343L70.113,91.83l-.991,1.975a4.5,4.5,0,0,0,2.143,6.109l18.171,8.346a13.045,13.045,0,0,0,12.943-1.44l14.614-10.768.508,12.461a2.5,2.5,0,0,0,2.5,2.4c.034,0,.069,0,.1,0a2.5,2.5,0,0,0,2.4-2.6l-.548-13.4A4.489,4.489,0,0,0,119.4,91.034ZM55.7,79.229a10.037,10.037,0,0,1,12.016-2.5l8.014,3.914-3.374,6.717Z"/><path fill="#846f75" d="M177.454,107.8a9.238,9.238,0,0,0,8.108-10.085l-2.646-25.742a12.254,12.254,0,0,0-6.39-9.546L157.119,51.977a21.1,21.1,0,1,0-4.141,3.448l3.3,1.776L143.289,79.816a15.041,15.041,0,0,0-17.341,7.923,2.5,2.5,0,0,0,1.15,3.344l7.111,3.472-10.334,18.271a2.5,2.5,0,0,0,4.353,2.462L138.71,96.753l7.256,3.543-.508,1.041a4.5,4.5,0,0,0,4.043,6.476H177.17A2.446,2.446,0,0,0,177.454,107.8Zm-51.8-70.144a16.066,16.066,0,1,1,16.066,16.066A16.084,16.084,0,0,1,125.652,37.652Zm6.17,50.173a10.042,10.042,0,0,1,12.017-2.5l7.62,3.721-3.3,6.755Zm18.48,14.988,7.6-15.57,8.4,2.217a2.5,2.5,0,0,0,1.277-4.834L158.783,82.3a4.5,4.5,0,0,0-5.12,2.256l-5.727-2.8,12.746-22.192,13.475,7.254a7.257,7.257,0,0,1,3.784,5.655l2.647,25.741a4.22,4.22,0,0,1-3.577,4.591Z"/><path fill="#846f75" d="M118.453,177.235a2.5,2.5,0,0,0-3.485.6L91.112,211.575a2.49,2.49,0,0,0-.173.283,2.753,2.753,0,0,1-3.591,1.225l-16.716-7.69a2.752,2.752,0,0,1-1.354-3.646l49.515-69.266a2.5,2.5,0,1,0-4.067-2.908L65.093,199a2.493,2.493,0,0,0-.181.3,7.753,7.753,0,0,0,3.63,10.638l2.71,1.246-1.569,6.349a2.954,2.954,0,0,1-1.864,2.041l-11.648,4.177a13.406,13.406,0,0,0-8.449,9.232l-.207.793a4.5,4.5,0,0,0,4.353,5.639H78.849a4.5,4.5,0,0,0,4.428-3.7l3.2-17.659a7.691,7.691,0,0,0,8.8-3.718l23.769-33.619A2.5,2.5,0,0,0,118.453,177.235ZM78.432,234.413H52.516l.044-.166a8.406,8.406,0,0,1,5.3-5.791l11.647-4.178a7.962,7.962,0,0,0,5.024-5.52l1.347-5.449,5.89,2.71Z"/><path fill="#846f75" d="M208.485,220.548l-.207-.791a13.409,13.409,0,0,0-8.45-9.233l-8.719-3.127a2.5,2.5,0,0,1-1.647-2.569l.262-3.016H191.2a4.486,4.486,0,0,0,4.374-3.443l6.264-25.918a12.572,12.572,0,0,0-1.543-9.549l-26-41.7a2.5,2.5,0,1,0-4.242,2.646l25.995,41.7a7.56,7.56,0,0,1,.926,5.73l-6.172,25.535H174.113L180.169,175a2.5,2.5,0,1,0-4.818-1.337l-6.232,22.451a4.5,4.5,0,0,0,4.336,5.7h.128l-2.709,19.25a4.5,4.5,0,0,0,4.456,5.126h28.8a4.5,4.5,0,0,0,4.353-5.64Zm-32.58.64,2.695-19.142c.011-.079,0-.156.009-.234h6.1l-.225,2.583a7.506,7.506,0,0,0,4.941,7.709l8.719,3.126a8.412,8.412,0,0,1,5.3,5.794l.043.164Z"/><path fill="#65c1d6" d="M173.469,109.765a2.5,2.5,0,0,0-2.457-.073c-15.939,8.391-30.273,9.089-43.82,2.141a2.5,2.5,0,0,0-3.422,1.2l-3.792,8.47a2.5,2.5,0,0,0,.96,3.144,49.65,49.65,0,0,0,14.245,6.136L120.4,172.316a2.5,2.5,0,0,0,1.828,3.283l13.71,2.958a2.471,2.471,0,0,0,.527.056,2.5,2.5,0,0,0,2.472-2.126l5.964-39.395,10.755,37.916a2.5,2.5,0,0,0,3.236,1.676l13.228-4.659a2.5,2.5,0,0,0,1.4-3.486l-18.8-37.176a64.2,64.2,0,0,0,18.624-6.624,2.5,2.5,0,0,0,1.335-2.212V111.905A2.5,2.5,0,0,0,173.469,109.765Zm-39.081,63.343-8.326-1.8,14.091-39.579c.191.026.573.073.573.073Zm33.383-4.853-8.035,2.829-11.068-39.022c.26-.013.519-.022.779-.041ZM169.677,121c-16.077,8.074-30.579,8.245-44.226.516l1.833-4.095c13.175,5.919,27.408,5.416,42.393-1.495Z"/></svg>