<svg xmlns="http://www.w3.org/2000/svg"  viewBox="0 0 100 100" width="500px" height="500px"><path fill="#c7ede6" d="M86.215,56.71C87.35,54.555,88,52.105,88,49.5c0-6.621-4.159-12.257-10.001-14.478 C77.999,35.015,78,35.008,78,35c0-11.598-9.402-21-21-21c-9.784,0-17.981,6.701-20.313,15.757C35.211,29.272,33.638,29,32,29 c-7.692,0-14.023,5.793-14.89,13.252C11.906,43.353,8,47.969,8,53.5C8,59.851,13.149,65,19.5,65c0.177,0,0.352-0.012,0.526-0.022 C20.022,65.153,20,65.324,20,65.5C20,76.822,29.178,86,40.5,86c6.437,0,12.175-2.972,15.934-7.614C58.612,80.611,61.64,82,65,82 c4.65,0,8.674-2.65,10.666-6.518C76.718,75.817,77.837,76,79,76c6.075,0,11-4.925,11-11C90,61.689,88.53,58.727,86.215,56.71z"/><path fill="#fff" d="M74.5,74h-10c-0.276,0-0.5-0.224-0.5-0.5s0.224-0.5,0.5-0.5h10c0.276,0,0.5,0.224,0.5,0.5 S74.776,74,74.5,74z"/><path fill="#fff" d="M78.5,74h-2c-0.276,0-0.5-0.224-0.5-0.5s0.224-0.5,0.5-0.5h2c0.276,0,0.5,0.224,0.5,0.5 S78.776,74,78.5,74z"/><path fill="#fff" d="M83.5,76h-10c-0.276,0-0.5-0.224-0.5-0.5s0.224-0.5,0.5-0.5h10c0.276,0,0.5,0.224,0.5,0.5 S83.777,76,83.5,76z"/><path fill="#fff" d="M71.5,76h-1c-0.276,0-0.5-0.224-0.5-0.5s0.224-0.5,0.5-0.5h1c0.276,0,0.5,0.224,0.5,0.5 S71.776,76,71.5,76z"/><path fill="#fff" d="M68.47,76H66.5c-0.276,0-0.5-0.224-0.5-0.5s0.224-0.5,0.5-0.5h1.97c0.276,0,0.5,0.224,0.5,0.5 S68.746,76,68.47,76z"/><path fill="#fff" d="M77.5,72h-5c-0.276,0-0.5-0.224-0.5-0.5s0.224-0.5,0.5-0.5h5c0.276,0,0.5,0.224,0.5,0.5 S77.777,72,77.5,72z"/><path fill="#fff" d="M74.5,78h-2c-0.276,0-0.5-0.224-0.5-0.5s0.224-0.5,0.5-0.5h2c0.276,0,0.5,0.224,0.5,0.5 S74.776,78,74.5,78z"/><path fill="#fff" d="M39.5,24h10c0.276,0,0.5-0.224,0.5-0.5S49.776,23,49.5,23h-10c-0.276,0-0.5,0.224-0.5,0.5 S39.224,24,39.5,24z"/><path fill="#fff" d="M35.5,24h2c0.276,0,0.5-0.224,0.5-0.5S37.776,23,37.5,23h-2c-0.276,0-0.5,0.224-0.5,0.5 S35.224,24,35.5,24z"/><path fill="#fff" d="M30.5,26h10c0.276,0,0.5-0.224,0.5-0.5S40.776,25,40.5,25h-10c-0.276,0-0.5,0.224-0.5,0.5 S30.223,26,30.5,26z"/><path fill="#fff" d="M42.5,26h1c0.276,0,0.5-0.224,0.5-0.5S43.776,25,43.5,25h-1c-0.276,0-0.5,0.224-0.5,0.5 S42.224,26,42.5,26z"/><path fill="#fff" d="M45.53,26h1.97c0.276,0,0.5-0.224,0.5-0.5S47.776,25,47.5,25h-1.97c-0.276,0-0.5,0.224-0.5,0.5 S45.254,26,45.53,26z"/><path fill="#fff" d="M36.5,22h5c0.276,0,0.5-0.224,0.5-0.5S41.776,21,41.5,21h-5c-0.276,0-0.5,0.224-0.5,0.5 S36.223,22,36.5,22z"/><path fill="#fff" d="M39.5,28h2c0.276,0,0.5-0.224,0.5-0.5S41.776,27,41.5,27h-2c-0.276,0-0.5,0.224-0.5,0.5 S39.224,28,39.5,28z"/><path fill="#a2b3cb" d="M53,47l19.5-16.5l1,4L55,54l-3.856,22.171C51.061,76.65,50.645,77,50.159,77H48 c-0.552,0-1-0.448-1-1V56L53,47z"/><g><polygon fill="#ee3e54" points="53.5,38.5 50.5,34.5 45,37 37.5,41.5 34.5,44.5 37.5,49.5 40.5,47.5 47.5,55.5 53.5,46.5 49.5,41.5"/></g><g><path fill="#fabf82" d="M33.5,51.5L38,49l-3.5-3.5l-3.461,2.769c-0.934,0.747-1.335,1.978-1.02,3.132l1.86,6.82 c0.306,1.121,1.62,1.614,2.587,0.969h0c0.616-0.411,0.896-1.173,0.693-1.885L33.5,51.5z"/></g><g><path fill="#fabf82" d="M58.84,26.06l-1.291-0.861c-0.536-0.357-1.265-0.122-1.491,0.481L53.5,32.5l-3,2l3,3l2.081-2.081 c0.606-0.606,1.075-1.334,1.375-2.136l2.265-6.04C59.385,26.808,59.226,26.318,58.84,26.06z"/></g><g><path fill="#472b29" d="M62.5,50.75c-0.062,0-0.125-0.023-0.174-0.07c-0.099-0.096-0.102-0.254-0.006-0.354l8.048-8.353 c0.097-0.099,0.254-0.102,0.354-0.006c0.099,0.096,0.102,0.254,0.006,0.354l-8.048,8.353C62.631,50.725,62.565,50.75,62.5,50.75z"/></g><g><path fill="#472b29" d="M71.963,40.841c-0.061,0-0.12-0.021-0.168-0.065c-0.103-0.093-0.11-0.251-0.017-0.353l3.147-3.462 c0.093-0.103,0.252-0.109,0.353-0.017c0.103,0.093,0.11,0.251,0.017,0.353l-3.147,3.462C72.099,40.813,72.031,40.841,71.963,40.841 z"/></g><g><path fill="#472b29" d="M44.5,61.122c-0.138,0-0.25-0.112-0.25-0.25V57.5c0-0.138,0.112-0.25,0.25-0.25 s0.25,0.112,0.25,0.25v3.372C44.75,61.01,44.638,61.122,44.5,61.122z"/><path fill="#472b29" d="M44.5,76.75c-0.138,0-0.25-0.112-0.25-0.25V63.298c0-0.138,0.112-0.25,0.25-0.25 s0.25,0.112,0.25,0.25V76.5C44.75,76.638,44.638,76.75,44.5,76.75z"/></g><path fill="#472b29" d="M56.153,53.828l17.527-18.476c0.689-0.725,0.921-1.765,0.604-2.712l-0.639-1.919	c-0.182-0.544-0.622-0.957-1.177-1.104c-0.553-0.149-1.142-0.007-1.569,0.376L53.585,45.485l-3.087-3.858l3.422-2.567	c0.31-0.231,0.372-0.67,0.14-0.979l-0.064-0.085l2.081-2.081c0.681-0.681,1.197-1.483,1.535-2.385l2.055-5.479	c0.402-1.074,0.017-2.27-0.937-2.904c-0.627-0.418-1.397-0.526-2.116-0.295c-0.718,0.231-1.28,0.77-1.545,1.475l-2.145,5.718	l-2.774,1.85l-8,4.001l-4.247,2.459c-0.567,0.405-1.105,0.86-1.6,1.354l-2.298,2.298c-0.227,0.228-0.271,0.58-0.105,0.855	l0.091,0.151l-3.388,2.711c-1.152,0.922-1.646,2.438-1.259,3.863l1.86,6.819c0.206,0.754,0.744,1.344,1.477,1.618	c0.277,0.104,0.563,0.154,0.848,0.154c0.465,0,0.924-0.137,1.327-0.406c0.873-0.582,1.266-1.651,0.977-2.659l-1.518-5.313	l2.575-1.717c0.046-0.03,0.076-0.074,0.112-0.112c0.095,0.101,0.209,0.182,0.346,0.213c0.185,0.044,0.382,0.007,0.542-0.101	l2.489-1.659l6.422,7.339V75.5c0,0.103,0.013,0.202,0.03,0.3H40.5c-0.387,0-0.7,0.313-0.7,0.7s0.313,0.7,0.7,0.7h8h2.159H61.5	c0.387,0,0.7-0.313,0.7-0.7s-0.313-0.7-0.7-0.7h-9.169c0.001-0.003,0.003-0.006,0.003-0.009L56.153,53.828z M53.889,33.082	c0.122-0.081,0.215-0.199,0.267-0.336l2.224-5.93c0.114-0.303,0.355-0.534,0.664-0.633c0.31-0.101,0.64-0.054,0.91,0.127	c0.409,0.272,0.575,0.786,0.402,1.248l-2.055,5.479c-0.268,0.714-0.677,1.349-1.215,1.887l-1.939,1.939l-1.643-2.191L53.889,33.082z M36.111,48.918l-3,2c-0.253,0.168-0.368,0.481-0.284,0.774l1.658,5.806c0.12,0.42-0.044,0.866-0.408,1.109	c-0.271,0.18-0.602,0.218-0.907,0.104c-0.306-0.114-0.53-0.361-0.616-0.676l-1.859-6.818c-0.242-0.887,0.065-1.829,0.782-2.401	l3.241-2.593l1.573,2.622C36.229,48.864,36.168,48.881,36.111,48.918z M46.748,53.578l1.736-2.682	c0.075-0.116,0.042-0.271-0.074-0.346c-0.115-0.075-0.271-0.042-0.346,0.074l-1.658,2.562l-5.379-6.147	c-0.231-0.266-0.624-0.315-0.915-0.121l-2.389,1.593l-2.341-3.902l1.911-1.911c0.439-0.439,0.918-0.845,1.366-1.168l4.154-2.403	l7.477-3.738l2.229,2.973l-3.439,2.58c-0.151,0.113-0.251,0.283-0.274,0.472c-0.024,0.188,0.029,0.377,0.147,0.525l2.615,3.269	l-2.528,3.908c-0.075,0.116-0.042,0.271,0.074,0.346c0.042,0.027,0.089,0.04,0.136,0.04c0.082,0,0.162-0.04,0.21-0.114l2.438-3.767	l0.749,0.937l-5.221,7.798L46.748,53.578z M48.5,75.8c-0.165,0-0.3-0.135-0.3-0.3V55.712l5.833-8.75l17.8-15.926	c0.104-0.095,0.219-0.08,0.276-0.066c0.059,0.016,0.163,0.062,0.208,0.194l0.639,1.919c0.152,0.456,0.042,0.956-0.29,1.306	L54.847,53.172L50.955,75.55c-0.025,0.146-0.149,0.25-0.296,0.25H48.5z"/><g><path fill="#fdfcef" d="M73.477,59.477c0,0-1.567,0-3.5,0c-1.933,0-3.5-1.567-3.5-3.5c0-1.781,1.335-3.234,3.055-3.455 c-0.028-0.179-0.055-0.358-0.055-0.545c0-1.933,1.567-3.5,3.5-3.5c1.032,0,1.95,0.455,2.59,1.165 c0.384-1.808,1.987-3.165,3.91-3.165c2.209,0,4,1.791,4,4c0,0.191-0.03,0.374-0.056,0.558c0.428-0.344,0.965-0.558,1.556-0.558 c1.228,0,2.245,0.887,2.455,2.055c0.179-0.028,0.358-0.055,0.545-0.055c1.933,0,3.5,1.567,3.5,3.5s-1.567,3.5-3.5,3.5 s-7.5,0-7.5,0v0.5h-7V59.477z"/><path fill="#472b29" d="M71.727,54.977c0.138,0,0.25-0.112,0.25-0.25c0-1.223-0.995-2.218-2.218-2.218 c-0.034,0.009-0.737-0.001-1.244,0.136c-0.133,0.036-0.212,0.173-0.176,0.306c0.036,0.134,0.173,0.213,0.306,0.176 c0.444-0.12,1.1-0.12,1.113-0.118c0.948,0,1.719,0.771,1.719,1.718C71.477,54.865,71.588,54.977,71.727,54.977z"/><circle cx="78.477" cy="59.477" r=".5" fill="#472b29"/><path fill="#472b29" d="M69.977,59.977h3.5c0.276,0,0.5-0.224,0.5-0.5s-0.224-0.5-0.5-0.5h-3.5c-1.654,0-3-1.346-3-3 c0-1.496,1.125-2.768,2.618-2.959c0.134-0.018,0.255-0.088,0.336-0.196s0.115-0.244,0.094-0.377 c-0.024-0.153-0.049-0.308-0.049-0.468c0-1.654,1.346-3,3-3c0.85,0,1.638,0.355,2.219,1c0.125,0.139,0.321,0.198,0.5,0.148 c0.182-0.049,0.321-0.195,0.36-0.379c0.341-1.604,1.779-2.769,3.42-2.769c1.93,0,3.5,1.57,3.5,3.5 c0,0.143-0.021,0.28-0.041,0.418c-0.029,0.203,0.063,0.438,0.242,0.54s0.396,0.118,0.556-0.01 c0.365-0.293,0.794-0.448,1.243-0.448c0.966,0,1.792,0.691,1.963,1.644c0.048,0.267,0.296,0.446,0.569,0.405 c0.153-0.024,0.308-0.049,0.468-0.049c1.654,0,3,1.346,3,3s-1.346,3-3,3h-7.5c-0.276,0-0.5,0.224-0.5,0.5s0.224,0.5,0.5,0.5h7.5 c2.206,0,4-1.794,4-4s-1.794-4-4-4c-0.059,0-0.116,0.002-0.174,0.006c-0.414-1.186-1.537-2.006-2.826-2.006 c-0.349,0-0.689,0.061-1.011,0.18c-0.165-2.333-2.115-4.18-4.489-4.18c-1.831,0-3.466,1.127-4.153,2.774 c-0.68-0.499-1.502-0.774-2.347-0.774c-2.206,0-4,1.794-4,4c0,0.048,0.001,0.095,0.004,0.142 c-1.743,0.448-3.004,2.027-3.004,3.858C65.977,58.182,67.771,59.977,69.977,59.977z"/><path fill="#472b29" d="M75.477,58.977c0.159,0,0.841,0,1,0c0.276,0,0.5,0.224,0.5,0.5s-0.224,0.5-0.5,0.5 c-0.159,0-0.841,0-1,0c-0.276,0-0.5-0.224-0.5-0.5C74.977,59.2,75.201,58.977,75.477,58.977z"/></g><g><path fill="#fdfcef" d="M28.125,79.5c0,0-3.64,0-6.125,0s-4.5-2.015-4.5-4.5c0-2.333,1.782-4.229,4.055-4.455 C21.533,70.364,21.5,70.187,21.5,70c0-2.485,2.015-4.5,4.5-4.5c1.438,0,2.703,0.686,3.527,1.736 C29.667,64.6,31.829,62.5,34.5,62.5c2.761,0,5,2.239,5,5c0,0.446-0.077,0.87-0.187,1.282c0.642-0.777,1.6-1.282,2.687-1.282 c1.781,0,3.234,1.335,3.455,3.055C45.636,70.533,45.813,70.5,46,70.5c2.485,0,4.5,2.015,4.5,4.5s-2.015,4.5-4.5,4.5s-9.5,0-9.5,0 h-5.375V80h-3V79.5z"/><path fill="#472b29" d="M46,70c-0.048,0-0.095,0.002-0.142,0.005C45.411,68.261,43.831,67,42,67 c-0.71,0-1.398,0.192-2,0.547c0-0.016,0-0.031,0-0.047c0-3.033-2.467-5.5-5.5-5.5c-2.555,0-4.719,1.76-5.317,4.164 C28.293,65.416,27.176,65,26,65c-2.757,0-5,2.243-5,5c0,0.041,0.001,0.082,0.003,0.123C18.689,70.587,17,72.603,17,75 c0,2.757,2.243,5,5,5h24c2.757,0,5-2.243,5-5C51,72.243,48.757,70,46,70z M46,79H22c-2.206,0-4-1.794-4-4 c0-2.051,1.549-3.753,3.605-3.958c0.133-0.013,0.256-0.08,0.34-0.185s0.122-0.239,0.106-0.373l-0.019-0.141 C22.017,70.23,22,70.117,22,70c0-2.206,1.794-4,4-4c1.221,0,2.362,0.563,3.133,1.545c0.096,0.123,0.242,0.192,0.392,0.192 c0.051,0,0.102-0.008,0.152-0.024c0.199-0.063,0.338-0.242,0.349-0.45C30.153,64.872,32.119,63,34.5,63 c2.481,0,4.5,2.019,4.5,4.5c0,0.352-0.054,0.718-0.169,1.153c-0.06,0.227,0.045,0.466,0.254,0.573 c0.072,0.038,0.15,0.056,0.228,0.056c0.145,0,0.288-0.064,0.386-0.182C40.277,68.401,41.115,68,42,68 c1.496,0,2.768,1.125,2.959,2.618c0.033,0.252,0.249,0.437,0.495,0.437c0.021,0,0.041-0.001,0.062-0.004l0.141-0.019 C45.77,71.017,45.883,71,46,71c2.206,0,4,1.794,4,4S48.206,79,46,79z"/><path fill="#472b29" d="M36,69c1.403,0,2.609,0.999,2.913,2.341C39.28,71.119,39.699,71,40.125,71 c1.202,0,2.198,0.897,2.353,2.068C42.681,73.022,42.874,73,43.063,73c1.529,0,2.811,1.2,2.918,2.732 C45.99,75.87,45.886,75.99,45.749,76c-0.006,0-0.012,0-0.018,0c-0.13,0-0.24-0.101-0.249-0.232 c-0.089-1.271-1.151-2.268-2.419-2.268c-0.229,0-0.47,0.042-0.738,0.127c-0.022,0.007-0.045,0.01-0.067,0.01 c-0.055,0-0.11-0.02-0.156-0.054C42.038,73.537,42,73.455,42,73.375c0-1.034-0.841-1.875-1.875-1.875 c-0.447,0-0.885,0.168-1.231,0.473c-0.047,0.041-0.106,0.063-0.165,0.063c-0.032,0-0.063-0.006-0.093-0.019 c-0.088-0.035-0.148-0.117-0.155-0.212C38.377,70.512,37.288,69.5,36,69.5c-0.208,0-0.425,0.034-0.682,0.107 c-0.023,0.007-0.047,0.01-0.07,0.01c-0.109,0-0.207-0.073-0.239-0.182c-0.038-0.133,0.039-0.271,0.172-0.309 C35.483,69.04,35.744,69,36,69L36,69z"/><path fill="#472b29" d="M22.117,70.5c1.326,0,2.508,0.897,2.874,2.182c0.038,0.133-0.039,0.271-0.172,0.309 C24.795,72.997,24.772,73,24.75,73c-0.109,0-0.209-0.072-0.24-0.182C24.205,71.748,23.221,71,22.117,71 c-0.117,0-0.23,0.014-0.342,0.029c-0.012,0.002-0.023,0.003-0.035,0.003c-0.121,0-0.229-0.092-0.246-0.217 c-0.019-0.137,0.077-0.263,0.214-0.281C21.842,70.516,21.978,70.5,22.117,70.5L22.117,70.5z"/></g><g><path fill="#fabf82" d="M42.385,40.833L42.385,40.833c-0.859,0.694-2.118,0.561-2.813-0.299l-2.514-3.111l3.111-2.514 l2.514,3.111C43.378,38.88,43.245,40.139,42.385,40.833z"/></g><g><path fill="#472b29" d="M41.134,41.978c-0.097,0-0.193-0.005-0.29-0.015c-0.718-0.076-1.362-0.427-1.815-0.988l-2.954-3.655 l4.2-3.395l2.954,3.655c0.937,1.16,0.755,2.863-0.403,3.798C42.34,41.77,41.748,41.978,41.134,41.978z M38.043,37.528l2.074,2.566 c0.219,0.271,0.528,0.438,0.874,0.476c0.342,0.033,0.684-0.063,0.955-0.282l0,0c0.27-0.218,0.438-0.527,0.475-0.873 c0.037-0.346-0.062-0.685-0.281-0.955l-2.074-2.566L38.043,37.528z"/></g><g><circle cx="35.5" cy="32.5" r="6.5" fill="#fabf82"/></g><g><path fill="#472b29" d="M35.5,39.2c-3.694,0-6.7-3.006-6.7-6.7s3.006-6.7,6.7-6.7s6.7,3.006,6.7,6.7S39.194,39.2,35.5,39.2z M35.5,27.2c-2.923,0-5.3,2.377-5.3,5.3s2.377,5.3,5.3,5.3s5.3-2.377,5.3-5.3S38.423,27.2,35.5,27.2z"/></g><g><path fill="#472b29" d="M36.353,22.996l-0.528-0.337l-0.394,0.49c-0.648,0.805-1.293,1.069-2.111,1.405 c-0.873,0.358-1.865,0.763-3.011,1.868l-0.025,0.026c-2.323,2.482-3.807,6.628-0.344,10.145l0.098,0.082l1.412,1.17l0.804-0.474 l0.024,0.017c-0.007-0.007-0.012-0.013-0.018-0.02l0.552-0.325c-0.61-0.578-0.975-1.319-0.98-1.88 c-0.011-1.007,0.936-1.943,1.563-2.563l0.188-0.187c0.533-0.467,1.138-0.964,1.719-1.442c2.199-1.809,3.345-2.797,3.333-3.77 C38.529,25.298,37.762,23.893,36.353,22.996z"/></g></svg>