<svg xmlns="http://www.w3.org/2000/svg" xmlns:xlink="http://www.w3.org/1999/xlink" viewBox="0,0,256,256" width="192px" height="192px"><g fill="#5e17eb" fill-rule="nonzero" stroke="none" stroke-width="1" stroke-linecap="butt" stroke-linejoin="miter" stroke-miterlimit="10" stroke-dasharray="" stroke-dashoffset="0" font-family="none" font-weight="none" font-size="none" text-anchor="none" style="mix-blend-mode: normal"><g transform="scale(10.66667,10.66667)"><path d="M19,5h-8l-1.121,-1.121c-0.563,-0.563 -1.326,-0.879 -2.122,-0.879h-3.757c-1.105,0 -2,0.895 -2,2v13c0,1.657 1.343,3 3,3h2c0,-0.552 0.448,-1 1,-1c0.552,0 1,0.448 1,1h6c0,-0.552 0.448,-1 1,-1c0.552,0 1,0.448 1,1h2c1.657,0 3,-1.343 3,-3v-10c0,-1.657 -1.343,-3 -3,-3z" opacity="0.35"></path><circle cx="12" cy="10" r="2"></circle><path d="M14.5,14h-5c-0.828,0 -1.5,0.672 -1.5,1.5c0,0.828 0.672,1.5 1.5,1.5h5c0.828,0 1.5,-0.672 1.5,-1.5c0,-0.828 -0.672,-1.5 -1.5,-1.5z"></path></g></g></svg>