<svg xmlns="http://www.w3.org/2000/svg"  viewBox="0 0 100 100" width="400px" height="400px"><path fill="#ebe9e4" d="M75.343,59.249l8.169-3.404c1.088-0.453,1.55-1.744,0.997-2.784L71.36,28.309 C69.625,25.042,66.228,23,62.529,23H58.54v-1c0-2.761-2.239-5-5-5h-8c-2.761,0-5,2.239-5,5v1h-3.82c-3.787,0-7.25,2.14-8.944,5.527 L15.468,53.144c-0.507,1.014-0.071,2.246,0.961,2.715l7.356,3.344c0.979,0.445,2.135,0.036,2.616-0.926L34.54,42l2,18 l-6.214,20.418C29.935,81.703,30.896,83,32.239,83H66.84c1.343,0,2.304-1.297,1.913-2.582L62.567,60.09L65.54,42l7.207,16.215 C73.188,59.207,74.34,59.666,75.343,59.249z"/><polygon fill="#cdcbbd" points="43.518,17.463 49.981,28.234 55.965,17.383"/><path fill="#444445" d="M53.079,63.5h9.525v-2.84h-9.5v-0.043c0-1.204-0.976-2.181-2.181-2.181h-2.638 c-1.204,0-2.181,0.976-2.181,2.181v0.043H35.923v2.84h10.206c0.054,0.48,0.269,0.907,0.58,1.241l-0.126-0.029l-3.697,13.524 C42.711,78.873,43.19,79.5,43.85,79.5h2.382c0.472,0,0.879-0.329,0.978-0.79l1.748-8.158l2.067,4.375 c0.165,0.35,0.517,0.573,0.904,0.573h2.92c0.699,0,1.182-0.699,0.936-1.353l-3.48-9.217C52.724,64.578,53.014,64.075,53.079,63.5z M49.76,65.436h0.346l-0.07,0.084l0.004-0.02L49.76,65.436z"/><path fill="#fefdef" d="M34.742,41.255l-1.723-17.17l-4.947,4.213L15.787,53.195c-0.493,0.999-0.074,2.209,0.931,2.689 l6.579,3.145c0.972,0.465,2.138,0.076,2.636-0.88L34.742,41.255z"/><path fill="#fefdef" d="M64.806,41.511l1.755-17.426l4.883,4.213l12.285,24.897c0.493,0.999,0.074,2.209-0.931,2.689 l-6.587,3.148c-0.969,0.463-2.131,0.078-2.632-0.872L64.806,41.511z"/><polygon fill="#fff" points="40.54,23 47.165,34.125 50.165,28.125 43.415,17.75 40.915,20.125"/><path fill="#fff" d="M36.415,55.25L55.54,18c0,0,3.537,2.83,2.787,5.83L38.891,60.021l-2.521,0.447L36.415,55.25z"/><path fill="#1f212b" d="M85.393,52.592L72.243,27.84C70.33,24.237,66.607,22,62.529,22H59.54c0-3.309-2.692-6-6-6h-8 c-3.309,0-6,2.691-6,6h-2.82c-4.194,0-7.964,2.33-9.839,6.081L14.574,52.696c-0.368,0.735-0.419,1.567-0.145,2.343 s0.838,1.39,1.587,1.729l7.355,3.344c1.476,0.672,3.2,0.061,3.925-1.389l6.624-13.248l1.603,14.43l-6.154,20.221 c-0.28,0.918-0.112,1.887,0.459,2.659C30.4,83.558,31.279,84,32.239,84h34.602c0.96,0,1.838-0.442,2.41-1.214 c0.571-0.771,0.739-1.741,0.46-2.659l-6.119-20.105l2.393-14.56l5.848,13.159c0.667,1.501,2.377,2.183,3.896,1.551l8.168-3.404 c0.778-0.324,1.387-0.965,1.671-1.758C85.852,54.216,85.788,53.335,85.393,52.592z M53.54,18c0.462,0,0.899,0.094,1.312,0.239 l-4.829,9.285l-5.756-9.298C44.67,18.091,45.093,18,45.54,18H53.54z M41.54,22c0-1.4,0.726-2.63,1.818-3.345l6.129,9.901 l-2.507,4.821l-5.588-9.886c0.085-0.147,0.148-0.309,0.148-0.492V22z M34.715,41.016c-0.436-0.079-0.872,0.142-1.07,0.537 l-8.139,16.276c-0.241,0.482-0.816,0.687-1.308,0.463l-7.356-3.344c-0.25-0.113-0.438-0.318-0.528-0.576 c-0.092-0.259-0.075-0.536,0.048-0.781L28.67,28.976c0.788-1.577,1.989-2.839,3.432-3.701l0.108,1.074 c0.026,0.258,0.243,0.45,0.497,0.45c0.017,0,0.034-0.001,0.051-0.003c0.274-0.027,0.475-0.272,0.447-0.547l-0.149-1.477 C34.187,24.271,35.429,24,36.72,24h3.811l5.899,10.436l-9.66,18.577L35.534,41.89C35.484,41.449,35.151,41.094,34.715,41.016z M45.54,61v2h-8.868l0.609-2H45.54z M61.799,61l0.608,2H53.54v-2H61.799z M46.854,65.613C47.256,65.853,47.72,66,48.221,66h1.201 l-2.701,12.605C46.671,78.834,46.466,79,46.231,79H43.85c-0.157,0-0.302-0.071-0.397-0.196c-0.095-0.125-0.126-0.284-0.084-0.436 L46.854,65.613z M50.444,66h0.415c0.364,0,0.711-0.074,1.027-0.206l3.182,8.531c0.058,0.155,0.037,0.323-0.058,0.46 C54.916,74.922,54.766,75,54.6,75h-2.888c-0.204,0-0.385-0.122-0.462-0.312l-1.75-4.281L50.444,66z M52.54,63.319 c0,0.927-0.754,1.681-1.681,1.681h-2.638c-0.927,0-1.681-0.754-1.681-1.681v-2.639c0-0.927,0.754-1.681,1.681-1.681h2.638 c0.927,0,1.681,0.754,1.681,1.681V63.319z M67.644,81.596C67.453,81.853,67.161,82,66.841,82H32.239 c-0.32,0-0.613-0.147-0.804-0.405c-0.19-0.257-0.246-0.579-0.153-0.886L36.368,64h9.236c0.012,0,0.021-0.006,0.033-0.007 c0.081,0.311,0.21,0.601,0.39,0.858l-3.624,13.253c-0.125,0.455-0.032,0.931,0.254,1.306S43.378,80,43.85,80h2.382 c0.703,0,1.319-0.498,1.467-1.186l1.43-6.672l1.195,2.925C50.555,75.634,51.1,76,51.711,76H54.6c0.491,0,0.952-0.241,1.232-0.645 s0.345-0.92,0.173-1.38l-3.264-8.751c0.336-0.332,0.576-0.754,0.7-1.224h9.162c0.036,0,0.068-0.013,0.102-0.021l5.091,16.73 C67.891,81.015,67.834,81.338,67.644,81.596z M83.685,54.336c-0.096,0.268-0.294,0.477-0.557,0.586l-8.168,3.403 c-0.499,0.207-1.081-0.024-1.299-0.517l-7.207-16.215c-0.179-0.403-0.601-0.635-1.042-0.586c-0.438,0.057-0.787,0.394-0.859,0.83 l-2.979,18.128c-0.002,0.012,0.003,0.022,0.001,0.034h-8.134c-0.303-1.148-1.341-2-2.583-2h-2.638 c-1.244,0-2.283,0.856-2.584,2.007C45.625,60.006,45.615,60,45.604,60h-6.727l0.551-1.024c0.131-0.243,0.04-0.547-0.204-0.678 c-0.244-0.13-0.546-0.039-0.677,0.203L37.74,60h-0.216c0-0.038,0.014-0.072,0.01-0.11l-0.566-5.091l10.338-19.88 c0.154-0.098,0.234-0.266,0.228-0.438l8.22-15.808c1.076,0.718,1.787,1.94,1.787,3.328v1c0,0.049,0.021,0.091,0.028,0.138 l-0.586,1.089c-0.13,0.243-0.04,0.546,0.204,0.677c0.075,0.04,0.156,0.06,0.236,0.06c0.178,0,0.351-0.096,0.441-0.264l0.406-0.755 C58.356,23.971,58.444,24,58.54,24h3.989c1.398,0,2.737,0.338,3.946,0.928l-0.133,1.321c-0.027,0.274,0.173,0.52,0.447,0.547 c0.018,0.002,0.034,0.003,0.051,0.003c0.254,0,0.471-0.192,0.497-0.45l0.089-0.885c1.256,0.817,2.319,1.937,3.051,3.313 L83.626,53.53C83.76,53.781,83.78,54.067,83.685,54.336z"/><path fill="#1f212b" d="M55.611,27.831c-0.244-0.13-0.546-0.039-0.677,0.203l-2.048,3.809 c-0.13,0.244-0.04,0.547,0.204,0.678c0.075,0.04,0.156,0.06,0.236,0.06c0.178,0,0.351-0.096,0.441-0.263l2.048-3.809 C55.945,28.265,55.854,27.962,55.611,27.831z"/><path fill="#1f212b" d="M51.514,35.447c-0.244-0.131-0.546-0.039-0.677,0.203l-2.048,3.809 c-0.13,0.244-0.04,0.547,0.204,0.678c0.075,0.04,0.156,0.06,0.236,0.06c0.178,0,0.351-0.096,0.441-0.263l2.048-3.809 C51.849,35.881,51.757,35.578,51.514,35.447z"/><path fill="#1f212b" d="M47.417,43.064c-0.244-0.131-0.546-0.039-0.677,0.203l-2.049,3.809 c-0.13,0.243-0.039,0.547,0.204,0.678c0.075,0.04,0.156,0.06,0.236,0.06c0.178,0,0.351-0.096,0.44-0.263l2.049-3.809 C47.752,43.499,47.661,43.195,47.417,43.064z"/><path fill="#1f212b" d="M43.32,50.681c-0.244-0.13-0.546-0.039-0.677,0.203l-2.049,3.809 c-0.13,0.244-0.039,0.547,0.204,0.678c0.075,0.04,0.156,0.06,0.236,0.06c0.178,0,0.351-0.096,0.44-0.263l2.049-3.809 C43.655,51.114,43.563,50.812,43.32,50.681z"/><path fill="#1f212b" d="M33.513,34.27c0.274-0.027,0.475-0.272,0.447-0.547l-0.377-3.737 c-0.028-0.274-0.269-0.475-0.548-0.447c-0.274,0.027-0.475,0.272-0.447,0.547l0.377,3.737c0.026,0.258,0.243,0.45,0.497,0.45 C33.479,34.272,33.496,34.271,33.513,34.27z"/><path fill="#1f212b" d="M33.789,37.013c-0.274,0.027-0.475,0.272-0.447,0.547l0.2,1.99c0.026,0.258,0.243,0.45,0.497,0.45 c0.017,0,0.033-0.001,0.051-0.003c0.274-0.027,0.475-0.272,0.447-0.547l-0.2-1.99C34.31,37.186,34.07,36.982,33.789,37.013z"/><path fill="#1f212b" d="M66.513,29.538c-0.278-0.028-0.52,0.173-0.548,0.447l-0.377,3.737 c-0.027,0.274,0.173,0.52,0.447,0.547c0.017,0.002,0.034,0.003,0.051,0.003c0.254,0,0.471-0.192,0.497-0.45l0.377-3.737 C66.987,29.811,66.787,29.565,66.513,29.538z"/><path fill="#1f212b" d="M65.759,37.013c-0.271-0.03-0.52,0.172-0.548,0.447l-0.201,1.99 c-0.028,0.274,0.172,0.52,0.448,0.547C65.475,39.999,65.492,40,65.509,40c0.253,0,0.471-0.192,0.497-0.45l0.201-1.99 C66.233,37.285,66.033,37.04,65.759,37.013z"/></svg>