<svg xmlns="http://www.w3.org/2000/svg"  viewBox="0 0 48 48" width="192px" height="192px" baseProfile="basic"><path fill="#12d9e3" d="M40,15v17.87l-7.84,7.84L31.03,44H13c-2.76,0-5-2.24-5-5V9c0-2.76,2.24-5,5-5h16	c0.27,0,0.52,0.11,0.71,0.29l10,10C39.89,14.48,40,14.73,40,15z"/><path fill="#324561" d="M40,16h-7c-2.757,0-5-2.243-5-5V4c0-0.552,0.447-1,1-1s1,0.448,1,1v7c0,1.654,1.346,3,3,3h7	c0.553,0,1,0.448,1,1S40.553,16,40,16z"/><path fill="#324561" d="M30,48c-0.261,0-0.517-0.102-0.707-0.293c-0.27-0.27-0.362-0.67-0.239-1.031l2.155-6.292	c0.05-0.144,0.132-0.275,0.239-0.383l9.843-9.843c0.566-0.567,1.32-0.879,2.121-0.879c0,0,0,0,0.001,0	c0.801,0,1.554,0.312,2.12,0.879l1.309,1.308c1.17,1.169,1.17,3.073,0,4.243l-9.843,9.843c-0.107,0.108-0.238,0.189-0.383,0.239	l-6.292,2.155C30.218,47.982,30.108,48,30,48z M33.026,41.251l-1.419,4.141l4.142-1.418l9.679-9.679c0.39-0.39,0.39-1.024,0-1.415	l-1.309-1.308c-0.188-0.189-0.439-0.293-0.707-0.293l0,0c-0.267,0-0.519,0.104-0.707,0.293L33.026,41.251z"/><rect width="2" height="5.657" x="34" y="39.172" fill="#324561" transform="rotate(-45.001 35 42)"/></svg>