<svg enable-background="new 0 0 808.314 1478.262" height="1479" viewBox="0 0 808.314 1478.262" width="809" xmlns="http://www.w3.org/2000/svg"><path d="m805.242 1400.619c-4.074 8.079-14.426 12.347-23.004 9.479-3.755-1.261-7.179-3.7-11.114-4.088-3.769-.388-7.414 1.15-11.044 2.19-28.603 8.148-57.192-14.468-86.918-14.371-11.918.042-23.544 3.77-35.449 4.477-11.904.706-25.291-2.55-31.61-12.667-7.926-12.708 4.559-34.202 11.364-47.547l9.645.152c-13.844-3.354-18.792-6.652-18.792-6.652 7.594-57.414 7.151-115.881-1.303-173.184-1.095-7.455-2.466-15.188-6.916-21.272-2.619-3.575-6.194-6.375-8.688-10.047-10.74-15.757 1.177-41.838-13.512-53.992-4.739-3.908-11.558-5.432-14.912-10.587-2.868-4.407-2.3-10.117-2.73-15.355-1.136-13.775-9.631-25.679-17.862-36.793-26.746-36.1-49.972-85.656-77.37-121.271l-5.834-8.467c-35.712 67.613-71.438 135.213-107.151 202.813-8.536 16.13-17.059 32.275-24.93 48.739-9.479 19.844-18.001 40.146-27.688 59.908-37.444 76.385-92.502 145.204-114.162 227.48 0 0-20.579 5.197-56.929-15.549-6.763-3.866-17.869-9.902-24.243-14.17 2.425 9.812 8.196 20.226 11.716 24.467 11.946 14.385 26.399 21.009 35.255 27.273 11.294 1.607 20.967 5.82 20.967 14.509 0 9.687-11.821 11.849-20.191 9.493-4.157 8.315-15.244 8.315-20.787 2.772-.721 3.839-12.25 8.703-21.023.43-4.13 6.666-12.195 8.273-21.868 1.829-3.229 8.066-17.752 4.837-22.588-3.229-10.74-5.959-20.372-20.371-35.684-32.289-12.472-9.701-23.559-15.244-26.33-27.716-4.808-21.646 28.891-42.723 45.535-63.538-6.596-6.236-12.677-11.975-12.677-11.975 35.31-80.432 70.621-160.878 105.945-241.31 5.806-13.234 11.641-26.51 19.304-38.761 6.264-10.019 13.747-19.319 19.124-29.837 5.335-10.421 8.481-21.799 11.599-33.093 6.915-25.013 13.817-50.028 20.732-75.041 7.137-25.832 14.33-52.148 13.554-78.935-.374-12.597 4.615-36.821 9.701-48.351l3.243-5.806c-14.246.956-24.141 2.231-24.03 1.649 11.155-56.402 26.33-115.022 69.29-175.997l.471-4.171c-.014 0-.014-.014-.014-.014-.679-1.58-.346-3.396-.014-5.086.444-2.245.901-4.476 1.345-6.708l2.453-22.02c-16.297-7.608-21.605-29.282-25.832-47.006-3.396-14.246-1.399-29.13-1.039-43.764 1.178-47.699-2.494-76.441-10.629-123.448-1.081-6.278-4.365-23.226 9.701-47.117 12.306-20.898 24.75-46.341 42.96-62.361 18.459-16.242 35.809-26.649 52.661-45.732 6.375-11.461 7.317-17.226 11.336-24.404l1.053-2.564c3.09 1.968 6.125 4.033 9.133 6.139.277-.526.499-.97.651-1.344 3.049-7.289 23.781-30.821 26.372-38.359 2.577-7.483 6.859-14.883 9.645-22.436.014-.152.041-.319.097-.471.388-1.15.79-2.314 1.192-3.479.471-1.649.859-3.298 1.108-4.961 2.467-16.824 12.126-31.791 16.575-48.115 1.372-5.072-2.688-11.572-.472-16.269 4.934-10.408 18.501-18.126 28.035-23.878 16.325-9.839 39.676-10.67 57.761-5.945 5.612 1.469 11.904 1.65 17.35 3.631 3.298 1.192 4.628 3.09 6.929 5.239 3.174 2.938 6.859 5.501 10.31 8.052 4.199 3.104 8.315 6.721 11.557 10.837 1.608 2.037 2.814 2.799 4.213 4.919.679 1.026 1.317 2.162 1.941 3.409 3.755 6.888 7.067 17.85 10.338 24.515 1.33 2.688-1.067 6.374-4.768 7.344-1.357.665-1.704 1.663-2.05 2.675-.014 2.466 4.504 18.209 9.825 35.837.721 1.234 1.483 2.453 2.286 3.645 2.231 3.285 4.172 4.656 2.966 8.163-.264.776-.624 1.483-1.012 2.162.554 1.801 1.094 3.589 1.635 5.349.042 6.084-9.811 7.068-13.761 7.733.11.041.18.069.291.111 0 0-13.177 29.889-14.382 35.349-2.55 11.516 1.113 23.142-10 31-10.02 7.095-16.953-.134-27-4-8.467-3.27-19.893-2.349-28-3-1.621 1.677-1.105 8.084-2.782 9.733-.055.166-.111.332-.152.499l-1.026 7.83c7.165 5.363 15.244 9.701 23.614 20.344l2.938 2.162-.222-.333c15.244 6.929 38.802 19.401 44.346 27.716 13.623 20.427 28.215 70.274 41.366 104.78.943-3.7 1.926-7.261 2.979-10.546 1.344 2.855 2.703 5.557 4.102 8.121l1.594-1.095c1.622-16.297 2.619-36.128 2.619-43.057.139-7.081-20.787-19.401-18.015-38.802.167-10.782 5.294-17.752 2.772-42.96-1.386-13.858 4.157-16.63 11.086-12.472 4.906 2.938 5.543 18.015 9.701 30.488l2.772-1.386 6.236-40.327.291-.984c-.651-11.932-1.69-30.612.263-42.101.374-2.175.485-4.601 2.106-6.112 1.621-1.497 7.733-6.097 10.505 4.989h.028c-.014-1.33-.028-2.688-.028-4.157 0-4.352 2.772-12.472 6.929-12.472 6.139 0 8.246 3.035 9.146 14.163l1.94-.304c5.543-9.701 11.959-.43 12.472 8.315.693 11.876 1.788 20.33 2.494 28.395l.277-15.923c6.929-5.543 12.015.457 13.858 12.472 2.772 18.015 5.682 39.759 4.157 55.432-1.386 19.401 0 33.259-18.015 62.361-2.342 8.176-1.719 14.412-2.301 25.304l-.125 6.028c2.508-2.564.073 53.899.073 53.899l12.052 3.46c5.543-48.503 52.661-44.346 55.432-30.488 9.527-2.598 13.642-.325 18.094 6.144 1.501 2.181.623 5.775 2.421 8.884 1.402 2.424 5.379 4.185 7.201 7.145 0 0 .572 2.575 1.456 6.164.2.81-1.462 3.763-.657 6.691.89 3.236 4.264 6.493 4.744 7.932.534 1.607-1.784 5.1-1.744 10.068s5 7 .358 14.877c-11.143 18.909-42.96 26.33-73.448 24.944-12.472 2.772-12.472 2.772-12.472 2.772-5.543 31.873-19.249 66.213-26.33 80.377-2.772 5.543-11.987 7.913-29.102 16.63-17.143 8.73-25.139 6.61-36.807 2.231s-17.336-8.148-26.94-16.089l.901-.735c-3.991.499-7.968 1.026-11.932 1.566l-.055.554c.568 7.096-.97 9.521-1.386 16.63-1.053 17.946-3.742 27.051-17.821 30.363l9.797-.735c1.164 1.039 5.89 3.659 6.638 13.332.804 10.393-.263 14.329-5.543 16.324l7.04-1.108-.194.18c10.74 12.5 26.76 34.465 37.5 46.965l-.446 7.112c12.638 4.546 19.691 12.73 37 16 1.857.346 10.106 29.756 9.178 29.549-6.472-1.455-13.207-3.049-20.163-4.975l1.081 1.995 3.839 1.594c5.515 9.742 26.33 33.259 26.33 33.259-3.451.679-6.874 1.441-10.269 2.259l1.663 3.132c52.301 73.004 116.878 149.057 118.708 238.843 2.148 106.374 13.969 73.724 14.62 102.217 1.635 71.937-1.621 126.842 10.186 197.823 0 0-7.414 10.047-61.461 15.59-12.694 1.303-25.499 2.703-36.946 3.894l16.159.263c31.873 29.102 41.574 37.417 69.29 41.574 5.197.776 9.992 4.157 15.244 4.157 18.013-.001 15.934 15.409 15.934 15.409z" fill="#fff"/><path d="m415.138 542.64-37.417 55.433-21.688 47.117-13.645 68.896-15.413 64.451-15.398 30.37 41.2-5.736 13.183-31.348 8.277-45.73 7.202-50.319 18.455-51.371 45.276-69.402z" fill="#ff89d8"/><path d="m497.786 226.535v29.227l-14.743 34.662 13.858 29.102 16.335-42.96 7.445-30.155z" fill="#ff89d8"/><path d="m290.835 569.498 74.557 29.378 74.439 14.21 43.212-1.843 15.21-6.557 24.174 10.547 25.514-.531 8.788 10.143 1.058 19.107-26.242 4.009-2.772 2.772s16.072 18.3 33.072 29.3c25.178 16.292 65.431 21.994 79.2 23.526 2.642.294 4.53 2.686 4.208 5.325l-4.231 34.698-49.889-15.301-49.487-31.123-19.221-18.001-11.226-15.859-14.776 1.669-15.461 16.485-15.034 28.003-15.768 43.68-20.315 43.898-42.008-20.537c-1.618-.791-2.23-2.782-1.329-4.342 8.14-14.077 43.779-75.57 53.573-90.137 12.764-18.984 30.764-36.984 30.764-36.984l-61.482-2.732-105.091-30.37-18.942-9.727z" fill="#1967ff"/><path d="m356.934 198.961 63.747 56.696 32.679 42.675 25.525 53.64 2.772 43.773 26.33 18.016 2.348-53.918-40.074-85.029-43.344-57.572-57.594-45.249z" fill="#ff89d8"/><g fill="#1b1464"><path d="m367.813 174.586c16.717 10.71 32.184 23.258 46.467 37.032 14.263 13.755 27.396 28.709 39.274 44.567 11.37 15.18 21.672 31.179 30.658 47.883 4.129 7.675 7.977 15.503 11.479 23.484 1.614 3.677 3.085 7.238 4.598 11.163 1.347 3.495 2.59 7.01 3.539 10.637 2.127 8.135 3.005 15.779 3.357 24.179.442 10.544-.111 21.118-1.19 31.608-.296 2.878-.636 5.752-1.008 8.621-.209 1.61 1.528 3 3 3 1.795 0 2.791-1.386 3-3 2.591-19.979 3.83-40.698-.132-60.591-1.521-7.638-4.204-14.849-7.168-22.03-3.366-8.154-7.072-16.162-11.096-24.011-8.65-16.873-18.673-33.044-29.77-48.415-11.825-16.379-24.86-31.907-39.111-46.231-14.325-14.399-29.908-27.61-46.72-39.024-2.031-1.379-4.082-2.729-6.149-4.053-1.365-.874-3.31-.281-4.105 1.076-.847 1.451-.291 3.229 1.077 4.105z"/><path d="m366.816 171.117c-3.048 4.979-4.988 10.429-7.279 15.77-1.485 3.46-2.972 7.485-5.224 10.517-2.537 3.415-6.002 6.448-9.068 9.383-11.782 11.28-25.141 20.686-37.642 31.119-6.017 5.021-11.641 10.299-16.617 16.369-4.878 5.951-9.255 12.294-13.343 18.808-4.156 6.62-8.026 13.413-11.885 20.209-3.957 6.967-8.345 13.797-11.639 21.11-4.853 10.775-7.579 22.611-6.296 34.454.575 5.304 1.672 10.559 2.556 15.815 1.38 8.209 2.702 16.429 3.885 24.669 4.556 31.728 6.245 63.835 4.69 95.864-.435 8.951-1.044 17.947-.18 26.891.716 7.405 2.598 14.666 4.577 21.823 3.308 11.964 7.968 25.073 17.991 33.098 2.549 2.041 5.268 3.591 8.277 4.847 1.506.629 3.285-.679 3.69-2.095.493-1.722-.607-3.069-2.095-3.69-11.281-4.71-16.844-17.033-20.35-27.942-2.001-6.226-3.654-12.626-5.016-19.022-1.837-8.623-1.656-17.542-1.268-26.302.754-16.99 1.167-33.947.549-50.951-.54-14.831-1.837-29.617-3.744-44.334-1.971-15.211-4.555-30.318-7.101-45.44-.114-.68-.223-1.361-.32-2.043-.016-.109-.076-.579-.004-.02-.025-.19-.049-.381-.071-.572-.057-.508-.114-1.016-.161-1.525-.194-2.118-.266-4.246-.216-6.372.138-5.896 1.295-11.693 3.139-17.286 2.478-7.521 6.443-14.224 10.361-21.055 3.737-6.516 7.39-13.081 11.216-19.546 7.663-12.951 16.026-25.858 27.254-36.036 11.765-10.664 24.887-19.707 36.872-30.111 3.139-2.724 6.201-5.536 9.157-8.458 2.916-2.884 6.606-5.986 8.575-9.607 3.137-5.77 5.481-11.825 8.067-17.843 1.108-2.578 2.379-5.071 3.844-7.465 2.022-3.305-3.166-6.323-5.181-3.031z"/><path d="m478.885 611.702c-19.426.243-38.879-1.083-58.101-3.899-17.077-2.502-33.99-6.109-50.625-10.702-13.585-3.751-26.991-8.156-40.148-13.208-2.697-1.036-5.384-2.1-8.06-3.192-1.258-.513-2.512-1.034-3.765-1.559-.143-.06-.285-.12-.428-.18.088.037.587.249.08.034-.279-.119-.559-.237-.838-.356-.613-.261-1.226-.525-1.838-.789-3.893-1.684-7.76-3.431-11.59-5.254-3.744-1.782-7.396-3.718-11.083-5.609-.048-.024-.094-.052-.141-.078-1.583-.891-4.018-.154-4.407 1.793-1.71 8.558-3.42 17.116-5.13 25.673-.83 4.153-1.772 8.611 1.782 11.825 1.515 1.37 3.263 2.154 5.136 2.911 1.976.799 3.956 1.591 5.935 2.383 14.554 5.82 29.169 11.509 43.988 16.624 12.809 4.421 25.784 8.389 38.972 11.518 12.967 3.076 26.122 5.302 39.375 6.704 14.571 1.542 29.234 2.062 43.881 1.935 1.973-.017 3.945-.047 5.917-.085 3.856-.076 3.869-6.076 0-6-14.552.285-29.123-.001-43.628-1.257-12.822-1.11-25.367-2.99-38.005-5.733-12.757-2.769-25.322-6.356-37.717-10.439-13.911-4.582-27.621-9.758-41.251-15.113-3.846-1.511-7.685-3.038-11.52-4.575-1.754-.703-3.701-1.375-5.285-2.164-1.092-.544-2.212-1.144-2.434-2.336-.309-1.659.466-3.731.785-5.332.403-2.018.807-4.037 1.21-6.055.839-4.198 1.678-8.396 2.517-12.594.419-2.099.839-4.198 1.258-6.297-1.469.598-2.938 1.195-4.407 1.793 2.966 1.669 6.03 3.175 9.09 4.661 8.448 4.103 17.081 7.83 25.811 11.291 12.765 5.061 25.777 9.499 38.965 13.323 16.329 4.735 32.937 8.522 49.719 11.252 19.255 3.133 38.736 4.93 58.248 5.101 2.577.023 5.154.016 7.731-.017 3.859-.046 3.87-6.046.001-5.998z"/><path d="m485.633 291.938c4.783-7.188 9.058-14.734 11.972-22.887 3.158-8.838 4.383-18.289 3.118-27.608-.837-6.168-2.751-12.039-5.39-17.665-.688-1.467-2.796-1.841-4.105-1.076-1.503.879-1.767 2.632-1.076 4.105 4.056 8.647 5.815 18.095 4.8 27.607-.853 7.998-3.789 15.801-7.52 22.895-2.103 3.998-4.479 7.843-6.981 11.603-.898 1.349-.264 3.32 1.076 4.105 1.471.857 3.206.274 4.106-1.079z"/><path d="m518.945 248.669c10.124 4.609 20.108 9.693 29.537 15.607 4.168 2.614 7.769 4.993 11.147 8.174.657.618 1.291 1.261 1.881 1.944.116.135.226.276.344.409.471.532-.35-.539.029.035.236.358.488.706.722 1.067 1.072 1.649 2.068 3.348 3.017 5.071 4.87 8.846 8.497 17.845 12.093 27.164 4.346 11.264 8.327 22.666 12.295 34.067 4.388 12.605 8.71 25.239 13.475 37.708.578 1.513 2.02 2.554 3.69 2.095 1.448-.398 2.677-2.169 2.095-3.69-8.674-22.696-15.957-45.895-24.564-68.616-3.759-9.923-7.69-19.859-12.585-29.286-1.851-3.564-3.785-7.307-6.441-10.349-2.933-3.36-6.726-6.034-10.396-8.518-10.445-7.069-21.85-12.843-33.312-18.062-1.474-.671-3.229-.421-4.105 1.076-.752 1.288-.404 3.429 1.078 4.104z"/><path d="m596.497 423.59c6.191-13.684 10.193-28.379 13.312-43.036.828-3.892 1.577-7.802 2.234-11.727-1.828.239-3.656.478-5.483.717 2.577 5.422 6.512 10.194 10.69 14.459 5.009 5.112 10.625 9.625 16.435 13.79 11.701 8.388 24.495 15.436 37.87 20.772 5.515 2.2 11.267 4.215 17.174 5.019 1.603.218 3.221-.386 3.69-2.095.384-1.399-.479-3.47-2.095-3.69-5.02-.684-9.915-2.27-14.645-4.041-3.234-1.211-5.426-2.138-8.474-3.527-3.136-1.429-6.227-2.956-9.275-4.563-6.401-3.377-12.621-7.108-18.586-11.207-5.711-3.926-10.841-7.906-15.916-12.782-2.517-2.418-4.904-4.974-7.063-7.717-.293-.372.253.335-.031-.039-.136-.179-.271-.358-.405-.539-.238-.32-.472-.644-.702-.97-.448-.635-.882-1.28-1.297-1.937-.808-1.276-1.543-2.595-2.191-3.96-1.062-2.236-5.064-1.786-5.483.717-2.419 14.444-5.881 28.828-10.726 42.656-1.277 3.645-2.657 7.229-4.215 10.673-.667 1.475-.424 3.227 1.076 4.105 1.288.75 3.435.405 4.106-1.078z"/><path d="m418.56 321.647c.468.473.897.972 1.323 1.482-.413-.494-.081-.104.11.167.22.312.43.632.629.958.297.487.571.989.822 1.502.141.287.268.579.4.869-.372-.812.047.135.131.36.979 2.612 1.529 5.367 2.03 8.104 1.398 7.624 2.761 15.172 5.378 22.5 2.166 6.064 4.926 11.904 8.107 17.498 1.909 3.356 7.095.336 5.181-3.028-4.978-8.752-8.702-18.016-10.867-27.856-1.341-6.097-1.8-12.543-3.91-18.445-1.12-3.132-2.744-5.976-5.093-8.353-2.717-2.75-6.96 1.492-4.241 4.242z"/><path d="m300.334 496.208c13.284 1.703 26.389 4.91 38.718 10.196 11.414 4.893 22.157 11.198 33.065 17.094 10.622 5.742 21.505 10.97 32.161 16.649 11.348 6.048 22.705 12.099 34.386 17.487 10.655 4.915 21.779 9.765 33.379 11.919 9.045 1.679 18.329 2.005 27.507 2.032 23.36.067 46.696-2.017 69.984-3.595 11.249-.762 22.507-1.482 33.779-1.784 8.927-.239 17.955-.329 26.835.751.237.029.475.059.712.09.544.072-.708-.104.178.026.406.06.812.12 1.216.186.812.132 1.621.281 2.427.447 2.007.413 3.649-.866 3.798-2.893 1.369-18.705 2.743-37.409 4.106-56.114 1.487-20.403-.029-41.377-6.859-60.784-3.053-8.675-7.051-17.444-12.901-24.63-1.449-1.779-3.89-1.552-6.033-1.7-6.447-.445-12.908-.649-19.369-.73-12.338-.155-24.674.184-37.012.195-9.173.008-18.725.201-27.729-1.79-11.371-2.515-22.231-7.026-32.517-12.419-7.566-3.967-14.726-8.613-22.19-12.754-4.305-2.388-8.316-4.984-12.252-7.954-4.522-3.411-9.006-6.998-14.074-9.58-5.646-2.877-11.935-3.749-18.072-5.059-6.864-1.465-13.773-2.799-20.599-4.435-5.737-1.376-10.973-3.449-15.396-7.44-3.959-3.571-7.149-7.865-10.275-12.156-5.097-6.998-10.579-13.412-16.505-19.711-6.284-6.68-12.655-13.296-18.55-20.326-2.528-3.015-4.98-6.111-7.093-9.435-.842-1.325-1.612-2.686-2.289-4.102-.08-.167-.156-.338-.228-.508.019.044.169.414.045.097-.109-.278-.214-.558-.309-.841-.196-.588-.346-1.183-.46-1.792.152.817-.001-.59.012-.93.01-.251.036-.501.052-.751.057-.864-.069.246.06-.473.251-1.395.58-2.766.982-4.125.963-3.257 2.211-6.434 3.531-9.56 7.211-17.08 16.502-33.279 22.726-50.78 1.232-3.465 2.325-6.992 3.017-10.608.722-3.773-5.059-5.389-5.786-1.595-2.236 11.678-7.789 22.768-12.815 33.443-5.3 11.256-11.174 22.396-15.353 34.137-1.261 3.544-2.668 7.595-2.4 11.417.31 4.412 2.959 8.538 5.413 12.07 7.127 10.254 16.076 19.217 24.611 28.28 3.626 3.85 7.309 7.681 10.649 11.786 4.674 5.744 8.566 12.1 13.579 17.575 2.564 2.8 5.462 5.357 8.707 7.345 3.819 2.34 8.146 3.733 12.478 4.771 9.433 2.259 18.985 4.091 28.471 6.115 4.029.86 7.559 1.972 11.125 4.074 3.39 1.998 6.544 4.369 9.679 6.739 3.087 2.334 6.154 4.712 9.435 6.771 2.24 1.405 4.623 2.567 6.909 3.895 11.901 6.913 23.559 13.991 36.408 19.075 6.966 2.756 14.271 5.183 21.707 6.256 6.75.974 13.58 1.192 20.391 1.26 17.158.171 34.314-.565 51.469.05 4.424.159 8.845.406 13.257.768-.707-.293-1.414-.586-2.121-.879.12.135.247.271.352.417.121.168.259.332.393.49.361.427-.445-.598-.195-.253.112.154.232.304.345.458 1.19 1.624 2.298 3.302 3.332 5.029 3.82 6.381 6.431 12.576 8.662 19.569 3.529 11.059 5.384 22.586 5.939 34.169.758 15.827-1.076 31.697-2.23 47.466-.744 10.167-1.488 20.334-2.232 30.501 1.266-.964 2.532-1.929 3.797-2.893-8.136-1.673-16.572-1.863-24.85-1.841-10.873.03-21.741.623-32.589 1.301-23.606 1.477-47.197 3.638-70.854 4.124-9.743.2-19.562.173-29.253-.966-1.6-.188-3.422-.452-5.384-.825-2.353-.448-4.679-1.028-6.981-1.689-5.888-1.692-11.639-3.879-17.271-6.278-12.172-5.186-23.936-11.294-35.616-17.493-10.23-5.429-20.579-10.598-30.845-15.953-11.433-5.964-22.539-12.58-34.168-18.165-11.612-5.577-23.749-9.714-36.416-12.11-3.885-.735-7.795-1.313-11.717-1.816-1.61-.206-3 1.527-3 3 .004 1.788 1.39 2.788 3.004 2.995z"/><path d="m556.262 568.971c.133 1.768.172 3.538.037 5.308-.112 1.469-.237 2.145-.488 3.678-.542 3.311-.847 6.606-1.083 9.949-.086 1.208-.184 2.415-.302 3.621-.054.548-.112 1.095-.175 1.641-.036.31-.074.619-.112.929-.088.706.027-.139-.049.366-.303 2.006-.657 4.002-1.196 5.96-.246.891-.526 1.773-.854 2.637-.073.191-.151.38-.224.571-.066.171.246-.521-.014.024-.183.385-.359.773-.557 1.151-.382.732-.809 1.44-1.286 2.114-.108.153-.222.301-.331.453.26-.358.258-.316.006-.023-.283.329-.568.656-.871.967-.261.268-.532.526-.811.775-.141.125-.286.246-.429.369-.072.062-.149.118-.22.18-.295.255.476-.343.155-.119-.701.491-1.4.967-2.152 1.38-.362.199-.73.386-1.103.562-.192.091-.386.175-.579.264-.306.141.211-.087.22-.091-.17.068-.339.137-.51.203-.9.348-1.82.645-2.75.901-1.198.33-2.413.594-3.637.811-.317.056-.635.109-.953.159-.175.028-.925.138-.729.111.188-.026-.582.072-.767.094-.402.047-.805.09-1.208.129-3.341.328-6.701.425-10.057.429-3.861.005-3.867 6.005 0 6 9.601-.012 20.971-.337 28.677-6.892 6.574-5.592 7.886-14.96 8.609-23.042.299-3.344.4-6.759.914-9.977.62-3.885 1.126-7.648.83-11.592-.121-1.616-1.292-3-3-3-1.531 0-3.123 1.375-3.001 3z"/><path d="m432.972 797.757c10.801-16.54 17.282-35.519 23.647-54.085 6.357-18.542 12.282-37.099 22.44-53.878 2.705-4.468 5.592-8.593 8.81-12.362 3.356-3.932 7.079-7.536 11.153-10.72 1.278-.999 1.047-3.195 0-4.243-1.261-1.261-2.962-1.001-4.243 0-15.236 11.907-24.713 29.248-32.004 46.804-7.722 18.595-13.185 38.026-20.599 56.739-1.984 5.008-4.042 9.783-6.485 14.744-2.365 4.804-4.972 9.488-7.901 13.972-.886 1.357-.273 3.315 1.076 4.105 1.462.854 3.218.284 4.106-1.076z"/><path d="m512.326 666.105c3.746 8.169 9.515 15.407 15.592 21.958 7.291 7.859 15.47 14.878 24.09 21.236 17.276 12.74 36.623 22.734 56.94 29.634 9.535 3.238 19.283 5.777 29.101 7.993 1.444.326 3.428-.433 3.69-2.095 1.751-11.087 3.501-22.174 5.252-33.261.249-1.58.499-3.159.748-4.739.252-1.599-.41-3.227-2.095-3.69-1.426-.392-3.436.486-3.69 2.095-1.751 11.087-3.501 22.174-5.252 33.261-.249 1.58-.499 3.159-.748 4.739 1.23-.698 2.46-1.397 3.69-2.095-17.854-4.031-35.378-9.312-51.886-17.314-19.358-9.383-37.631-21.656-52.75-37.025-6.894-7.009-13.373-14.72-17.502-23.724-.675-1.473-2.805-1.836-4.105-1.076-1.512.883-1.753 2.625-1.075 4.103z"/><path d="m282.282 604.873c-15.722 22.346-28.948 46.304-39.512 71.499-9.313 22.211-16.43 45.265-22.124 68.651-2.708 11.122-5.109 22.317-7.355 33.541-.431 2.155-1.59 5.093.846 6.49.695.398 1.487.47 2.27.478 1.445.016 2.903-.15 4.341-.269 14.228-1.175 28.431-2.364 42.719-2.448 9.26-.055 18.542.275 27.745 1.338 3.996.462 8.37 1.146 12.754 2.112 4.064.896 8.087 2.02 11.978 3.503.503.192 1.001.394 1.501.593.101.04.533.222.02.005.243.103.486.208.727.315.872.385 1.732.793 2.583 1.221 1.447.728 3.251.383 4.105-1.076.779-1.333.377-3.374-1.076-4.105-7.47-3.757-15.631-5.93-23.843-7.333-9.149-1.563-18.433-2.268-27.705-2.496-15.593-.384-31.168.602-46.695 1.955-2.17.189-4.339.39-6.511.549-.68.05-1.362.099-2.044.122-.237.008-.474.006-.712.012-.431.011-.902-.227.294.075-.041-.01-.082-.016-.123-.029.502.151.881.361 1.254.734.287.695.574 1.389.861 2.084-.052.471-.05.545.006.221.441-1.37.584-2.936.869-4.349.549-2.72 1.107-5.438 1.677-8.154 1.164-5.543 2.376-11.075 3.657-16.592 5.334-22.977 11.907-45.684 20.552-67.646 9.583-24.343 21.772-47.632 36.259-69.414 1.915-2.879 3.871-5.731 5.861-8.559.933-1.326.239-3.335-1.076-4.105-1.498-.876-3.168-.252-4.103 1.077z"/><path d="m623.19 743.71c3.23 5.643 7.485 10.765 11.551 15.813 4.07 5.053 8.258 10.012 12.507 14.915.91 1.049 1.821 2.097 2.741 3.138.441-1.671.883-3.343 1.324-5.014-11.786 2.353-23.445 5.451-34.652 9.827-5.622 2.195-11.14 4.67-16.471 7.502-5.345 2.839-10.347 6.185-15.481 9.374-10.138 6.297-20.849 11.964-32.446 15.024-5.668 1.496-11.471 2.304-17.339 2.162-6.208-.15-12.192-1.599-18.176-3.145-6.168-1.594-12.315-3.064-18.682-3.594-6.591-.549-13.213-.278-19.809.025-11.126.511-22.125.463-33.23-.448-22.114-1.814-44.018-5.567-66.127-7.436-20.878-1.765-42.748-2.201-62.945 4.206-2.348.745-4.659 1.593-6.935 2.534 1.129 1.469 2.259 2.938 3.388 4.407 14.97-21.479 23.052-46.755 28.276-72.184 4.937-24.035 7.315-48.517 12.328-72.534 2.428-11.632 5.492-23.308 10.671-34.05 1.669-3.463-3.503-6.509-5.181-3.028-9.794 20.313-13.047 43.2-16.424 65.271-3.832 25.041-7.394 50.315-15.532 74.404-4.674 13.835-10.955 27.095-19.318 39.094-1.413 2.028.981 5.402 3.388 4.407 19.32-7.989 40.764-8.376 61.331-7.047 22.242 1.437 44.247 5.152 66.412 7.35 10.395 1.031 20.841 1.718 31.291 1.412 13.131-.385 26.124-1.649 39.058 1.378 6.155 1.44 12.215 3.333 18.479 4.271 6.098.912 12.16.886 18.262.033 11.889-1.662 23.164-6.472 33.612-12.23 5.334-2.939 10.415-6.253 15.563-9.497 5.081-3.201 10.38-6.048 15.833-8.561 10.736-4.948 22.086-8.508 33.578-11.219 2.946-.695 5.905-1.329 8.873-1.922 2.358-.471 2.707-3.45 1.324-5.014-7.037-7.958-13.97-16.08-20.349-24.578-1.953-2.602-3.893-5.247-5.512-8.075-1.918-3.35-7.105-.331-5.181 3.029z"/><path d="m640.92 782.354c27.417 38.255 56.718 75.383 80.121 116.333 11.337 19.837 21.24 40.574 28.127 62.395 3.357 10.636 5.996 21.504 7.737 32.522 1.876 11.869 2.197 23.742 2.533 35.727.505 18.004 1.181 36.132 3.747 53.981 1.014 7.053 2.319 14.231 5.373 20.725.715 1.52 1.575 2.954 2.401 4.414.371.656.71 1.323 1.052 1.994.48.94-.053-.258.19.432.151.428.31.85.443 1.284.874 2.858.872 3.784 1.049 6.468.683 10.362.476 20.842.581 31.222.51 50.312.146 100.627 6.846 150.605.899 6.705 1.903 13.394 3.007 20.068.101-.771.202-1.541.302-2.312 1.144-1.527.146-.183.111-.226.009.011-.416.368-.442.39-.347.293.593-.376-.213.154-1.762 1.16-4.206 2.431-5.697 3.064-11.06 4.695-23.36 6.783-35.162 8.555-21.151 3.177-42.606 4.895-63.883 7.053-7.594.77-15.199 1.567-22.822 1.994-6.48.363-12.628-.66-19.015-1.845-7.38-1.369-14.779-3.071-21.817-5.721-1.883-.709-3.778-1.384-5.659-2.625.495.864.991 1.727 1.486 2.59 4.801-36.532 6.413-73.46 4.747-110.27-.829-18.31-2.469-36.579-4.897-54.746-1.095-8.194-1.819-16.829-4.994-24.542-1.469-3.57-3.487-6.707-6.064-9.578-2.526-2.814-5.37-5.348-7.219-8.694-5.91-10.697-2.84-24.39-4.513-36.03-.827-5.754-2.866-11.401-7.061-15.572-2.343-2.329-5.209-3.952-8.091-5.51-2.889-1.562-6.106-3.127-7.871-6.03-1.939-3.19-1.786-7.217-1.944-10.816-.166-3.801-.652-7.562-1.686-11.231-2.116-7.51-6.016-14.406-10.363-20.832-4.401-6.507-9.25-12.698-13.678-19.189-4.404-6.454-8.611-13.041-12.717-19.688-16.911-27.382-32.021-55.954-50.668-82.234-2.171-3.06-4.398-6.078-6.68-9.055-2.317-3.023-7.531-.038-5.181 3.028 19.35 25.241 34.534 53.38 50.848 80.594 8.018 13.375 16.26 26.655 25.471 39.25 4.65 6.357 9.418 12.661 13.088 19.656 3.789 7.223 5.26 14.309 5.674 22.381.383 7.467 2.625 13.28 9.15 17.358 5.423 3.39 11.138 5.459 13.905 11.697 2.265 5.106 2.422 10.966 2.551 16.455.147 6.242.064 12.51 1.149 18.683 1.163 6.617 4.09 12.017 8.661 16.903 2.659 2.842 5.253 5.532 6.984 9.069 1.817 3.712 2.736 7.834 3.459 11.88 3.189 17.836 4.804 36.101 5.988 54.167 2.685 40.977 1.303 82.183-4.047 122.896-.138 1.049.681 2.059 1.486 2.59 4.455 2.94 10.244 4.465 15.31 5.866 11.569 3.199 23.801 5.827 35.842 5.044 15.616-1.016 31.189-2.926 46.746-4.584 17.304-1.844 34.707-3.26 51.804-6.619 8.72-1.713 17.55-3.814 25.658-7.543 2.349-1.081 5.215-2.42 6.933-4.444 1.516-1.786.624-4.136.284-6.241-.801-4.976-1.543-9.961-2.223-14.954-1.266-9.294-2.301-18.62-3.147-27.961-1.612-17.799-2.485-35.654-2.946-53.517-.463-17.963-.534-35.933-.66-53.901-.109-15.592.363-31.389-.727-46.948-.249-3.557-.763-7.067-2.208-10.347-.918-2.084-2.191-3.974-3.225-5.998-.325-.635-.624-1.281-.914-1.933-.293-.659.193.481-.007-.017-.069-.173-.142-.344-.207-.518-.163-.436-.331-.869-.486-1.308-.782-2.216-1.387-4.492-1.905-6.783-1.814-8.014-2.658-16.24-3.35-24.415-1.317-15.566-1.819-31.197-2.155-46.811-.349-16.162-2.6-32.23-6.591-47.893-8.141-31.951-23.027-61.826-40.184-89.825-17.727-28.931-38.036-56.159-58.056-83.516-4.789-6.544-9.563-13.1-14.287-19.691-2.231-3.114-7.437-.121-5.182 3.026z"/><path d="m433.086 900.157c12.236-3.973 24.326-8.386 36.228-13.272 5.591-2.295 11.172-4.643 16.66-7.174 4.068-1.876 8.184-4.542 9.251-9.209 1.931-8.448-7.578-15.413-15.224-15.086-9.558.409-15.836 9.681-19.954 17.214-12.618 23.083-24.604 46.536-36.894 69.796-12.433 23.53-24.865 47.06-37.298 70.59-24.644 46.641-50.354 92.851-72.084 140.947-10.047 22.237-20.339 44.263-32.101 65.655-11.094 20.177-22.947 39.922-34.627 59.761-23.174 39.364-45.923 79.517-59.942 123.208-1.717 5.351-3.289 10.746-4.729 16.179.698-.698 1.397-1.397 2.095-2.095-.274.068-.619.185-.899.173-.944-.039.333-.017-.544.073-.643.066-1.286.12-1.931.157-3.685.207-7.415-.033-11.063-.572-15.361-2.267-29.748-8.949-43.031-16.73-26.912-15.763-51.616-35.325-74.474-56.483-4.759-4.405-9.493-8.866-13.993-13.539.156 1.212.313 2.424.469 3.635 33.276-75.799 66.552-151.598 99.829-227.397 7.817-17.807 15.072-36.14 25.419-52.679 5.058-8.086 10.888-15.665 15.793-23.85 4.732-7.897 8.209-16.395 10.995-25.153 6.1-19.172 10.923-38.818 16.278-58.209 5.387-19.507 11.166-38.958 15.831-58.653 2.494-10.53 4.536-21.179 5.669-31.948.974-9.26.273-18.546 1.171-27.777.745-7.659 2.316-15.262 4.129-22.732 1.671-6.887 3.49-13.926 6.322-20.443 1.523-3.506-3.644-6.564-5.181-3.028-5.238 12.053-8.224 25.387-10.247 38.329-1.047 6.701-1.252 13.149-1.291 19.909-.057 9.858-1.139 19.678-2.858 29.377-3.506 19.777-9.312 39.09-14.652 58.427-5.459 19.768-10.917 39.535-16.377 59.303-2.635 9.542-5.193 19.192-9.139 28.296-3.671 8.469-8.781 16.12-13.992 23.701-5.486 7.98-10.678 16.046-15.112 24.668-4.289 8.339-8.059 16.93-11.828 25.512-16.641 37.898-33.276 75.799-49.914 113.699-18.675 42.54-37.351 85.081-56.026 127.621-.554 1.263-.534 2.594.469 3.635 13.45 13.965 28.289 26.781 43.447 38.834 13.836 11.002 28.233 21.345 43.399 30.444 13.856 8.314 28.756 15.652 44.775 18.594 6.371 1.17 13.728 2.179 20.153.591 1-.247 1.833-1.108 2.095-2.095 11.211-42.277 31.328-81.297 53.033-119.028 21.986-38.22 45.632-75.545 64.538-115.448 10.509-22.18 20.076-44.781 31.109-66.714 11.281-22.425 23.232-44.518 34.958-66.712 23.681-44.819 47.363-89.639 71.044-134.458 5.92-11.205 11.841-22.41 17.761-33.615 4.037-7.641 8.575-20.094 17.89-22.688 3.683-1.026 8.167.908 10.15 4.157 2.793 4.576-2.632 7.276-6.129 8.872-11.096 5.064-22.451 9.6-33.911 13.767-5.667 2.061-11.373 4.012-17.108 5.875-3.659 1.19-2.094 6.986 1.593 5.788z"/><path d="m388.687 641.621c-4.454 11.417-7.974 23.173-10.535 35.158-2.24 10.483-3.751 21.101-4.99 31.744-2.31 19.841-3.7 39.306-8.981 58.635-3.287 12.031-7.999 23.566-13.994 34.5-1.857 3.388 3.322 6.419 5.181 3.028 5.505-10.04 10.023-20.623 13.346-31.583 2.94-9.699 4.92-19.652 6.37-29.675 2.953-20.414 4.068-40.909 8.039-61.085 2.628-13.353 6.403-26.446 11.349-39.127.589-1.51-.648-3.293-2.095-3.69-1.699-.467-3.099.579-3.69 2.095z"/><path d="m357.726 203.509c16.177 11.619 31.483 24.443 45.677 38.419 11.991 11.806 23.436 24.698 33.434 37.929 8.378 11.087 16.077 22.707 22.829 34.857 2.749 4.947 5.34 9.984 7.726 15.116.537 1.155 1.063 2.314 1.578 3.479.249.562.495 1.126.738 1.69.112.261.224.522.335.784.042.099.224.529.054.128-.186-.44.097.232.132.317.861 2.066 1.685 4.147 2.46 6.247 2.29 6.202 4.142 12.574 5.285 19.091 1.501 8.554 1.571 17.564 1.155 26.367-.123 2.606-.288 5.21-.473 7.813-.115 1.618 1.461 3 3 3 1.719 0 2.885-1.377 3-3 .674-9.514 1.111-19.103.103-28.611-.842-7.944-2.63-15.718-5.222-23.272-3.329-9.7-7.669-19.07-12.483-28.116-6.411-12.046-13.784-23.577-21.827-34.596-10.041-13.755-21.112-26.751-33.034-38.909-13.955-14.231-29.071-27.291-45.032-39.223-2.12-1.585-4.257-3.148-6.407-4.692-1.317-.946-3.341-.229-4.105 1.076-.883 1.512-.243 3.158 1.077 4.106z"/><path d="m515.253 247.564c-.251 8.123-1.457 15.125-3.531 23.186-2.459 9.557-5.8 18.872-9.41 28.047-2.54 6.457-5.237 12.85-8.002 19.214-.645 1.485-.438 3.219 1.076 4.105 1.269.742 3.456.418 4.105-1.076 4.793-11.031 9.453-22.144 13.387-33.516 2.961-8.558 5.514-17.299 6.988-26.246.748-4.537 1.245-9.116 1.387-13.714.119-3.862-5.881-3.858-6-0z"/><path d="m380.312 599.587c10.1-15.145 20.575-30.035 30.699-45.163 2.275-3.4 4.521-6.819 6.718-10.269.871-1.367.284-3.309-1.076-4.105-1.447-.846-3.232-.294-4.105 1.076-8.672 13.616-18.024 26.791-27.106 40.133-3.461 5.084-6.899 10.183-10.311 15.299-.899 1.348-.263 3.321 1.076 4.105 1.471.86 3.203.275 4.105-1.076z"/><path d="m413.571 607.901c2.86-4.989 6.13-9.745 9.326-14.523 4.623-6.91 9.235-13.828 13.681-20.854 3.032-4.791 5.99-9.627 8.867-14.513 1.964-3.334-3.22-6.357-5.181-3.028-8.555 14.526-18.072 28.392-27.28 42.499-1.585 2.429-3.151 4.873-4.593 7.39-1.924 3.357 3.258 6.382 5.18 3.029z"/><path d="m546.456 294.967c7.571 15.679 12.926 32.358 16.019 49.49 2.986 16.543 3.788 33.426 3.137 50.207-.374 9.63-1.232 19.236-2.421 28.798-.2 1.611 1.522 3 3 3 1.788 0 2.799-1.385 3-3 2.134-17.153 3.185-34.47 2.336-51.749-.851-17.325-3.596-34.599-8.66-51.203-2.988-9.798-6.776-19.347-11.23-28.57-.704-1.459-2.785-1.848-4.105-1.076-1.49.87-1.783 2.638-1.076 4.103z"/><path d="m625.902 267.454c-2.562-7.771-3.471-15.942-5.841-23.753-.829-2.733-1.925-5.848-4.184-7.748-2.085-1.753-5.105-2.946-7.841-2.96-6.926-.036-8.971 7.308-9.026 12.968-.044 4.523.699 9.048.847 13.572.119 3.633.071 7.274-.214 10.899-.057.721-.123 1.441-.198 2.16-.038.365-.079.73-.122 1.095-.021.178-.043.356-.065.534-.01.079-.104.804-.048.384.041-.307-.065.455-.088.619-.048.329-.098.657-.149.985-.099.629-.204 1.258-.313 1.885-.394 2.252-.864 4.489-1.268 6.739-.399 2.222-.736 4.467-.876 6.721-.017.271-.031.543-.042.814-.005.125.015.993.038.367-.038 1.039-.262 2.075-.299 3.121-.066 1.86.107 3.707.397 5.544.996 6.319 4.292 12.068 8.1 17.105 1.776 2.348 3.662 4.604 5.538 6.872.376.455.751.91 1.121 1.37.188.233.372.47.56.703.093.116.346.454-.069-.092.107.14.214.28.319.421.59.788 1.16 1.598 1.645 2.455.11.194.211.393.315.59.068.128.311.715.111.213-.215-.538.047.158.081.265.06.19.083.418.157.601.17.417.009-.777-.03-.219-.013.187.007.391.007.579 0 .538-.009 1.076-.018 1.614-.053 3.029-.177 6.057-.317 9.083-.396 8.553-.958 17.1-1.692 25.631-.185 2.153-.384 4.305-.597 6.456-.16 1.615 1.493 3 3 3 1.755 0 2.84-1.381 3-3 .838-8.46 1.459-16.943 1.943-25.43.204-3.572.383-7.146.517-10.721.089-2.367.268-4.78.161-7.149-.198-4.38-3.889-8.108-6.521-11.276-.829-.998-1.661-1.994-2.478-3.003-1.097-1.355-1.357-1.677-2.331-3.015-1.746-2.397-3.342-4.915-4.601-7.605-.399-.854-.337-.699-.684-1.621-.265-.705-.505-1.419-.715-2.143-.213-.732-.395-1.472-.545-2.22-.071-.353-.134-.707-.191-1.062-.099-.616-.038-.262-.021-.126-.032-.259-.058-.52-.081-.78-.267-3.029.04-5.444.297-8.348.044-.496.104-.989.159-1.483.077-.702-.075.459.011-.085.041-.261.076-.523.117-.784.16-1.026.347-2.049.54-3.069.417-2.2.862-4.396 1.225-6.606 1.054-6.421 1.437-12.891 1.201-19.393-.159-4.389-.875-8.781-.833-13.17.008-.853.048-1.708.146-2.556-.052.45.068-.415.092-.541.068-.36.147-.718.242-1.072.088-.326.197-.641.302-.962.215-.653-.153.178.104-.237.13-.21.232-.438.364-.648.072-.114.153-.222.226-.335.184-.284-.444.398-.044.082.14-.11.364-.297.462-.446.181-.275-.493.227-.184.147.073-.019.152-.107.221-.141.09-.044.217-.107.304-.166.234-.158.326.051-.242.099.193-.016.48-.12.668-.189.339-.124-.661-.007.088.001.216.002.436.013.651.011.713-.007-.428-.131.074.004.301.081.607.133.907.222.246.073.483.168.727.245.137.043.514.229-.079-.041.144.065.291.127.432.199.528.273 1.034.57 1.549.865.323.185-.415-.416-.172-.124.081.097.193.172.277.268.2.225.439.569.12.099.348.514.666 1.034.941 1.591.075.152.367.811.274.587-.099-.238.198.526.251.671.276.76.518 1.532.741 2.308.497 1.725.904 3.476 1.292 5.228.881 3.98 1.656 7.984 2.65 11.938.506 2.013 1.071 4.01 1.721 5.981.507 1.538 2.072 2.54 3.69 2.095 1.506-.411 2.605-2.142 2.096-3.687z"/><path d="m620.973 280.073c5.861-7.049 9.334-15.976 11.697-24.743 2.04-7.57 3.286-15.454 2.967-23.307-.304-7.469-.836-14.925-1.059-22.398-.133-4.463-.19-8.932-.072-13.396.055-2.1.15-4.2.308-6.294.074-.977.162-1.953.269-2.927.049-.441.101-.882.157-1.322-.068.527-.005.039.009-.058.042-.278.082-.556.126-.834.326-2.053.383-4.296 1.717-5.584.554-.535-.027-.118-.045.018.014-.106.482-.34.569-.396.233-.15.475-.277.714-.416.744-.432-.51.082.221-.107.251-.065.532-.124.775-.211.494-.177-.515-.068-.236.032.109.039.37.003.49-.008.311-.027.464.212-.22-.041.149.055.343.103.497.131.444.08-.136-.036-.221-.096.147.103.331.203.491.288-.578-.308-.225-.21-.043-.019.156.164.319.321.472.49.303.334-.348-.603.065.094.144.243.303.475.439.723.546.99.893 2.133 1.23 3.435.966 3.735 6.755 2.152 5.786-1.595-1.069-4.131-3.28-8.92-8.083-9.372-2.664-.251-5.137 1.088-7.1 2.77-1.75 1.499-2.552 3.662-2.925 5.878-.371 2.206-.701 4.423-.932 6.647-.453 4.357-.578 8.747-.591 13.126-.027 8.77.46 17.528.936 26.282.145 2.661.33 5.33.331 7.997.002 4.492-.529 8.42-1.383 12.71-1.07 5.377-2.592 10.68-4.616 15.777-.871 2.195-1.963 4.53-3.168 6.715-.615 1.114-1.269 2.207-1.973 3.268-.321.484-.652.961-.995 1.429-.427.583-.308.425-.844 1.07-1.035 1.245-1.22 3.023 0 4.243 1.062 1.066 3.199 1.253 4.24.001z"/><path d="m668.969 239.149c-.125-14.8-3.75-29.322-4.099-44.125-.143-6.078-.187-12.21-.923-18.254-.417-3.426-.92-7.263-3.027-10.127-1.95-2.651-4.791-3.764-8.013-3.923-5.902-.292-8.919 5.867-10.103 10.798-.742 3.088-.636 6.192-.59 9.344.045 3.113.139 6.227.316 9.336.259 4.541.746 9.055 1.377 13.559.253 1.806.526 3.609.783 5.414.067.471.132.942.197 1.414.082.59-.064-.505.012.093.034.265.069.53.103.795.126.998.243 1.996.35 2.996.59 5.549.841 11.127.938 16.705.035 1.992.048 3.984.049 5.976.002 3.861 6.002 3.867 6 0-.006-10.396-.566-20.672-2.062-30.96-.248-1.705-.502-3.408-.733-5.115.118.872-.069-.541-.097-.767-.058-.464-.115-.928-.169-1.392-.115-.991-.221-1.983-.315-2.976-.523-5.51-.714-11.047-.767-16.579-.03-3.148-.109-4.696.72-7.455.407-1.356.596-1.867 1.249-3.038.144-.259.295-.513.457-.761.025-.039.583-.788.193-.307.167-.207.346-.406.534-.594.12-.12.245-.236.374-.346-.287.211-.294.222-.022.033.117-.057.805-.465.108-.106.051-.026.749-.178.253-.1-.404.064.518.019.689.026.302.012.605.058.906.064.568.01-.771-.168-.23-.032.176.044.362.063.54.103.257.058.506.138.759.21.843.241-.464-.315.094.033.17.106.356.208.533.302.744.395-.423-.478.168.131.173.179.341.382.523.55.374.347-.393-.648-.147-.19.063.117.156.227.228.34.155.244.284.5.423.753.073.134.123.28.195.414-.454-.845-.084-.21.001.031.537 1.52.852 3.085 1.109 4.673.02.124.129.928.029.169.033.254.065.508.095.763.063.541.119 1.082.17 1.624.114 1.219.202 2.44.275 3.662.191 3.177.29 6.359.372 9.54.212 8.233.914 16.345 2 24.507 1.006 7.565 2.11 15.141 2.174 22.788.033 3.86 6.033 3.87 6.001.001z"/><path d="m665.787 181.074c.298-.505.603-1.034.971-1.481.187-.227.396-.433.605-.638.083-.081.624-.476.241-.218.156-.105.319-.195.483-.285-.485.266-.064.011.122-.018.449-.071-.698-.081.029-.007.664.068-.487-.279.125.006.694.322-.375-.23.066-.008.187.094.365.197.542.309.103.065.409.344.022.008.176.152.342.313.503.479.529.546 1.05 1.355 1.558 2.375.842 1.69 1.459 4.139 1.601 6.092.215 2.973.387 5.948.633 8.919.783 9.456 2.071 18.882 2.465 28.368.235 5.652.104 11.306-.314 16.947-.12 1.618 1.465 3 3 3 1.723 0 2.88-1.378 3-3 .773-10.434.246-20.752-.796-31.145-.569-5.669-1.153-11.336-1.581-17.017-.443-5.892-.4-12.124-4-17.15-1.611-2.248-3.908-4.197-6.826-4.183-3.497.016-5.995 2.841-7.632 5.62-1.961 3.333 3.223 6.355 5.183 3.027z"/><path d="m680.562 202.468c-.336.263.164-.108.249-.163.2-.128.395-.261.6-.381.155-.091.312-.179.472-.261.001 0 .768-.332.336-.166-.42.162.312-.089.323-.092.133-.034.313-.064.445-.114.643-.245-.439.008-.037-.006.243-.008.498.011.738-.008.22-.017.471.164-.183-.03.13.038.272.047.4.093.181.065.755.342.059-.017.124.064.258.115.376.191.106.068.25.167.368.223.595.282-.372-.418.103.069.275.282.559.567.84.843.555.546-.199-.299.086.093.131.181.258.364.38.552.233.358.446.728.647 1.105.216.404.419.818.6 1.239-.166-.386.098.254.13.339.12.32.237.641.347.965.825 2.437 1.302 4.959 1.69 7.496 1.69 11.041 3.225 22.124 3.956 33.276.347 5.299.517 10.621.286 15.928-.17 3.913-.533 7.821-.755 11.732-.194 3.417-.394 6.835-.744 10.24-.085.833-.18 1.665-.284 2.495-.028.22-.056.44-.085.66.016-.118.086-.592-.002-.003-.073.489-.142.978-.219 1.466-.282 1.784-.619 3.559-1.016 5.32-1.971 8.738-5.358 16.704-9.581 24.528-1.417 2.625-2.911 5.208-4.463 7.755-.697 1.145-1.166 2.126-1.394 3.415-.364 2.054-.56 4.143-.721 6.221-1.04 13.446-.912 27.012-1.018 40.489-.101 12.895.098 25.849-.637 38.728-.05.872-.109 1.744-.187 2.614-.145 1.616 1.483 3 3 3 1.743 0 2.855-1.379 3-3 .446-4.968.484-9.982.569-14.966.124-7.252.167-14.506.22-21.759.105-14.275.01-28.604.897-42.858.075-1.206.161-2.412.27-3.616.042-.47.088-.939.139-1.408.026-.24.053-.48.082-.719.014-.114.029-.228.042-.342.075-.655-.117.732-.028.211.117-.688.182-1.399.378-2.071.068-.234.189-.315.055-.071.389-.709.848-1.387 1.264-2.082.795-1.327 1.573-2.663 2.332-4.01 4.749-8.428 8.826-17.361 11.166-26.777 1.758-7.076 2.431-14.34 2.858-21.601.226-3.845.498-7.684.75-11.527.35-5.347.243-10.72-.057-16.067-.654-11.635-2.235-23.208-3.972-34.723-1.085-7.193-3.561-21.342-13.913-19.474-2.056.371-3.787 1.519-5.401 2.782-1.277 1-1.048 3.195 0 4.243 1.262 1.262 2.964 1.003 4.244.001z"/><path d="m43.621 1344.892c-5.822 8.586-14.209 15.908-21.951 23.148-7.148 6.684-14.98 13.856-19.039 22.955-1.895 4.248-2.977 8.853-2.532 13.526.541 5.679 2.771 10.786 6.338 15.211 3.644 4.521 8.457 8 13.107 11.405 5.405 3.958 10.761 7.902 15.702 12.442 5.248 4.822 10.083 10.055 15.101 15.109 4.154 4.183 8.532 8.385 13.706 11.291-.359-.359-.717-.718-1.076-1.076 3.005 4.881 8.477 8.234 14.106 9.107 2.771.43 5.617.381 8.239-.709 2.76-1.147 4.576-3.161 5.721-5.889-1.469.598-2.938 1.195-4.407 1.793 4.423 2.904 9.711 5.053 15.089 4.343 4.644-.613 8.405-3.328 10.892-7.244-1.571.202-3.141.405-4.712.607 4.525 4.176 10.352 6.099 16.449 5.1 3.648-.598 8.7-2.81 9.585-6.857-1.671.441-3.343.883-5.014 1.324 7.357 7.185 20.611 6.094 25.499-3.379-1.129.459-2.259.919-3.388 1.379 7.562 2.073 18.956 1.285 22.762-6.84 1.939-4.14 1.58-9.355-1.1-13.103-2.805-3.924-7.119-6.216-11.6-7.736-2.373-.805-4.822-1.376-7.289-1.804-.374-.065-.787-.179-1.166-.191-.027-.001-.617-.092-.286.033-.386-.145-.772-.534-1.118-.767-.87-.586-1.751-1.155-2.637-1.717-3.81-2.419-7.688-4.729-11.44-7.239-4.342-2.903-8.499-6.056-12.324-9.62-2.233-2.08-4.351-4.283-6.328-6.607-.348-.409-.692-.821-1.03-1.238-.138-.17-.842-1.078-.353-.435-.41-.54-.813-1.086-1.197-1.646-1.77-2.579-3.101-5.403-4.392-8.243-2.267-4.986-4.555-9.956-7.002-14.857-.723-1.449-2.772-1.856-4.105-1.076-1.476.863-1.802 2.65-1.076 4.104 2.2 4.408 4.291 8.865 6.32 13.353 1.146 2.534 2.264 5.096 3.659 7.506 4.446 7.683 11.405 13.993 18.369 19.342 3.751 2.881 7.697 5.487 11.705 7.994 1.8 1.126 3.611 2.234 5.408 3.363 1.555.978 3.043 2.109 4.622 3.04 1.106.652 2.673.655 3.928.898 1.243.241 2.479.521 3.701.853 2.272.617 4.166 1.271 6.094 2.3 1.905 1.017 2.932 1.713 4.318 3.368-.335-.4.25.353.348.506.247.385.461.785.661 1.195-.244-.5.015.029.061.17.072.219.148.436.21.658.05.179.095.361.135.542.032.146.134.858.076.329.066.598.078 1.204.045 1.804-.011.2-.025.401-.049.599.073-.588-.057.218-.085.339-.062.269-.136.536-.223.798-.045.138-.372.836-.094.277-.195.391-.421.754-.643 1.13-.403.681.385-.367-.155.209-.176.188-.343.381-.527.562-.15.148-1.07.863-.583.528-.438.301-.882.584-1.352.833-.159.084-.323.158-.482.242-.47.247.249-.059-.42.178-.986.348-1.982.629-3.012.815-.239.043-.479.084-.719.117.532-.071-.251.017-.371.027-.542.048-1.087.075-1.631.084-1.092.018-2.186-.038-3.27-.167-.557-.067.696.134-.226-.036-.288-.053-.576-.099-.864-.156-.564-.113-1.122-.25-1.677-.402-1.224-.335-2.784.208-3.388 1.379-.495.96-.863 1.545-1.391 2.126-.336.369-.694.711-1.071 1.037-.396.342.542-.362-.202.159-.158.111-.319.219-.482.322-.406.257-.828.484-1.26.693-.483.234.095-.023-.205.087-.223.082-.447.162-.675.233-.408.128-.824.234-1.243.32-.233.048-.467.092-.702.126.441-.063.021-.009-.195.005-.906.055-1.809.053-2.712-.053.534.063-.533-.108-.752-.158-.464-.106-.922-.233-1.373-.384-.225-.075-.448-.155-.669-.241.293.114.125.058-.067-.031-.427-.199-.845-.417-1.25-.659-.202-.12-.396-.252-.594-.377-.081-.051-.596-.422-.187-.11-.371-.283-.713-.605-1.046-.93-1.543-1.507-4.52-.936-5.014 1.324-.015.067-.037.279-.091.338-.099.106.062-.618.09-.24.008.109-.19.24-.214.341-.041.173.454-.428.091-.133-.213.174-.423.399-.617.595-.238.24.502-.316.035-.025-.155.097-.302.206-.457.304-.296.186-.605.344-.912.511-.082.045-.825.366-.185.105-.159.065-.319.126-.48.184-.862.313-1.751.529-2.654.686.321-.055.161-.012-.068.009-.247.022-.494.045-.742.059-.509.029-1.019.033-1.529.012-.262-.011-.522-.029-.783-.051-.494-.043-.021.011-.316-.037-.488-.079-.973-.185-1.451-.312-2.109-.563-4.007-1.654-5.723-3.237-1.454-1.342-3.648-1.067-4.712.607-.74 1.165-1.81 2.33-2.787 2.969-.336.22-.684.422-1.042.605-.178.091-.359.182-.544.26.298-.125.013-.014-.127.033-.388.13-.778.25-1.176.344-.202.048-.405.089-.609.127-.499.092.004.013-.301.039-3.985.339-7.726-1.357-11.185-3.628-1.798-1.18-3.707.125-4.407 1.793.219-.521-.1.134-.201.303-.059.1-.457.667-.246.395.218-.279-.308.314-.395.404-.081.085-.175.157-.26.237-.289.272.572-.325-.041.033-.203.119-.395.255-.602.37-.115.063-.843.383-.505.255.335-.127-.336.1-.443.132-.319.096-.642.167-.967.236-.692.147.19.027-.344.053-.263.013-.524.038-.787.045-.635.017-1.263-.024-1.896-.077-.595-.05-.158-.022-.032-.001-.139-.023-.279-.044-.417-.071-.326-.065-.653-.128-.976-.207-.659-.159-1.309-.355-1.947-.585-.276-.099-.553-.202-.823-.318.418.178-.372-.186-.495-.247-.62-.306-1.224-.646-1.807-1.018-.291-.186-.576-.379-.857-.58-.005-.004-.392-.293-.167-.12.252.195-.22-.183-.269-.225-.515-.442-1.01-.904-1.468-1.406-.225-.247-.449-.499-.653-.764.279.362-.125-.199-.2-.313-.595-.897-1.231-1.452-2.137-1.991-1.216-.722-2.386-1.526-3.51-2.385.275.21-.312-.247-.391-.31-.294-.235-.584-.474-.873-.714-.592-.494-1.175-1-1.75-1.514-1.208-1.079-2.382-2.196-3.538-3.33-2.474-2.427-4.867-4.934-7.281-7.42-5.482-5.646-11.099-11.157-17.328-15.986-5.686-4.408-11.822-8.279-17.104-13.136-2.315-2.128-4.152-4.154-5.667-6.73-.834-1.419-1.296-2.405-1.78-3.869-.24-.726-.445-1.463-.616-2.208-.079-.346-.152-.693-.216-1.042-.033-.178-.153-.944-.126-.745.027.205-.055-.542-.07-.733-.023-.28-.041-.56-.054-.841-.031-.691-.029-1.382.005-2.073.013-.273.032-.546.055-.818.016-.185.11-.995.031-.418.086-.626.204-1.249.344-1.865.281-1.241.663-2.458 1.125-3.643.059-.151.316-.756.119-.305.13-.298.264-.594.403-.887.282-.595.582-1.18.898-1.757 2.731-4.985 6.127-8.743 10.208-12.88 8.857-8.979 18.912-16.845 26.682-26.855 1.008-1.299 1.987-2.615 2.91-3.976.91-1.342.256-3.325-1.076-4.104-1.477-.865-3.19-.268-4.102 1.076z"/><path d="m702.65 1341.599c8.434 7.7 16.819 15.511 25.763 22.623 6.307 5.016 12.93 9.685 20.314 12.987 7.323 3.274 15.049 5.226 22.952 6.49 2.79.446 5.356 1.162 8 2.166 2.925 1.111 5.847 2.173 9.007 2.327 1.267.062 2.526.037 3.789.193-.415-.051.106.016.158.025.304.048.606.104.908.166.565.117 1.124.257 1.676.426.426.131.845.281 1.26.444-.61-.24.5.25.64.324.345.182.682.379 1.008.592.188.122.367.258.554.382.502.331-.376-.385.075.067.293.294.619.553.907.856.166.175.922 1.161.425.452.431.614.833 1.234 1.165 1.908.061.125.108.292.19.404.087.12-.236-.655-.001.01.113.319.228.635.325.959.181.603.307 1.215.426 1.832.018.095.026.194.046.288.11.519-.077-.866-.017-.105.02.257.049.512.065.769.026.427.037.854.029 1.282-.007.385-.02.774-.071 1.157.137-.505.273-1.009.41-1.514-1.668 3.226-4.077 5.484-7.335 7.123-1.361.684-3.05 1.228-4.782 1.544-1.16.212-3.569.268-4.68.109-4.458-.64-8.123-3.562-12.48-4.533-5.215-1.163-9.912.856-14.86 2.17-16.579 4.404-33.593-2.045-49.354-7.215-8.354-2.741-16.802-5.408-25.53-6.655-4.58-.654-9.175-.974-13.801-.713-5.343.302-10.639 1.192-15.904 2.112-8.758 1.53-18.1 3.25-26.724 1.78-7.214-1.229-14.363-4.289-18.311-10.4-.994-1.538-1.301-2.226-1.759-3.929-.104-.385-.194-.775-.272-1.166-.019-.096-.202-1.229-.132-.699-.114-.871-.157-1.755-.164-2.633-.026-3.634.632-6.713 1.71-10.341 2.243-7.554 5.816-14.513 9.448-21.526.781-1.509 1.566-3.016 2.338-4.53.736-1.443.378-3.254-1.076-4.104-1.339-.783-3.366-.373-4.105 1.076-2.924 5.734-5.987 11.4-8.56 17.305-2.759 6.331-5.168 12.934-5.677 19.878-.477 6.507 1.437 12.509 5.883 17.325 4.592 4.974 11.115 7.922 17.664 9.263 7.619 1.56 15.215 1.054 22.853-.09 8.684-1.3 17.295-3.396 26.121-3.423 14.818-.045 28.964 5.567 42.894 10.035 13.965 4.479 28.878 8.264 43.484 4.584 3.715-.936 7.662-2.975 11.584-2.45 3.768.504 7.06 2.97 10.645 4.09 6.434 2.011 13.927.557 19.354-3.366 2.734-1.977 5.63-4.727 6.864-7.95.298-.779.33-1.71.331-2.548.007-3.174-.757-6.47-2.413-9.196-2.63-4.329-7.229-6.762-12.147-7.48-1.833-.267-3.646-.221-5.481-.389-1.785-.162-3.547-.8-5.221-1.415-1.847-.678-3.667-1.439-5.557-1.993-1.589-.466-3.216-.678-4.845-.946-5.209-.855-10.388-1.982-15.397-3.665-1.141-.383-2.273-.795-3.393-1.236-.238-.094-.475-.189-.712-.285-.158-.064-.315-.129-.472-.194.037.015.447.191.129.055-.547-.234-1.091-.474-1.631-.722-2.191-1.004-4.326-2.127-6.404-3.347-2.208-1.296-4.35-2.7-6.441-4.177-1.083-.764-2.151-1.548-3.209-2.347-1.064-.804-1.851-1.42-3.093-2.417-5.442-4.367-10.661-9.009-15.843-13.679-3.109-2.801-6.2-5.621-9.291-8.443-1.196-1.092-3.06-1.182-4.243 0-1.114 1.108-1.207 3.146-.006 4.243z"/><path d="m567.254 47.458c-.404-.507.351.494.462.658.266.394.518.796.762 1.204.535.896 1.024 1.819 1.488 2.753 1.032 2.08 1.854 4.031 2.687 6.109 1.82 4.542 3.468 9.151 5.387 13.653.414.971.845 1.933 1.299 2.886.084.176.312.363.032.066.024.088.047.177.071.265-.025-.303-.032-.342-.02-.12.042.157-.074.744.033.17-.052.279-.129.566-.24.827.214-.504-.62.819-.346.492-.269.32-.626.642-.741.725-1.15.83-2.397.907-3.607 1.945-1.344 1.153-2.414 3.157-2.236 4.961.108 1.092.333 2.174.573 3.243 1.757 7.813 4.155 15.505 6.423 23.179 1.573 5.322 3.173 10.635 4.786 15.945.821 2.702 1.646 5.404 2.473 8.104.411 1.343.714 2.816 1.261 4.108.021.068.042.136.063.204.052.261.078.272.077.033-.004.072-.008.144-.012.215.067-.413.081-.506.04-.279-.078.349-.508 1.184-.096.51-.126.205-.72 1.022-.159.376-.196.226-.393.447-.613.65-.125.115-.256.222-.385.332.539-.455.245-.178.105-.098-.376.212-.726.459-1.111.658-.166.086-.993.457-.657.318.332-.138-.531.194-.712.256-.768.265-1.553.483-2.343.672-2.238.537-4.639.603-6.835 1.274-2.071.633-2.754 2.626-3.497 4.468-.752 1.862-1.239 3.806-1.657 5.766-.821 3.846-1.443 7.703-1.941 11.602-1.082 8.465-1.859 16.646-3.219 24.833-.688 4.138-1.494 8.269-2.634 12.309-.508 1.802-1.106 3.567-1.783 5.312-.209.539-.041.104.005-.003-.1.231-.201.461-.306.689-.152.331-.31.66-.474.985-.493.972-1.047 1.915-1.62 2.841-.262.425-.532.845-.812 1.258-.109.161-.759 1.063-.504.732-.557.72-1.183 1.368-1.863 1.97-.341.302.588-.344-.034.026-.128.076-.248.169-.374.247-.17.105-1.212.576-.452.289-.342.129-.685.243-1.04.328-.144.034-.294.054-.437.09-.663.168.589.018-.116.006-.409-.007-.816.033-1.227.018-.199-.007-1.414-.122-.819-.044-1.048-.136-2.087-.381-3.109-.646-2.761-.714-5.486-1.591-8.188-2.501-9.543-3.215-18.809-7.245-28.855-8.659-2.945-.415-5.897-.677-8.87-.764-3.862-.113-3.859 5.887 0 6 5.513.162 10.91.955 16.231 2.412 4.822 1.32 9.503 3.09 14.199 4.792 5.066 1.835 10.227 3.789 15.513 4.889 4.131.859 8.152.73 11.549-2.017 2.983-2.411 5.164-6.207 6.689-9.68 1.62-3.689 2.733-7.551 3.615-11.476 2.014-8.958 3.031-18.124 4.095-27.233.23-1.971.459-3.942.703-5.911.056-.453.113-.905.172-1.358.02-.157.198-1.476.099-.757.11-.797.223-1.593.346-2.388.641-4.119 1.295-8.494 2.905-12.361-.187.448.298-.622.37-.767.103-.206.304-.463.353-.683-.084.375-1.445 1.258-.925.957-.389.225-.807.234-.324.169.22-.03.443-.099.662-.141 1.158-.219 2.33-.365 3.49-.57 3.1-.548 6.433-1.336 9.027-3.206 1.561-1.126 2.823-2.545 3.442-4.399.861-2.582-.211-4.95-.968-7.42-1.69-5.514-3.37-11.032-5.03-16.555-2.753-9.16-5.533-18.326-7.941-27.584-.353-1.356-.698-2.716-1.001-4.084-.108-.485-.212-.972-.3-1.462-.031-.171-.044-.351-.087-.519.079.311.027.77.035.206.001-.058-.008-.117-.01-.175 0-.011-.001-.021-.001-.032-.064.551-.035.615.087.192.04.246-.084.177.069-.075-.241.399.244-.154.055-.067.957-.442 2.154-.86 3.105-1.569 2.147-1.6 3.843-4.055 3.863-6.823.009-1.293-.362-2.363-.903-3.515-.413-.878-1.015-2.212-1.257-2.789-.93-2.216-1.784-4.464-2.644-6.708-1.774-4.628-3.503-9.316-5.766-13.734-.956-1.866-2.049-3.607-3.356-5.246-1.011-1.268-3.188-1.055-4.243 0-1.253 1.251-1.014 2.97-.001 4.241z"/><path d="m430.106 66.546c-3.373 8.703-6.708 17.421-9.944 26.176-1.655 4.479-3.285 8.968-4.876 13.47-1.208 3.417-2.283 6.894-3.596 10.272-.191.492-.394.979-.592 1.469-.199.492.23-.529-.076.179-.136.314-.271.629-.409.942-.529 1.203-1.079 2.398-1.642 3.586-1.38 2.916-2.837 5.796-4.338 8.651-3.656 6.957-7.579 13.778-11.726 20.454-4.906 7.899-10.118 15.649-15.921 22.921-1.01 1.265-1.236 3.007 0 4.243 1.047 1.047 3.227 1.273 4.243 0 10.445-13.087 19.372-27.424 27.293-42.158 2.954-5.496 5.784-11.074 8.197-16.831 1.135-2.708 2.034-5.495 2.997-8.268 1.584-4.56 3.214-9.104 4.872-13.637 3.657-10 7.456-19.947 11.304-29.875.586-1.511-.645-3.292-2.095-3.69-1.697-.465-3.103.579-3.691 2.096z"/><path d="m561.882 79.679c-2.378-.993-4.955-1.506-7.485-1.941-2.961-.509-5.956-.88-8.952-1.103-2.589-.193-5.411-.426-7.735.969-.89.534-1.596 1.277-2.347 1.977-.062.058-.709.592-.381.35.329-.242-.343.196-.422.245-.119.068-.24.131-.365.189.217-.089.222-.095.014-.019-.395.135-.795.232-1.203.32-1.585.341-2.507 2.192-2.095 3.69.45 1.638 2.101 2.437 3.69 2.095 2.471-.531 4.207-1.866 5.984-3.567.142-.136-.513.263.062-.04.08-.042.73-.347.36-.21-.4.148.308-.065.387-.084.505-.121-.084-.058.479-.054 1.195.008 2.38.052 3.573.14 4.91.365 10.128.861 14.842 2.83 1.496.625 3.3-.674 3.69-2.095.475-1.73-.594-3.065-2.096-3.692z"/><path d="m496.779 199.549c-3.437 12.859-7.721 25.432-11.71 38.122-1.228 3.907-2.406 7.829-3.534 11.766-1.065 3.719 4.723 5.307 5.786 1.595 3.597-12.565 7.955-24.886 11.71-37.402 1.243-4.144 2.417-8.308 3.534-12.487.998-3.733-4.788-5.326-5.786-1.594z"/><path d="m561.988 100.708c-.654-7.905-9.783-8.285-15.87-7.518-.638.08-1.276.171-1.912.268-.171.026-.344.048-.515.079-.289.052.433-.02.185-.025-.377-.007.596.181.653.206-.74-.329-1.612-.215-2.052.538-.374.639-.206 1.722.538 2.052.812.361 1.65.09 2.492-.034.157-.023.831-.112.402-.058.294-.037.587-.074.882-.107.682-.075 1.365-.134 2.05-.171.738-.04 1.478-.056 2.218-.039.37.008.74.025 1.109.051.198.014.395.031.592.051.08.008.601.072.337.035.767.106 1.529.269 2.266.507.157.051.311.106.466.163.323.118-.003-.015.22.088.35.161.69.342 1.012.552.092.06.497.372.287.197.136.113.267.23.393.354.141.139.276.286.401.44.146.18-.125-.177.007.015.064.093.127.186.185.282.382.624.596 1.381.653 2.072.067.807.642 1.5 1.5 1.5.761.002 1.568-.686 1.501-1.498z"/><ellipse cx="556.498" cy="100.405" rx="5.092" ry="4.494" transform="matrix(.992 -.1262 .1262 .992 -8.2204 71.0048)"/></g><path d="m561.678 103.86c-4.115-.864-11.423-2.87-16.766-4.301 1.428 7.548 9.915 7.752 16.841 7.941-.467-1.417-1.087-2.709-.075-3.64z" fill="#fff"/><path d="m547.459 125.472c-.785 0-1.583-.133-2.365-.414-8.063-2.895-13.413-7.052-16.734-9.927-2.923-2.529-3.242-6.95-.712-9.874s6.951-3.241 9.874-.712c2.684 2.322 6.508 5.256 12.305 7.337 3.638 1.306 5.529 5.314 4.223 8.953-1.028 2.858-3.72 4.637-6.591 4.637z" fill="#ff89d8" opacity=".5"/><path d="m577.474 146.491c-6.872-2.446-2.879-.558-6.561-2.437-8.141-4.154-18.581-7.553-26.838-11.974-7.048-3.773-10.343-3.902-15.879 3.541-5.169 6.95-7.179 15.664-13.636 21.934-6.033 5.858-16.679 15.353-25.346 9.638-9.122-6.015-10.614-11.497-13.581-27.009-1.564-8.18-2.318-19.021-2.173-27.308.105-6.017-7.198-1.396-25.956-12.502-7.033 8.936 10.578 7.472 12.764 18.906 1.483 7.756-2.234 36.137-7.584 49.994-3.999 10.357-9.878 23.923-2.565 34.148 7.317 10.231 29.463 5.849 41.341 6.593 11.937.748 21.317 1.226 32.732 5.626 10.039 3.869 23.939 12.49 33.955 5.401 11.114-7.867 10.654-26.273 13.198-37.782 1.208-5.461 6.129-36.769 6.129-36.769z" fill="#1b1464"/><path d="m535.35 147.488c-.1 6.224.701 13.147 4.125 18.511 1.554 2.434 3.633 4.311 6.266 5.511 1.134.517 2.32.994 3.546 1.241.938.189 2.226.447 3.161.056 1.494-.624 2.564-1.986 2.095-3.69-.387-1.41-2.186-2.724-3.69-2.095-.445.186.907.031.061-.041-.327-.028.71.177.171.024-.206-.059-.429-.087-.638-.139-.455-.113-.898-.26-1.34-.413-.173-.06-.588-.225-.205-.064-.273-.114-.542-.245-.805-.379-.452-.23-.894-.482-1.318-.763-.006-.004-.727-.553-.373-.258-.193-.161-.378-.33-.556-.507-.175-.174-.335-.361-.503-.543-.586-.634.232.389-.266-.334-.323-.469-.63-.943-.908-1.44-1.091-1.947-1.748-4.148-2.222-6.577-.512-2.618-.647-5.34-.602-8.1.063-3.863-5.937-3.864-5.999 0z" fill="#fff"/><path d="m468.387 85.914c-1.001 2.484-2.002 4.967-3.004 7.451-.145.359-.289.717-.434 1.076-.272.674-.048 1.713.302 2.312.364.622 1.078 1.216 1.793 1.379.768.175 1.63.137 2.312-.302.698-.45 1.07-1.028 1.379-1.793 1.001-2.484 2.002-4.967 3.004-7.451.145-.359.289-.717.434-1.076.272-.674.048-1.713-.302-2.312-.364-.622-1.078-1.216-1.793-1.379-.768-.175-1.63-.137-2.312.302-.698.45-1.07 1.028-1.379 1.793z" fill="#1b1464"/><path d="m461.98 119.345c-10.399.69-27.023 1.802-34.428 1.041-11.422-1.173-15.243-13.137-19.497-25.465-5.418-15.702 3.097-40.996 8.218-56.432 11.08-33.397 52.771-41.569 83.263-37.546 27.245 3.594 45.32 9.071 64.779 30.287 8.157 8.893 13.746 17.319 16.986 28.94-11.45-3.384-21.947-6.427-34.179-7.509-15.553-1.375-29.27-4.64-43.946-9.18 9.339 21.402-21.109 39.164-27.999 33.91-2.265-10.099-10.656-27.056-30.913-13.15-13.738 9.431-5.543 34.436 16.435 42.452 3.272 1.194-1.464 11.288 1.281 12.652z" fill="#1b1464"/><path d="m416.13 46.493c-5.056-1.63-14.116-4.231-24.766-1.349-2.868.776-5.692 1.678-8.559 2.456-9.583 2.599-20.227.002-28.114-6.031s-13.075-15.23-15.088-24.953c-1.11-5.361-1.237-11.224 1.418-16.011 1.377 6.832 5.689 13.021 11.62 16.679s13.169 1.68 19.892-.157c4.953-1.353 9.475-2.644 14.758-1.973 9.062 1.15 14.673 6.978 21.321 13.242 4.272 4.025 9.472 8.02 9.472 8.02z" fill="#1b1464"/><path d="m492.615 226.496c1.795 1.339 3.635 2.614 5.47 3.898 1.794 1.256 3.892 2.744 5.415 3.931 4.517 3.52 8.569 7.556 12.123 12.046 1.006 1.271 3.19 1.052 4.243 0 1.256-1.256 1.009-2.968 0-4.243-3.631-4.587-7.78-8.669-12.396-12.258-3.844-2.989-7.924-5.645-11.826-8.554-1.3-.969-3.351-.212-4.105 1.076-.896 1.53-.227 3.132 1.076 4.104z" fill="#1b1464"/><path d="m153.952 1449.823c-.077-.238-.131-.478-.165-.726.036.266.071.532.107.797-.04-.345-.038-.687.003-1.032-.036.266-.071.532-.107.798.057-.42.169-.825.331-1.217-.101.239-.202.478-.302.717.169-.391.382-.757.64-1.096-.156.202-.313.405-.469.607.246-.315.524-.597.837-.846-.202.156-.405.313-.607.469.295-.227.61-.416.951-.565-.239.101-.478.202-.717.302.323-.134.654-.227 1.001-.276.69-.098 1.459-.808 1.793-1.379.376-.643.536-1.591.302-2.312-.235-.726-.685-1.426-1.379-1.793-.239-.101-.478-.202-.717-.302-.532-.143-1.063-.143-1.595 0-.875.125-1.769.503-2.49 1.011-.966.681-1.739 1.445-2.369 2.454-1.081 1.73-1.465 4.024-.833 5.982.238.739.699 1.395 1.379 1.793.643.376 1.591.536 2.312.302.726-.235 1.426-.685 1.793-1.379s.551-1.537.301-2.309z" fill="#1b1464"/><path d="m134.735 1456.537c.014-.037.029-.074.045-.11-.101.239-.202.478-.302.717.097-.217.217-.417.361-.606-.156.202-.313.405-.469.607.159-.201.339-.379.538-.539-.202.156-.405.313-.607.469.252-.194.524-.352.816-.476-.239.101-.478.202-.717.302.295-.12.6-.203.916-.249-.266.036-.532.071-.798.107.295-.037.588-.041.883-.006-.266-.036-.532-.071-.798-.107.273.037.536.106.791.211-.239-.101-.478-.202-.717-.302.164.071.319.155.468.253.63.414 1.6.498 2.312.302.696-.192 1.45-.73 1.793-1.379.368-.696.552-1.54.302-2.312-.248-.766-.701-1.347-1.379-1.793-.863-.568-1.824-.779-2.832-.88-.256-.026-.511-.023-.766.005-.491.053-1.016.105-1.493.26-.982.319-1.781.786-2.554 1.464-.77.675-1.211 1.535-1.58 2.466-.125.399-.143.797-.054 1.196.018.399.137.771.356 1.115.364.622 1.078 1.216 1.793 1.379.768.175 1.63.137 2.312-.302.202-.156.405-.313.607-.469.374-.374.631-.815.773-1.323z" fill="#1b1464"/><path d="m113.583 1458.842c.11-.095.221-.187.335-.276-.202.156-.405.313-.607.469.492-.374 1.022-.682 1.59-.926-.239.101-.478.202-.717.302.572-.235 1.163-.397 1.775-.485-.266.036-.532.071-.798.107.386-.048.771-.053 1.157-.002-.266-.036-.532-.071-.798-.107.261.041.512.107.756.209-.239-.101-.478-.202-.717-.302.154.071.297.154.433.255-.202-.156-.405-.313-.607-.469.109.089.206.184.296.292-.156-.202-.313-.405-.469-.607.052.069.098.138.143.213.39.652 1.058 1.176 1.793 1.379.718.198 1.674.108 2.312-.302.641-.413 1.204-1.028 1.379-1.793.178-.783.119-1.607-.302-2.312-1.211-2.024-3.552-2.698-5.774-2.4-2.054.276-3.86 1.159-5.423 2.512-.556.481-.879 1.408-.879 2.121 0 .736.327 1.615.879 2.121.572.525 1.322.914 2.121.879.828-.036 1.494-.334 2.122-.878z" fill="#1b1464"/><path d="m90.61 1460.389c.049-.04.098-.079.148-.118-.202.156-.405.313-.607.469.405-.306.842-.555 1.308-.754-.239.101-.478.202-.717.302.5-.204 1.017-.344 1.551-.421-.266.036-.532.071-.798.107.567-.074 1.134-.076 1.701-.002-.266-.036-.532-.071-.798-.107.502.073.988.203 1.458.396-.239-.101-.478-.202-.717-.302.029.012.058.025.087.037.344.219.716.338 1.115.356.399.089.798.071 1.196-.054.696-.192 1.45-.73 1.793-1.379.368-.696.552-1.54.302-2.312-.223-.69-.68-1.493-1.379-1.793-.484-.208-.966-.431-1.474-.573-.39-.109-.785-.163-1.186-.216-.862-.116-1.637-.113-2.498.002-.964.13-1.769.391-2.666.777-.773.333-1.409.812-2.064 1.342-.561.453-.879 1.433-.879 2.121 0 .736.327 1.615.879 2.121.572.525 1.322.915 2.121.879.266-.036.532-.072.798-.107.51-.142.951-.399 1.326-.771z" fill="#1b1464"/><path d="m47.762 1369.143c-3.913 2.164-6.497 6.477-6.511 10.957-.014 4.479 2.583 8.802 6.478 10.977 1.37.765 3.338.375 4.105-1.076.747-1.414.387-3.287-1.076-4.104-.329-.184-.634-.395-.951-.595-.288-.181.327.308-.078-.07-.122-.113-.248-.221-.368-.337-.3-.289-.577-.598-.84-.921.172.212.181.255.023.005-.111-.176-.229-.347-.335-.527-.192-.323-.36-.656-.52-.996.178.379.074.177-.02-.095-.055-.157-.105-.315-.152-.475-.105-.362-.17-.726-.25-1.093.141.642.018.1.006-.069-.014-.208-.022-.416-.022-.624 0-.166.006-.333.015-.499.005-.089.099-.775.024-.345-.068.39.038-.147.052-.215.043-.203.092-.405.148-.605.045-.16.094-.319.147-.476.001-.004.282-.712.118-.34-.165.375.165-.32.165-.32.077-.148.157-.294.241-.438.105-.18.216-.356.332-.529.075-.112.44-.563.049-.097.241-.288.486-.568.754-.831.119-.117.24-.23.365-.34.206-.182.412-.317.072-.078.342-.24.69-.461 1.055-.664 1.374-.76 1.94-2.765 1.076-4.104-.895-1.392-2.632-1.889-4.102-1.076z" fill="#1b1464"/><path d="m178.243 1020.798c-5.102 15.554-7.02 31.998-6.831 48.325.192 16.607 2.461 33.138 5.415 49.456 1.659 9.164 3.555 18.282 5.478 27.393.335 1.586 2.196 2.506 3.69 2.095 1.643-.452 2.431-2.1 2.095-3.69-3.345-15.846-6.653-31.74-8.676-47.819-2.009-15.961-2.814-32.169-1.023-48.192.986-8.82 2.872-17.541 5.638-25.974.505-1.539-.587-3.276-2.095-3.69-1.63-.447-3.184.551-3.691 2.096z" fill="#1b1464"/><path d="m770.147 1106.719c-2.204 9.314-4.992 18.346-9.717 26.552-.877 1.523-1.819 3.01-2.833 4.446-.25.354-.504.704-.762 1.052-.123.166-.678.88-.299.399-.505.639-1.019 1.269-1.552 1.885-1.84 2.123-3.867 4.076-6.04 5.856-.266.218-.535.432-.805.647-.04.032-.576.448-.18.142.388-.3-.274.207-.341.257-.531.4-1.069.791-1.611 1.175-1.159.821-2.341 1.609-3.53 2.385-1.355.885-1.923 2.657-1.076 4.105.788 1.348 2.742 1.965 4.105 1.076 4.7-3.067 9.233-6.429 13.016-10.604 5.325-5.877 9.097-12.847 12.019-20.179 2.274-5.707 3.98-11.625 5.394-17.598.886-3.756-4.898-5.358-5.788-1.596z" fill="#1b1464"/><path d="m501.839 646.389c2.552-11.54 10.84-21.778 21.786-26.258 1.128-.462 1.995-1.202 2.149-2.494.138-1.159-.366-2.402-1.432-2.989-6.856-3.775-13.627-7.781-20.596-11.342-1.529-.781-3.376-1.1-5.063-1.346-2.31-.337-4.705-.442-6.959.272-3.63 1.15-7.457 3.351-10.119 6.094-1.762 1.817-3.164 4.095-4.679 6.121-1.688 2.257-3.376 4.515-5.064 6.772s-3.376 4.515-5.064 6.772c-.983 1.314-2.17 2.609-2.999 4.022-.9 1.532-1.141 3.608-1.042 5.334.237 4.148 2.198 7.843 4.712 11.063 4.481 5.74 10.756 10.042 16.987 13.669 2.207 1.285 4.582 2.904 7.043 3.626 1.906.56 3.976.672 5.951.549 4.56-.284 9.002-1.519 13.439-2.518 2.093-.471 4.245-.947 6.338-1.169 1.944-.206 3.731-.201 5.46-1.239 3.034-1.823 5.09-5.113 6.415-8.306.552-1.329.988-2.75 1.011-4.204.034-2.147-1.208-3.353-2.622-4.796-3.884-3.965-7.698-7.998-11.544-12-1.935-2.014-3.879-4.018-5.841-6.006-2.717-2.752-6.959 1.491-4.243 4.243 3.677 3.725 7.287 7.516 10.906 11.298 1.808 1.889 3.618 3.775 5.443 5.648.402.413.805.825 1.209 1.237.231.236.463.472.695.707.169.172.653.948.356.315-.092-.196-.409-1.03-.299-.461-.208-1.074-.127-.166-.076.078.071.345.161-.592.032-.229-.045.127-.053.275-.084.408-.059.256-.129.51-.207.761-.097.314-.213.619-.327.927-.196.531-.049.111 0 .005-.094.205-.188.409-.288.611-.309.627-.653 1.237-1.029 1.826-.203.317-.416.628-.638.931.307-.418-.397.469-.49.571-.208.23-.424.453-.649.665-.139.131-.89.672-.361.33-.261.17-.539.316-.799.484-.189.122-.448.081.109-.044-.136.031-.273.079-.407.116-.509.142.093-.021.186-.023-.253.006-.509.026-.762.044-.516.037-1.031.087-1.544.147-1.188.139-2.374.31-3.551.52-4.241.755-8.387 1.963-12.627 2.72-1.689.301-3.397.507-5.252.434-1.519-.059-2.832-.575-4.541-1.495-6.526-3.512-12.627-7.28-17.54-12.696-.417-.459-.817-.932-1.21-1.412-.093-.113-.182-.229-.273-.344.006.008.34.45.144.182-.183-.25-.367-.497-.543-.751-.559-.804-1.072-1.641-1.516-2.514-.099-.195-.192-.392-.286-.589-.056-.116-.313-.738-.101-.214.218.539-.058-.162-.096-.266-.074-.199-.144-.4-.209-.602-.208-.646-.302-1.307-.471-1.96-.109-.421.07.876.04.299-.007-.141-.029-.282-.039-.423-.019-.262-.028-.524-.027-.787.001-.223.017-.443.026-.666.038-.927-.14.586-.02.059.074-.325.124-.651.222-.972.034-.112.08-.221.111-.333.152-.557.05.444-.186.424.018.002.082-.194.107-.221 1.66-1.781 3.009-4.025 4.469-5.976 3.177-4.249 6.355-8.498 9.532-12.748 1.175-1.571 2.134-3.128 3.56-4.383.587-.516.774-.652 1.57-1.187.818-.55 1.664-1.058 2.534-1.522 1.28-.683 2.525-1.311 3.823-1.467 1.847-.221 4.305.287 6.327.845-.361-.1-.265-.156-.053-.056.182.087.357.196.533.294.643.354 1.287.709 1.93 1.063 2.031 1.119 4.062 2.237 6.094 3.356 3.758 2.07 7.517 4.139 11.275 6.209.24.132.481.265.721.397.239-1.828.478-3.655.717-5.483-12.934 5.293-22.941 16.723-25.976 30.449-.35 1.581.477 3.246 2.095 3.69 1.5.413 3.335-.507 3.687-2.096z" fill="#1b1464"/><path d="m547.733 617.355c.746.652 1.545 1.219 2.237 1.936.224.232.424.486.645.721.467.496-.271-.386-.01-.02.11.154.222.306.328.463.254.376.488.765.705 1.163.107.196.21.395.308.596.082.169.162.339.238.51-.111-.27-.098-.235.038.105 1.522 3.992 1.69 8.634 1.463 12.872-.019.351-.043.702-.077 1.051-.019.198-.045.396-.065.594.094-.896.035-.239-.003-.047-.121.62-.246 1.234-.445 1.834-.049.148-.119.296-.16.445-.148.548.366-.624.063-.157-.131.202-.219.439-.344.647-.122.204-.271.39-.395.591.525-.859.016-.051-.223.183-.21.206-.935.674-.093.131-.205.132-.397.284-.605.413-.216.134-.438.258-.665.374-.14.072-.291.131-.428.207-.436.243.721-.255-.047.017-1.358.48-2.737.833-4.153 1.1-.945.179-1.896.328-2.848.464-.26.037-.52.073-.78.109.685-.093-.292.037-.426.054-.627.08-1.254.157-1.881.232-2.855.342-5.712.662-8.565 1.017-1.608.2-3 1.236-3 3 0 1.466 1.381 3.202 3 3 5.061-.63 10.164-1.07 15.193-1.929 3.216-.549 6.516-1.379 9.066-3.524 2.495-2.099 3.414-5.235 3.761-8.358.208-1.872.19-3.762.107-5.641-.129-2.932-.338-5.917-1.155-8.748-.76-2.635-2.006-5.064-3.791-7.148-.822-.959-1.809-1.678-2.752-2.502-1.219-1.066-3.043-1.2-4.243 0-1.086 1.091-1.223 3.174.002 4.245z" fill="#1b1464"/><path d="m531.667 645.987c1.444-4.55.807-9.404.198-14.051-.343-2.618-1.074-5.074-2.48-7.332-1.345-2.16-3.09-4.054-4.837-5.891-2.666-2.804-6.904 1.444-4.243 4.243 2.762 2.904 5.168 5.729 5.668 9.842.465 3.825 1.092 7.861-.092 11.595-1.17 3.688 4.62 5.267 5.786 1.594z" fill="#1b1464"/><path d="m557.994 646.775c3.861 0 3.867-6 0-6-3.861 0-3.867 6 0 6z" fill="#1b1464"/><path d="m555.666 646.073c2.602 3.037 4.575 5.616 6.833 8.623 2.802 3.732 5.538 7.513 8.26 11.303 5.567 7.752 11.048 15.569 16.756 23.219 2.724 3.651 5.487 7.286 8.452 10.746 1.055 1.231 3.159 1.083 4.243 0 1.22-1.22 1.057-3.008 0-4.243-2.602-3.037-4.575-5.616-6.833-8.623-2.802-3.732-5.538-7.513-8.26-11.303-5.567-7.752-11.048-15.569-16.757-23.219-2.724-3.651-5.487-7.286-8.452-10.746-1.055-1.231-3.159-1.083-4.243 0-1.22 1.221-1.056 3.009.001 4.243z" fill="#1b1464"/><path d="m623.009 430.619c13.991-.325 27.982-1.185 41.877-2.885 7.547-.923 15.093-2.03 22.525-3.65 1.117-.243 2.236-.489 3.34-.787 1.393-.377 2.05-1.563 2.203-2.893.668-5.834 2.27-12.316 4.416-18.086.928-2.495 1.991-4.897 3.442-7.286.327-.539.671-1.068 1.037-1.581.099-.139.501-.649.185-.259.189-.233.381-.463.581-.686.32-.356.663-.683 1.013-1.01.082-.077.172-.144.256-.218-.012.01-.451.319-.178.14.202-.132.396-.272.605-.393 1.661-.958 3.466-1.751 5.208-2.551.473-.217.949-.426 1.426-.635.313-.138-.118.048-.149.062.115-.048.231-.096.347-.144.276-.112.552-.224.829-.333 1.075-.421 2.164-.807 3.263-1.162 2.828-.913 5.72-1.62 8.629-2.225 1.68-.349 3.367-.677 5.061-.951.227-.037.454-.071.682-.105.116-.017.232-.034.348-.049-.022.003-.562.068-.209.031.521-.054 1.04-.115 1.562-.151 1.12-.077 2.23-.063 3.347.039-.616-.056-.064-.006.217.052.253.052.505.111.752.184.128.037.838.295.45.135-.386-.159.275.147.391.214.285.166.645.571.223.121.162.172.337.337.501.508.224.233-.147-.183-.154-.196.068.124.158.236.223.362.05.097.098.195.149.291.182.341-.136-.481-.05-.085.06.275.148.549.211.825-.131-.577.01.183.017.414.029.896-.019 1.279-.147 1.98-.29 1.592.435 3.234 2.095 3.69 1.456.4 3.399-.493 3.69-2.095.584-3.211.551-6.54-1.599-9.186-1.567-1.928-3.947-2.811-6.342-3.13-2.516-.336-5.003-.081-7.501.297-3.444.522-6.879 1.244-10.25 2.12-5.029 1.306-9.76 3.264-14.406 5.567-2.124 1.053-3.922 2.257-5.416 4.136-1.921 2.417-3.385 5.103-4.61 7.93-3.224 7.439-5.223 15.372-6.145 23.42.734-.964 1.468-1.929 2.202-2.893-3.358.908-6.81 1.53-10.231 2.136-1.91.339-3.825.652-5.743.946-1.113.17-2.227.334-3.342.491-.596.084-1.192.167-1.788.247.511-.069-.176.023-.342.044-.34.045-.681.089-1.021.132-5.919.757-11.859 1.353-17.807 1.823-8.61.679-17.239 1.088-25.872 1.288-3.856.089-3.87 6.089-.001 6z" fill="#1b1464"/><path d="m726.298 400.253c.627-.268-.467.19-.038.017.175-.07.349-.143.524-.213.34-.136.682-.269 1.024-.401.902-.347 1.81-.679 2.719-1.005 1.889-.676 3.79-1.322 5.695-1.951 3.81-1.259 7.64-2.463 11.492-3.589 1.222-.357 2.447-.716 3.683-1.025.415-.104.831-.199 1.252-.275.055-.01.593-.084.162-.032.206-.025.415-.042.622-.055.495-.032.993-.038 1.489-.012.19.01.379.027.568.043-.644-.057.287.057.421.086.384.084.763.188 1.135.316.001 0 .763.315.346.127-.413-.187.307.167.31.169.279.16.545.343.823.501.633.358-.366-.407.139.105.162.165.345.31.507.475.106.108.203.235.313.336.526.485-.22-.34.027.017.194.28.38.561.542.86.09.165.17.335.252.504.188.39-.16-.676-.008.015.079.356.185.744.296 1.092.218.687-.025-.452.01-.007.018.23.037.46.041.691.005.244-.134 1.488.001.728-.078.441-.174.875-.309 1.304-.063.2-.134.396-.207.592.185-.497-.02.029-.12.223-.205.4-.443.779-.688 1.154-.479.732.212-.234-.122.181-.215.266-.444.521-.681.767-.893.926-1.332 1.244-2.45 1.935-1.263.78-1.832 2.37-1.227 3.746.548 1.247 2.128 2.291 3.539 1.737.583-.229 1.174-.435 1.778-.602.269-.074.539-.141.811-.2.178-.039.357-.072.536-.107.061-.012.625-.099.266-.05-.315.043.4-.035.521-.043.3-.021.602-.034.903-.036.584-.004 1.168.029 1.747.1-.539-.066-.105-.012.16.047.271.06.542.118.81.19.226.061.45.128.672.202.152.05.938.366.607.218-.361-.162.259.135.356.185.23.119.457.245.678.379.187.114.363.248.551.358.376.221-.342-.333.244.191.317.283.614.578.904.888.095.102.179.214.271.318-.005-.005-.34-.468-.153-.195.136.199.275.395.4.601.124.205.229.42.346.63.288.517-.023-.119.026.034.148.463.287.911.391 1.386.148.681.028-.38.014.135-.006.211.022.426.02.638-.001.217-.027.433-.03.649-.006.532.006-.035.026-.139-.029.148-.048.297-.083.444-.119.499-.266.98-.437 1.463-.113.319.05-.114.065-.147-.054.115-.105.231-.163.343-.161.311-.323.619-.505.918-.167.275-.346.542-.529.806-.043.062-.336.443-.053.083-.123.157-.253.309-.383.46-.527.608-1.099 1.177-1.7 1.712-1.371 1.22-2.988 2.225-4.673 3.149-2.906 1.596-.919 6.728 2.312 5.483.865-.333 1.741-.632 2.64-.859.407-.103.818-.177 1.228-.266.369-.057.397-.066.082-.025.189-.023.377-.042.567-.057.706-.056 1.4-.035 2.105.006.636.037-.486-.161.156.028.29.086.594.129.886.216.186.056 1.039.449.294.075.246.123.493.24.729.381.185.111.834.666.204.099.192.173.388.335.567.522.132.137.251.285.377.427-.573-.648-.046-.023.066.167.128.217.232.443.342.669-.391-.804-.042-.036.017.175.07.248.108.501.167.751-.208-.876-.019-.067-.011.181.008.235.004.471-.009.706-.012.223-.178.952.005.129-.127.571-.296 1.118-.445 1.682-.12.31-.105.283.048-.081-.063.142-.128.284-.197.423-.15.283-.294.568-.459.843-.171.286-.362.557-.547.834-.446.666.383-.396-.168.213-.497.55-.99 1.088-1.547 1.58-.937.829-2.407 1.731-3.924 2.461-1.182.568-1.709 2.185-1.379 3.388.365 1.329 1.567 2.113 2.893 2.202.157.011.363.076.515.054-.883.129-.588-.086-.09.003.31.055.618.12.924.194.576.139 1.133.322 1.693.513.178.061.753.356.006-.009.18.088.365.167.544.258.369.188.714.405 1.066.623.157.097.63.546.066.032.103.094.222.178.32.278.19.195.917 1.161.527.522.196.321.389.63.56.967-.334-.656-.008.001.032.16.06.241.119.48.174.721-.158-.697.004.117.01.253.013.286.009.572-.006.858-.011.201-.026.407-.053.606.094-.693-.018.001-.055.116-.115.361-.216.721-.349 1.077.255-.681-.06.105-.11.205-.163.329-.341.651-.529.966-1.215 2.044-2.827 3.729-4.777 5.416-2.14 1.851-4.581 3.291-6.973 4.788-4.487 2.81-9.01 5.576-13.72 8.002-9.368 4.824-19.512 7.875-30.19 7.566-3.018-.087-6.016-.409-8.983-.965-1.563-.293-3.116-.64-4.657-1.034-.977-.25-2.069-.73-3.083-.73-1.049 0-2.174.447-3.187.69-6.323 1.516-12.693 2.821-19.093 3.964-12.925 2.309-25.936 4.066-38.745 6.995-1.58.361-2.511 2.177-2.095 3.69.446 1.622 2.106 2.458 3.69 2.095 15.022-3.435 30.331-5.266 45.438-8.252 4.955-.979 9.885-2.079 14.789-3.29-.532 0-1.063 0-1.595 0 8.958 2.555 18.253 3.528 27.502 2.257 7.766-1.067 15.152-3.754 22.141-7.25 3.413-1.707 6.726-3.606 9.991-5.58 3.389-2.049 6.884-4.057 10.084-6.393 5.5-4.015 12.637-10.984 10.092-18.596-1.659-4.964-6.948-7.438-11.875-7.771.505 1.863 1.009 3.727 1.514 5.59 5.154-2.479 9.676-7.021 10.184-12.958.419-4.898-2.923-9.288-7.674-10.389-3.447-.799-7.053-.153-10.308 1.101.771 1.828 1.541 3.655 2.312 5.483 5.647-3.101 11.952-8.523 11.407-15.663-.426-5.585-4.817-9.896-10.162-11.123-3.409-.783-7.014-.461-10.263.815.771 1.828 1.541 3.655 2.312 5.483 4.108-2.537 7.294-6.512 7.539-11.481.202-4.091-2.02-8.001-5.485-10.114-3.782-2.307-8.264-2.06-12.379-.941-3.905 1.062-7.771 2.278-11.622 3.519-4.676 1.507-9.361 3.047-13.881 4.981-1.49.638-1.822 2.83-1.076 4.105.904 1.54 2.612 1.716 4.108 1.076z" fill="#1b1464"/><path d="m740.457 412.061c.214.101.413.224.6.368-.202-.156-.405-.313-.607-.469.213.17.401.363.57.577-.156-.202-.313-.405-.469-.607.188.247.341.513.463.798-.101-.239-.202-.478-.302-.717.117.287.199.583.243.89-.036-.266-.071-.532-.107-.798.036.288.038.576.002.864.036-.266.071-.532.107-.798-.026.18-.066.356-.121.529-.125.399-.143.798-.054 1.196.018.399.137.771.356 1.115.189.35.446.63.773.842.29.265.63.444 1.02.537.768.175 1.63.137 2.312-.302.672-.433 1.134-1.023 1.379-1.793.14-.442.187-.927.235-1.38.021-.198.027-.396.013-.595-.032-.462-.089-.936-.201-1.387-.108-.434-.308-.854-.484-1.258-.26-.596-.677-1.135-1.114-1.608-.301-.327-.674-.587-1.027-.851-.175-.131-.36-.242-.557-.335-.344-.219-.716-.338-1.115-.356-.399-.089-.797-.071-1.196.054-.39.093-.73.272-1.02.537-.327.212-.584.492-.773.842-.368.696-.552 1.54-.302 2.312.226.706.679 1.465 1.376 1.793z" fill="#1b1464"/><path d="m745.396 430.132c.038.014.075.029.112.044-.239-.101-.478-.202-.717-.302.22.095.423.215.615.358-.202-.156-.405-.313-.607-.469.219.171.412.367.583.586-.156-.202-.313-.405-.469-.607.181.24.329.498.448.774-.101-.239-.202-.478-.302-.717.123.298.208.605.255.923-.036-.266-.071-.532-.107-.798.042.317.044.634.003.951.036-.266.071-.532.107-.798-.038.255-.103.501-.199.741.101-.239.202-.478.302-.717-.086.203-.191.392-.319.572-.219.344-.338.716-.356 1.115-.089.399-.071.798.054 1.196.192.696.73 1.45 1.379 1.793.696.368 1.54.552 2.312.302.239-.101.478-.202.717-.302.451-.267.81-.625 1.076-1.076 1.015-1.432 1.199-3.51.685-5.16-.31-.995-.783-1.788-1.455-2.574-.675-.788-1.572-1.258-2.521-1.621-.399-.125-.797-.143-1.196-.054-.399.018-.771.137-1.115.356-.622.364-1.216 1.078-1.379 1.793-.175.768-.137 1.63.302 2.312.156.202.313.405.469.607.373.372.815.629 1.323.772z" fill="#1b1464"/><path d="m751.129 450.486c.16.081.309.175.452.284-.202-.156-.405-.313-.607-.469.187.148.353.316.501.503-.156-.202-.313-.405-.469-.607.164.214.298.444.404.692-.101-.239-.202-.478-.302-.717.102.249.173.506.21.772-.036-.266-.071-.532-.107-.798.029.237.031.473.002.709.036-.266.071-.532.107-.798-.01.074-.023.147-.038.22-.125.399-.143.798-.054 1.196.018.399.137.771.356 1.115.189.35.446.63.773.842.29.265.63.444 1.02.537.266.036.532.071.798.107.542-.002 1.046-.138 1.514-.41.633-.408 1.22-1.03 1.379-1.793.086-.414.15-.838.165-1.261.011-.292-.037-.575-.076-.864-.04-.297-.07-.59-.157-.877-.118-.389-.29-.767-.463-1.133-.07-.148-.152-.29-.244-.425-.228-.332-.472-.66-.748-.954-.275-.294-.616-.528-.935-.769-.143-.108-.292-.203-.452-.284-.344-.219-.716-.338-1.115-.356-.399-.089-.797-.071-1.196.054-.39.093-.73.272-1.02.537-.327.212-.584.492-.773.842-.368.696-.552 1.54-.302 2.312.23.718.681 1.441 1.377 1.793z" fill="#1b1464"/><path d="m444.372 416.283c12.852 2.69 25.91 4.443 39.02 5.205 10.767.626 21.552.027 32.312.65 2.642.153 5.203.376 7.626.785 1.225.207 2.444.456 3.647.77.613.16 1.222.337 1.824.536.193.064.386.13.578.198.098.035 1.158.455.654.239 1.488.637 3.216.444 4.105-1.076.739-1.263.421-3.463-1.076-4.105-4.502-1.927-9.31-2.677-14.164-3.114-4.976-.447-9.98-.493-14.973-.475-12.08.044-24.095-.357-36.101-1.786-7.335-.873-14.625-2.1-21.854-3.614-1.584-.332-3.242.465-3.69 2.095-.412 1.49.499 3.358 2.092 3.692z" fill="#1b1464"/><path d="m568.227 569.706c5.084 4.192 10.288 8.295 16.093 11.453 5.648 3.072 11.782 5.574 17.966 7.338 5.828 1.662 11.969 2.403 18.008 1.709 7.992-.918 15.125-3.96 22.236-7.58 5.17-2.631 10.487-5.136 15.373-8.282 2.954-1.902 5.705-4.159 7.473-7.248 2.173-3.796 3.766-8.028 5.387-12.078 2.079-5.197 3.981-10.465 5.82-15.751 4.888-14.05 9.363-28.243 13.893-42.411.648-2.026 1.296-4.052 1.944-6.078.494-1.543-.579-3.274-2.095-3.69-1.62-.445-3.195.547-3.69 2.095-4.574 14.294-9.081 28.612-13.895 42.827-1.871 5.524-3.791 11.033-5.851 16.49-.881 2.334-1.789 4.659-2.74 6.966-.102.248-.205.495-.308.743-.051.122-.102.245-.154.367.017-.041.182-.429.047-.113-.217.51-.436 1.02-.658 1.529-.421.963-.852 1.922-1.296 2.874-.69 1.48-1.372 2.966-2.294 4.319-.088.128-.192.247-.276.377.187-.291.375-.454.078-.115-.231.263-.457.527-.699.779-.524.544-1.093 1.029-1.668 1.516-.452.383.168-.117.011-.004-.187.134-.369.275-.556.41-.37.266-.747.522-1.127.773-.867.571-1.755 1.109-2.652 1.63-2.301 1.336-4.661 2.568-7.023 3.79-6.568 3.396-13.08 7.081-20.299 8.906-3.108.786-5.842 1.175-9.036 1.222-2.906.043-5.407-.2-7.969-.699-5.743-1.119-11.364-3.218-16.665-5.662-5.358-2.471-10.359-5.664-14.967-9.279-1.405-1.102-2.79-2.23-4.167-3.366-1.249-1.03-3.02-1.223-4.243 0-1.063 1.062-1.257 3.207-.001 4.243z" fill="#1b1464"/><path d="m636.068 281.552c3.202 3.324 5.944 6.978 7.25 11.463 1.324 4.546 1.436 9.299 1.562 13.999.103 3.854 6.103 3.869 6 0-.143-5.353-.313-10.853-1.901-16.011-1.634-5.308-4.853-9.734-8.668-13.695-2.684-2.784-6.924 1.462-4.243 4.244z" fill="#1b1464"/><path d="m616.039 333.691c3.212 3.401 7.138 6.191 11.438 8.041.771.332 1.466.535 2.312.302.696-.192 1.45-.73 1.793-1.379.368-.696.552-1.54.302-2.312-.223-.69-.68-1.492-1.379-1.793-2.011-.865-3.934-1.925-5.732-3.174-.2-.139-.398-.28-.594-.423-.123-.09-.245-.18-.366-.271-.076-.057-.425-.324-.059-.042.391.302-.042-.035-.127-.103-.095-.076-.189-.152-.283-.229-.212-.173-.421-.349-.628-.528-.852-.734-1.662-1.515-2.434-2.332-1.08-1.143-3.168-1.171-4.243 0-1.126 1.226-1.152 3.024 0 4.243z" fill="#1b1464"/><path d="m550.817 671.9c3.52 2.884 7.252 5.689 11.029 8.133 16.435 10.635 39.294 16.757 57.017 20.153 9.428 1.806-19.775 13.658-19.775 13.658l-54.951-38.07c.001 0-5.64-13.97 6.68-3.874z" fill="#1967ff"/></svg>