<svg xmlns="http://www.w3.org/2000/svg" xmlns:xlink="http://www.w3.org/1999/xlink" width="123" zoomAndPan="magnify" viewBox="0 0 92.25 40.499999" height="54" preserveAspectRatio="xMidYMid meet" version="1.0"><defs><g/></defs><g fill="#333b69" fill-opacity="1"><g transform="translate(23.694352, 25.65032)"><g><path d="M 5.171875 -6.90625 L 5.171875 0 L 1.25 0 L 1.25 -17.203125 L 5.171875 -17.203125 L 5.171875 -10.34375 L 10.71875 -10.34375 L 10.71875 -17.203125 L 14.625 -17.203125 L 14.625 0 L 10.71875 0 L 10.71875 -6.90625 Z M 5.171875 -6.90625 "/></g></g></g><g fill="#333b69" fill-opacity="1"><g transform="translate(37.801594, 25.65032)"><g><path d="M 16.90625 0 L 11.5 0 L 5.171875 -7.296875 L 5.171875 0 L 1.25 0 L 1.25 -17.203125 L 5.171875 -17.203125 L 5.171875 -10.171875 L 11.0625 -17.203125 L 15.828125 -17.203125 L 8.90625 -9.046875 Z M 16.90625 0 "/></g></g></g><g fill="#333b69" fill-opacity="1"><g transform="translate(52.429799, 25.65032)"><g><path d="M 1.25 -17.203125 L 6.234375 -17.203125 C 8.617188 -17.203125 10.660156 -16.382812 12.359375 -14.75 C 14.054688 -13.113281 14.90625 -11.066406 14.90625 -8.609375 C 14.90625 -6.128906 14.0625 -4.070312 12.375 -2.4375 C 10.6875 -0.8125 8.640625 0 6.234375 0 L 1.25 0 Z M 5.171875 -3.5 L 5.78125 -3.5 C 7.207031 -3.5 8.375 -3.984375 9.28125 -4.953125 C 10.195312 -5.921875 10.660156 -7.132812 10.671875 -8.59375 C 10.671875 -10.050781 10.210938 -11.265625 9.296875 -12.234375 C 8.390625 -13.203125 7.21875 -13.6875 5.78125 -13.6875 L 5.171875 -13.6875 Z M 5.171875 -3.5 "/></g></g></g><path stroke-linecap="butt" transform="matrix(0.291838, 0, 0, 0.291838, 2.698012, 34.329391)" fill="none" stroke-linejoin="miter" d="M 0.00413396 5.001653 L 84.43672 5.001653 " stroke="#333b69" stroke-width="10" stroke-opacity="1" stroke-miterlimit="4"/><path stroke-linecap="butt" transform="matrix(0, 0.291838, -0.291838, 0, 5.614894, 12.307815)" fill="none" stroke-linejoin="miter" d="M 0.00266885 4.998133 L 82.46766 4.998133 " stroke="#333b69" stroke-width="10" stroke-opacity="1" stroke-miterlimit="4"/><path stroke-linecap="butt" transform="matrix(-0.291838, 0, 0, -0.291838, 88.898775, 5.669617)" fill="none" stroke-linejoin="miter" d="M 0.00115533 4.998254 L 84.433741 4.998254 " stroke="#333b69" stroke-width="10" stroke-opacity="1" stroke-miterlimit="4"/><path stroke-linecap="butt" transform="matrix(0, -0.291838, 0.291838, 0, 85.981895, 27.691192)" fill="none" stroke-linejoin="miter" d="M -0.000733819 5.001102 L 82.464257 5.001102 " stroke="#333b69" stroke-width="10" stroke-opacity="1" stroke-miterlimit="4"/></svg>